<?xml version="1.0" encoding="UTF-8"?>
<svg id="Warstwa_1" xmlns="http://www.w3.org/2000/svg" xmlns:xlink="http://www.w3.org/1999/xlink" viewBox="0 0 542 816">
  <defs>
    <style>
      .cls-1 {
  stroke: #000;
  stroke-miterlimit: 10;
  stroke-width: 3.5px;
  fill: none;
}

      .cls-1, .cls-2 {
        stroke: #000;
      }

      .cls-1, .cls-2, .cls-3 {
        fill: none;
      }

      .cls-2 {
        stroke-linecap: round;
        stroke-linejoin: round;
        stroke-width: .4px;
      }

      .cls-3 {
        clip-rule: evenodd;
      }

      .cls-4 {
        clip-path: url(#clippath);
      }
    </style>
    <clipPath id="clippath">
      <polyline class="cls-3" points="0 0 542 0 542 816 0 816 0 0"/>
    </clipPath>
  </defs>
  <g class="cls-4">
    <line class="cls-2" x1="404.3" y1="401.34" x2="404.3" y2="488.46"/>
    <line class="cls-2" x1="403.62" y1="488.56" x2="404.3" y2="488.46"/>
    <line class="cls-2" x1="390.46" y1="419.59" x2="390.46" y2="402.83"/>
    <line class="cls-2" x1="403.62" y1="488.56" x2="344.11" y2="497.59"/>
    <line class="cls-2" x1="344.11" y1="554.31" x2="344.11" y2="467.2"/>
    <line class="cls-2" x1="344.11" y1="554.31" x2="236.22" y2="570.7"/>
    <line class="cls-2" x1="236.22" y1="483.59" x2="236.22" y2="573.08"/>
    <line class="cls-2" x1="140.8" y1="383.79" x2="140.8" y2="351.58"/>
    <line class="cls-2" x1="236.22" y1="483.59" x2="236.22" y2="450.52"/>
    <line class="cls-2" x1="326.04" y1="461.93" x2="301.96" y2="465.58"/>
    <line class="cls-2" x1="326.04" y1="435.15" x2="326.04" y2="461.93"/>
    <line class="cls-2" x1="301.96" y1="433.7" x2="325.07" y2="430.19"/>
    <line class="cls-2" x1="325.07" y1="430.19" x2="325.07" y2="409.25"/>
    <line class="cls-2" x1="301.96" y1="434.45" x2="325.91" y2="430.81"/>
    <line class="cls-2" x1="301.96" y1="435.83" x2="327.07" y2="432.01"/>
    <line class="cls-2" x1="327.07" y1="434.99" x2="301.96" y2="438.8"/>
    <line class="cls-2" x1="325.91" y1="409.11" x2="325.91" y2="430.81"/>
    <line class="cls-2" x1="327.07" y1="432.01" x2="325.91" y2="430.81"/>
    <line class="cls-2" x1="327.07" y1="432.01" x2="327.07" y2="408.93"/>
    <line class="cls-2" x1="327.07" y1="462.99" x2="327.07" y2="434.99"/>
    <line class="cls-2" x1="327.07" y1="462.99" x2="326.04" y2="461.93"/>
    <line class="cls-2" x1="301.96" y1="466.81" x2="327.07" y2="462.99"/>
    <line class="cls-2" x1="330.62" y1="466.6" x2="331.47" y2="466.47"/>
    <line class="cls-2" x1="327.92" y1="463.46" x2="327.92" y2="408.79"/>
    <line class="cls-2" x1="330.62" y1="466.6" x2="327.92" y2="463.46"/>
    <line class="cls-2" x1="301.96" y1="467.4" x2="327.92" y2="463.46"/>
    <line class="cls-2" x1="301.51" y1="471.53" x2="301.12" y2="471.08"/>
    <line class="cls-2" x1="331.85" y1="466.92" x2="301.51" y2="471.53"/>
    <line class="cls-2" x1="331.47" y1="466.47" x2="331.85" y2="466.92"/>
    <line class="cls-2" x1="301.29" y1="471.05" x2="301.12" y2="471.08"/>
    <line class="cls-2" x1="331.85" y1="467.29" x2="331.85" y2="466.92"/>
    <line class="cls-2" x1="301.12" y1="471.08" x2="301.12" y2="471.5"/>
    <line class="cls-2" x1="301.51" y1="471.9" x2="301.12" y2="471.5"/>
    <line class="cls-2" x1="301.51" y1="471.9" x2="301.51" y2="471.53"/>
    <line class="cls-2" x1="331.85" y1="467.29" x2="301.51" y2="471.9"/>
    <line class="cls-2" x1="344.11" y1="467.2" x2="344.11" y2="385.57"/>
    <line class="cls-2" x1="390.46" y1="400.94" x2="390.46" y2="402.83"/>
    <line class="cls-2" x1="404.3" y1="401.34" x2="404.3" y2="368.27"/>
    <line class="cls-2" x1="200.98" y1="305.66" x2="200.98" y2="237.16"/>
    <line class="cls-2" x1="344.11" y1="402.62" x2="386.35" y2="396.2"/>
    <line class="cls-2" x1="386.35" y1="396.2" x2="386.35" y2="373.63"/>
    <line class="cls-2" x1="387.39" y1="373.94" x2="387.39" y2="397.27"/>
    <line class="cls-2" x1="387.39" y1="397.27" x2="344.11" y2="403.84"/>
    <line class="cls-2" x1="387.39" y1="397.27" x2="386.35" y2="396.2"/>
    <line class="cls-2" x1="388.23" y1="374.19" x2="388.23" y2="398.63"/>
    <line class="cls-2" x1="388.23" y1="398.63" x2="390.46" y2="400.94"/>
    <line class="cls-2" x1="248.86" y1="568.48" x2="248.86" y2="498.43"/>
    <line class="cls-2" x1="249.7" y1="498.3" x2="249.7" y2="568.35"/>
    <line class="cls-2" x1="249.7" y1="560.99" x2="273.07" y2="557.44"/>
    <line class="cls-2" x1="273.07" y1="558.93" x2="249.7" y2="562.48"/>
    <line class="cls-2" x1="273.5" y1="557.89" x2="273.5" y2="494.69"/>
    <line class="cls-2" x1="275.19" y1="494.43" x2="275.19" y2="557.63"/>
    <line class="cls-2" x1="273.07" y1="557.44" x2="273.07" y2="494.75"/>
    <line class="cls-2" x1="273.5" y1="559.38" x2="273.5" y2="557.89"/>
    <line class="cls-2" x1="275.19" y1="557.63" x2="299.12" y2="554"/>
    <line class="cls-2" x1="299.12" y1="555.48" x2="273.5" y2="559.38"/>
    <line class="cls-2" x1="273.07" y1="558.93" x2="273.07" y2="557.44"/>
    <line class="cls-2" x1="273.5" y1="559.38" x2="273.07" y2="558.93"/>
    <line class="cls-2" x1="326.86" y1="486.58" x2="326.86" y2="550.29"/>
    <line class="cls-2" x1="325.18" y1="550.55" x2="325.18" y2="486.84"/>
    <line class="cls-2" x1="299.55" y1="554.44" x2="299.55" y2="490.73"/>
    <line class="cls-2" x1="301.24" y1="490.48" x2="301.24" y2="554.19"/>
    <line class="cls-2" x1="299.12" y1="554" x2="299.12" y2="490.8"/>
    <line class="cls-2" x1="299.55" y1="555.93" x2="299.55" y2="554.44"/>
    <line class="cls-2" x1="301.24" y1="554.19" x2="325.18" y2="550.55"/>
    <line class="cls-2" x1="299.12" y1="555.48" x2="299.12" y2="554"/>
    <line class="cls-2" x1="299.55" y1="555.93" x2="299.12" y2="555.48"/>
    <line class="cls-2" x1="249.7" y1="563.5" x2="326.86" y2="551.78"/>
    <line class="cls-2" x1="326.86" y1="551.78" x2="326.86" y2="550.29"/>
    <line class="cls-2" x1="328.05" y1="553.39" x2="328.05" y2="553.09"/>
    <line class="cls-2" x1="328.05" y1="553.09" x2="328.05" y2="486.41"/>
    <line class="cls-2" x1="330.62" y1="556.06" x2="330.62" y2="486.01"/>
    <line class="cls-2" x1="331.47" y1="555.93" x2="331.47" y2="485.89"/>
    <line class="cls-2" x1="331.47" y1="555.93" x2="248.86" y2="568.48"/>
    <line class="cls-2" x1="213.01" y1="556.58" x2="236.22" y2="580.65"/>
    <line class="cls-2" x1="236.22" y1="578.24" x2="236.22" y2="573.08"/>
    <line class="cls-2" x1="387.05" y1="420.4" x2="387.05" y2="484.44"/>
    <line class="cls-2" x1="385.36" y1="484.69" x2="385.36" y2="420.37"/>
    <line class="cls-2" x1="344.11" y1="490.96" x2="385.36" y2="484.69"/>
    <line class="cls-2" x1="387.05" y1="420.11" x2="387.05" y2="420.4"/>
    <line class="cls-2" x1="344.11" y1="492.44" x2="387.05" y2="485.92"/>
    <line class="cls-2" x1="387.05" y1="485.92" x2="387.05" y2="484.44"/>
    <line class="cls-2" x1="388.23" y1="487.53" x2="388.23" y2="487.23"/>
    <line class="cls-2" x1="388.23" y1="487.23" x2="388.23" y2="419.93"/>
    <line class="cls-2" x1="390.81" y1="490.2" x2="390.81" y2="413.37"/>
    <line class="cls-2" x1="391.65" y1="490.08" x2="391.65" y2="413.24"/>
    <line class="cls-2" x1="391.65" y1="490.08" x2="344.11" y2="497.3"/>
    <line class="cls-2" x1="452" y1="540.96" x2="452" y2="538.52"/>
    <line class="cls-2" x1="452" y1="547.13" x2="452" y2="546.77"/>
    <line class="cls-2" x1="236.22" y1="580.65" x2="452" y2="547.87"/>
    <line class="cls-2" x1="452" y1="547.87" x2="452" y2="547.13"/>
    <line class="cls-2" x1="344.11" y1="554.31" x2="452" y2="537.93"/>
    <line class="cls-2" x1="452" y1="537.93" x2="404.3" y2="488.46"/>
    <line class="cls-2" x1="452" y1="538.52" x2="452" y2="537.93"/>
    <line class="cls-2" x1="452" y1="546.77" x2="452" y2="540.96"/>
    <line class="cls-2" x1="80.61" y1="485.5" x2="81.9" y2="486.83"/>
    <line class="cls-2" x1="83.19" y1="488.17" x2="84.48" y2="489.51"/>
    <line class="cls-2" x1="85.76" y1="490.84" x2="87.05" y2="492.18"/>
    <line class="cls-2" x1="88.34" y1="493.52" x2="89.63" y2="494.86"/>
    <line class="cls-2" x1="90.92" y1="496.19" x2="92.21" y2="497.53"/>
    <line class="cls-2" x1="93.5" y1="498.87" x2="94.79" y2="500.2"/>
    <line class="cls-2" x1="96.08" y1="501.54" x2="97.37" y2="502.88"/>
    <line class="cls-2" x1="98.66" y1="504.22" x2="99.95" y2="505.55"/>
    <line class="cls-2" x1="101.24" y1="506.89" x2="102.53" y2="508.23"/>
    <line class="cls-2" x1="103.82" y1="509.56" x2="105.11" y2="510.9"/>
    <line class="cls-2" x1="106.4" y1="512.24" x2="107.68" y2="513.58"/>
    <line class="cls-2" x1="76.74" y1="484.52" x2="76.74" y2="482.08"/>
    <line class="cls-2" x1="76.74" y1="490.69" x2="76.74" y2="490.33"/>
    <line class="cls-2" x1="76.74" y1="491.43" x2="76.74" y2="490.69"/>
    <line class="cls-2" x1="76.74" y1="491.43" x2="76.74" y2="483.87"/>
    <line class="cls-2" x1="76.74" y1="491.43" x2="148.95" y2="566.31"/>
    <line class="cls-2" x1="148.95" y1="566.31" x2="213.01" y2="556.58"/>
    <line class="cls-2" x1="213.01" y1="553.17" x2="213.01" y2="549.01"/>
    <line class="cls-2" x1="148.95" y1="565" x2="148.95" y2="558.74"/>
    <line class="cls-2" x1="107.68" y1="437.58" x2="107.68" y2="513.58"/>
    <line class="cls-2" x1="148.95" y1="556.36" x2="76.74" y2="483.87"/>
    <line class="cls-2" x1="148.95" y1="558.74" x2="148.95" y2="479.03"/>
    <line class="cls-2" x1="148.95" y1="556.36" x2="213.01" y2="546.63"/>
    <line class="cls-2" x1="213.01" y1="467.31" x2="213.01" y2="466.82"/>
    <line class="cls-2" x1="213.01" y1="466.47" x2="213.01" y2="462"/>
    <line class="cls-2" x1="213.01" y1="462" x2="213.01" y2="460.66"/>
    <line class="cls-2" x1="148.95" y1="479.03" x2="148.95" y2="478.19"/>
    <line class="cls-2" x1="76.74" y1="404.15" x2="76.74" y2="403.32"/>
    <line class="cls-2" x1="76.74" y1="403.32" x2="76.74" y2="397.51"/>
    <line class="cls-2" x1="148.95" y1="478.19" x2="148.95" y2="472.38"/>
    <line class="cls-2" x1="76.74" y1="397.51" x2="76.74" y2="397.15"/>
    <line class="cls-2" x1="148.95" y1="472.38" x2="148.95" y2="472.03"/>
    <line class="cls-2" x1="148.95" y1="472.03" x2="148.95" y2="471.28"/>
    <line class="cls-2" x1="76.74" y1="397.15" x2="76.74" y2="396.41"/>
    <line class="cls-2" x1="140.8" y1="383.79" x2="76.74" y2="395.51"/>
    <line class="cls-2" x1="76.74" y1="395.51" x2="148.95" y2="470.39"/>
    <line class="cls-2" x1="148.95" y1="470.39" x2="213.01" y2="458.67"/>
    <line class="cls-2" x1="213.01" y1="458.67" x2="140.8" y2="383.79"/>
    <line class="cls-2" x1="213.01" y1="459.52" x2="213.01" y2="458.67"/>
    <line class="cls-2" x1="76.74" y1="396.41" x2="76.74" y2="395.51"/>
    <line class="cls-2" x1="148.95" y1="471.28" x2="148.95" y2="470.39"/>
    <line class="cls-2" x1="236.22" y1="570.7" x2="213.01" y2="546.63"/>
    <line class="cls-2" x1="213.01" y1="466.47" x2="213.01" y2="467.31"/>
    <line class="cls-2" x1="213.01" y1="462" x2="213.01" y2="466.47"/>
    <line class="cls-2" x1="213.01" y1="467.31" x2="213.01" y2="549.01"/>
    <line class="cls-2" x1="213.01" y1="459.52" x2="213.01" y2="462"/>
    <line class="cls-2" x1="331.47" y1="467.32" x2="331.47" y2="485.86"/>
    <line class="cls-2" x1="331.47" y1="393.19" x2="331.47" y2="407.47"/>
    <line class="cls-2" x1="248.86" y1="498.43" x2="331.47" y2="485.89"/>
    <line class="cls-2" x1="301.29" y1="412.34" x2="301.29" y2="471.05"/>
    <line class="cls-2" x1="331.47" y1="407.47" x2="302.13" y2="412.22"/>
    <line class="cls-2" x1="248.86" y1="498.46" x2="248.86" y2="442.91"/>
    <line class="cls-2" x1="301.29" y1="412.34" x2="302.13" y2="412.22"/>
    <line class="cls-2" x1="390.29" y1="400.77" x2="344.11" y2="407.78"/>
    <line class="cls-2" x1="390.46" y1="419.59" x2="344.11" y2="426.63"/>
    <line class="cls-2" x1="331.47" y1="393.19" x2="248.86" y2="442.91"/>
    <line class="cls-2" x1="248.69" y1="276.94" x2="140.8" y2="341.88"/>
    <line class="cls-2" x1="140.8" y1="341.88" x2="236.22" y2="440.83"/>
    <line class="cls-2" x1="236.22" y1="440.83" x2="344.11" y2="375.88"/>
    <line class="cls-2" x1="344.11" y1="375.88" x2="296.4" y2="326.41"/>
    <line class="cls-2" x1="296.4" y1="326.41" x2="248.69" y2="276.94"/>
    <line class="cls-2" x1="344.11" y1="376.88" x2="344.11" y2="375.88"/>
    <line class="cls-2" x1="140.8" y1="342.89" x2="140.8" y2="341.88"/>
    <line class="cls-2" x1="236.22" y1="441.83" x2="236.22" y2="440.83"/>
    <line class="cls-2" x1="344.11" y1="377.72" x2="344.11" y2="376.88"/>
    <line class="cls-2" x1="236.22" y1="442.66" x2="236.22" y2="441.83"/>
    <line class="cls-2" x1="140.8" y1="343.72" x2="140.8" y2="342.89"/>
    <line class="cls-2" x1="344.11" y1="378.12" x2="344.11" y2="377.72"/>
    <line class="cls-2" x1="236.22" y1="443.07" x2="236.22" y2="442.66"/>
    <line class="cls-2" x1="140.8" y1="344.12" x2="140.8" y2="343.72"/>
    <line class="cls-2" x1="344.11" y1="384.64" x2="344.11" y2="378.12"/>
    <line class="cls-2" x1="236.22" y1="449.58" x2="236.22" y2="443.07"/>
    <line class="cls-2" x1="140.8" y1="350.64" x2="140.8" y2="344.12"/>
    <line class="cls-2" x1="344.11" y1="385.57" x2="344.11" y2="384.64"/>
    <line class="cls-2" x1="140.8" y1="351.58" x2="140.8" y2="350.64"/>
    <line class="cls-2" x1="236.22" y1="450.52" x2="236.22" y2="449.58"/>
    <line class="cls-2" x1="296.4" y1="326.41" x2="404.3" y2="358.58"/>
    <line class="cls-2" x1="404.3" y1="358.58" x2="308.88" y2="259.64"/>
    <line class="cls-2" x1="308.88" y1="259.64" x2="200.98" y2="227.47"/>
    <line class="cls-2" x1="200.98" y1="227.47" x2="248.69" y2="276.94"/>
    <line class="cls-2" x1="200.98" y1="228.47" x2="200.98" y2="227.47"/>
    <line class="cls-2" x1="404.3" y1="359.58" x2="404.3" y2="358.58"/>
    <line class="cls-2" x1="200.98" y1="229.31" x2="200.98" y2="228.47"/>
    <line class="cls-2" x1="404.3" y1="360.42" x2="404.3" y2="359.58"/>
    <line class="cls-2" x1="200.98" y1="229.71" x2="200.98" y2="229.31"/>
    <line class="cls-2" x1="404.3" y1="360.82" x2="404.3" y2="360.42"/>
    <line class="cls-2" x1="200.98" y1="236.22" x2="200.98" y2="229.71"/>
    <line class="cls-2" x1="404.3" y1="367.34" x2="404.3" y2="360.82"/>
    <line class="cls-2" x1="200.98" y1="237.16" x2="200.98" y2="236.22"/>
    <line class="cls-2" x1="404.3" y1="368.27" x2="404.3" y2="367.34"/>
    <line class="cls-2" x1="105.11" y1="510.9" x2="105.11" y2="434.9"/>
    <line class="cls-2" x1="106.4" y1="512.24" x2="107.68" y2="512.04"/>
    <line class="cls-2" x1="106.4" y1="512.24" x2="106.4" y2="436.24"/>
    <line class="cls-2" x1="102.53" y1="508.23" x2="102.53" y2="432.23"/>
    <line class="cls-2" x1="103.82" y1="509.56" x2="105.11" y2="509.37"/>
    <line class="cls-2" x1="103.82" y1="509.56" x2="103.82" y2="433.57"/>
    <line class="cls-2" x1="99.95" y1="505.55" x2="99.95" y2="429.56"/>
    <line class="cls-2" x1="101.24" y1="506.89" x2="102.53" y2="506.69"/>
    <line class="cls-2" x1="101.24" y1="506.89" x2="101.24" y2="430.89"/>
    <line class="cls-2" x1="87.05" y1="492.18" x2="87.05" y2="416.19"/>
    <line class="cls-2" x1="88.34" y1="493.52" x2="89.63" y2="493.33"/>
    <line class="cls-2" x1="88.34" y1="493.52" x2="88.34" y2="417.52"/>
    <line class="cls-2" x1="92.21" y1="497.53" x2="92.21" y2="421.53"/>
    <line class="cls-2" x1="93.5" y1="498.87" x2="94.79" y2="498.67"/>
    <line class="cls-2" x1="93.5" y1="498.87" x2="93.5" y2="422.87"/>
    <line class="cls-2" x1="89.63" y1="494.86" x2="89.63" y2="418.86"/>
    <line class="cls-2" x1="90.92" y1="496.19" x2="92.21" y2="496"/>
    <line class="cls-2" x1="90.92" y1="496.19" x2="90.92" y2="420.2"/>
    <line class="cls-2" x1="94.79" y1="500.2" x2="94.79" y2="424.21"/>
    <line class="cls-2" x1="96.08" y1="501.54" x2="97.37" y2="501.35"/>
    <line class="cls-2" x1="96.08" y1="501.54" x2="96.08" y2="425.55"/>
    <line class="cls-2" x1="97.37" y1="502.88" x2="97.37" y2="426.88"/>
    <line class="cls-2" x1="98.66" y1="504.22" x2="99.95" y2="504.02"/>
    <line class="cls-2" x1="98.66" y1="504.22" x2="98.66" y2="428.22"/>
    <line class="cls-2" x1="80.61" y1="485.5" x2="81.9" y2="485.3"/>
    <line class="cls-2" x1="80.61" y1="485.5" x2="80.61" y2="409.5"/>
    <line class="cls-2" x1="81.9" y1="486.83" x2="81.9" y2="410.84"/>
    <line class="cls-2" x1="83.19" y1="488.17" x2="84.48" y2="487.98"/>
    <line class="cls-2" x1="83.19" y1="488.17" x2="83.19" y2="412.17"/>
    <line class="cls-2" x1="84.48" y1="489.51" x2="84.48" y2="413.51"/>
    <line class="cls-2" x1="85.76" y1="490.84" x2="87.05" y2="490.65"/>
    <line class="cls-2" x1="85.76" y1="490.84" x2="85.76" y2="414.85"/>
    <line class="cls-2" x1="76.74" y1="482.08" x2="76.74" y2="404.15"/>
    <line class="cls-2" x1="107.68" y1="437.58" x2="106.4" y2="436.24"/>
    <line class="cls-2" x1="105.11" y1="434.9" x2="103.82" y2="433.57"/>
    <line class="cls-2" x1="102.53" y1="432.23" x2="101.24" y2="430.89"/>
    <line class="cls-2" x1="99.95" y1="429.56" x2="98.66" y2="428.22"/>
    <line class="cls-2" x1="97.37" y1="426.88" x2="96.08" y2="425.54"/>
    <line class="cls-2" x1="94.79" y1="424.21" x2="93.5" y2="422.87"/>
    <line class="cls-2" x1="92.21" y1="421.53" x2="90.92" y2="420.2"/>
    <line class="cls-2" x1="89.63" y1="418.86" x2="88.34" y2="417.52"/>
    <line class="cls-2" x1="87.05" y1="416.19" x2="85.77" y2="414.85"/>
    <line class="cls-2" x1="84.48" y1="413.51" x2="83.19" y2="412.17"/>
    <line class="cls-2" x1="81.9" y1="410.84" x2="80.61" y2="409.5"/>
    <line class="cls-2" x1="148.95" y1="566.31" x2="148.95" y2="558.74"/>
    <line class="cls-2" x1="213.01" y1="556.58" x2="213.01" y2="549.01"/>
    <line class="cls-2" x1="236.22" y1="580.65" x2="236.22" y2="573.08"/>
    <line class="cls-2" x1="322.88" y1="353.87" x2="391.65" y2="374.37"/>
    <line class="cls-2" x1="391.65" y1="374.37" x2="391.65" y2="413.24"/>
    <line class="cls-2" x1="324.01" y1="355.04" x2="390.81" y2="374.96"/>
    <line class="cls-2" x1="390.81" y1="374.96" x2="390.81" y2="413.34"/>
    <line class="cls-2" x1="388.23" y1="398.63" x2="344.11" y2="405.33"/>
    <line class="cls-2" x1="390.81" y1="490.2" x2="388.23" y2="487.53"/>
    <line class="cls-2" x1="388.23" y1="487.53" x2="344.11" y2="494.23"/>
    <line class="cls-2" x1="331.47" y1="466.47" x2="331.47" y2="407.47"/>
    <line class="cls-2" x1="330.62" y1="466.6" x2="330.62" y2="408.35"/>
    <line class="cls-2" x1="330.62" y1="408.35" x2="301.96" y2="412.99"/>
    <line class="cls-2" x1="301.96" y1="412.99" x2="301.96" y2="470.95"/>
    <line class="cls-2" x1="301.96" y1="470.95" x2="301.29" y2="471.05"/>
    <line class="cls-2" x1="328.05" y1="553.39" x2="249.7" y2="565.29"/>
    <line class="cls-2" x1="328.05" y1="553.39" x2="330.62" y2="556.06"/>
  </g>
  <line class="cls-1" x1="452.31" y1="547.82" x2="235.97" y2="580.68"/>
  <line class="cls-1" x1="200.67" y1="227.37" x2="308.96" y2="259.66"/>
  <line class="cls-1" x1="200.98" y1="305.95" x2="200.98" y2="227.09"/>
  <line class="cls-1" x1="404.43" y1="358.73" x2="308.75" y2="259.51"/>
  <line class="cls-1" x1="404.3" y1="488.46" x2="404.3" y2="358.38"/>
  <line class="cls-1" x1="404.1" y1="488.26" x2="452.14" y2="538"/>
  <line class="cls-1" x1="452" y1="548.33" x2="452" y2="537.65"/>
  <line class="cls-1" x1="212.72" y1="556.28" x2="236.4" y2="580.83"/>
  <line class="cls-1" x1="148.67" y1="566.35" x2="213.01" y2="556.58"/>
  <line class="cls-1" x1="76.57" y1="491.26" x2="149.1" y2="566.46"/>
  <line class="cls-1" x1="140.8" y1="383.79" x2="76.17" y2="395.61"/>
  <line class="cls-1" x1="140.8" y1="341.62" x2="140.8" y2="384.26"/>
  <line class="cls-1" x1="140.58" y1="342.02" x2="201.26" y2="305.49"/>
  <line class="cls-1" x1="76.48" y1="491.37" x2="76.48" y2="395.15"/>
  <line class="cls-1" x1="76.74" y1="491.43" x2="76.31" y2="491.01"/>
</svg>