<?xml version="1.0" encoding="UTF-8"?>
<svg id="Warstwa_1" xmlns="http://www.w3.org/2000/svg" xmlns:xlink="http://www.w3.org/1999/xlink" viewBox="0 0 542 816">
  <defs>
    <style>
 .cls-1 {
  stroke: #000;
  stroke-miterlimit: 10;
  stroke-width: 3.5px;
  fill: none;
}

      .cls-1, .cls-2 {
        stroke: #000;
      }

      .cls-1, .cls-2, .cls-3 {
        fill: none;
      }

      .cls-2 {
        stroke-linecap: round;
        stroke-linejoin: round;
        stroke-width: .4px;
      }

      .cls-3 {
        clip-rule: evenodd;
      }

      .cls-4 {
        clip-path: url(#clippath);
      }
    </style>
    <clipPath id="clippath">
      <polyline class="cls-3" points="0 0 542 0 542 816 0 816 0 0"/>
    </clipPath>
  </defs>
  <g class="cls-4">
    <line class="cls-2" x1="469.46" y1="415.4" x2="469.46" y2="502.51"/>
    <line class="cls-2" x1="361.57" y1="431.78" x2="361.57" y2="518.9"/>
    <line class="cls-2" x1="344.74" y1="414.33" x2="344.74" y2="421.63"/>
    <line class="cls-2" x1="236.85" y1="430.72" x2="236.85" y2="517.84"/>
    <line class="cls-2" x1="375.06" y1="511.09" x2="451.7" y2="499.45"/>
    <line class="cls-2" x1="451.7" y1="499.45" x2="451.7" y2="434.34"/>
    <line class="cls-2" x1="452.21" y1="434.26" x2="452.21" y2="499.98"/>
    <line class="cls-2" x1="452.21" y1="499.98" x2="451.7" y2="499.45"/>
    <line class="cls-2" x1="452.21" y1="499.98" x2="375.06" y2="511.7"/>
    <line class="cls-2" x1="453.56" y1="434.06" x2="453.56" y2="500.97"/>
    <line class="cls-2" x1="453.56" y1="500.97" x2="375.06" y2="512.89"/>
    <line class="cls-2" x1="374.21" y1="516.68" x2="456.82" y2="504.13"/>
    <line class="cls-2" x1="455.97" y1="503.67" x2="375.06" y2="515.96"/>
    <line class="cls-2" x1="453.56" y1="500.97" x2="455.97" y2="503.67"/>
    <line class="cls-2" x1="374.21" y1="516.68" x2="374.21" y2="445.2"/>
    <line class="cls-2" x1="249.49" y1="515.62" x2="249.49" y2="438.78"/>
    <line class="cls-2" x1="250.33" y1="515.49" x2="250.33" y2="438.65"/>
    <line class="cls-2" x1="250.62" y1="509.1" x2="250.62" y2="446.65"/>
    <line class="cls-2" x1="276.25" y1="505.21" x2="276.25" y2="442.76"/>
    <line class="cls-2" x1="274.56" y1="443.02" x2="274.56" y2="505.47"/>
    <line class="cls-2" x1="276.25" y1="506.7" x2="276.25" y2="505.21"/>
    <line class="cls-2" x1="274.56" y1="505.47" x2="250.62" y2="509.1"/>
    <line class="cls-2" x1="250.33" y1="510.64" x2="276.25" y2="506.7"/>
    <line class="cls-2" x1="301.44" y1="500.87" x2="301.44" y2="438.93"/>
    <line class="cls-2" x1="299.76" y1="439.19" x2="299.76" y2="501.13"/>
    <line class="cls-2" x1="301.44" y1="502.36" x2="301.44" y2="500.87"/>
    <line class="cls-2" x1="299.76" y1="501.13" x2="276.25" y2="504.7"/>
    <line class="cls-2" x1="276.25" y1="506.19" x2="301.44" y2="502.36"/>
    <line class="cls-2" x1="326.63" y1="496.54" x2="326.63" y2="435.11"/>
    <line class="cls-2" x1="324.95" y1="435.36" x2="324.95" y2="496.79"/>
    <line class="cls-2" x1="326.63" y1="498.02" x2="326.63" y2="496.54"/>
    <line class="cls-2" x1="324.95" y1="496.79" x2="301.44" y2="500.36"/>
    <line class="cls-2" x1="301.44" y1="501.85" x2="326.63" y2="498.02"/>
    <line class="cls-2" x1="327.5" y1="434.98" x2="327.5" y2="498.92"/>
    <line class="cls-2" x1="327.5" y1="498.92" x2="326.63" y2="498.02"/>
    <line class="cls-2" x1="327.5" y1="498.92" x2="276.25" y2="506.7"/>
    <line class="cls-2" x1="328.68" y1="500.23" x2="328.68" y2="500.53"/>
    <line class="cls-2" x1="332.1" y1="503.07" x2="332.1" y2="426.23"/>
    <line class="cls-2" x1="332.1" y1="503.07" x2="249.49" y2="515.62"/>
    <line class="cls-2" x1="469.46" y1="505.55" x2="469.46" y2="503.11"/>
    <line class="cls-2" x1="469.46" y1="511.71" x2="469.46" y2="511.36"/>
    <line class="cls-2" x1="361.57" y1="528.85" x2="469.46" y2="512.46"/>
    <line class="cls-2" x1="469.46" y1="512.46" x2="469.46" y2="511.71"/>
    <line class="cls-2" x1="469.46" y1="503.11" x2="469.46" y2="502.51"/>
    <line class="cls-2" x1="469.46" y1="511.36" x2="469.46" y2="502.51"/>
    <line class="cls-2" x1="141.43" y1="316.92" x2="141.43" y2="330.93"/>
    <line class="cls-2" x1="236.85" y1="430.72" x2="236.85" y2="415.86"/>
    <line class="cls-2" x1="469.46" y1="382.67" x2="469.46" y2="415.4"/>
    <line class="cls-2" x1="326.73" y1="412.21" x2="326.73" y2="367.2"/>
    <line class="cls-2" x1="328.42" y1="366.18" x2="328.42" y2="411.95"/>
    <line class="cls-2" x1="250.33" y1="423.81" x2="326.73" y2="412.21"/>
    <line class="cls-2" x1="328.42" y1="413.44" x2="250.33" y2="425.3"/>
    <line class="cls-2" x1="328.42" y1="411.95" x2="328.42" y2="413.44"/>
    <line class="cls-2" x1="330.09" y1="415.18" x2="328.42" y2="413.44"/>
    <line class="cls-2" x1="330.56" y1="415.66" x2="330.09" y2="415.18"/>
    <line class="cls-2" x1="250.33" y1="438.65" x2="250.33" y2="413.7"/>
    <line class="cls-2" x1="332.1" y1="363.94" x2="332.1" y2="416.26"/>
    <line class="cls-2" x1="250.33" y1="413.7" x2="331.25" y2="364.45"/>
    <line class="cls-2" x1="344.74" y1="414.33" x2="344.74" y2="413.14"/>
    <line class="cls-2" x1="344.74" y1="413.14" x2="344.74" y2="412.85"/>
    <line class="cls-2" x1="344.74" y1="412.85" x2="344.74" y2="412.25"/>
    <line class="cls-2" x1="361.57" y1="350.49" x2="361.57" y2="431.78"/>
    <line class="cls-2" x1="375.06" y1="421.87" x2="451.52" y2="410.26"/>
    <line class="cls-2" x1="451.52" y1="410.26" x2="451.52" y2="387.69"/>
    <line class="cls-2" x1="452.55" y1="387.99" x2="452.55" y2="411.33"/>
    <line class="cls-2" x1="452.55" y1="411.33" x2="375.06" y2="423.1"/>
    <line class="cls-2" x1="452.55" y1="411.33" x2="451.52" y2="410.26"/>
    <line class="cls-2" x1="453.39" y1="388.24" x2="453.39" y2="412.69"/>
    <line class="cls-2" x1="453.39" y1="412.69" x2="375.06" y2="424.58"/>
    <line class="cls-2" x1="266.15" y1="250.61" x2="266.15" y2="251.55"/>
    <line class="cls-2" x1="361.57" y1="349.56" x2="361.57" y2="350.49"/>
    <line class="cls-2" x1="469.46" y1="382.67" x2="469.46" y2="381.73"/>
    <line class="cls-2" x1="266.15" y1="244.1" x2="266.15" y2="250.61"/>
    <line class="cls-2" x1="469.46" y1="381.73" x2="469.46" y2="375.21"/>
    <line class="cls-2" x1="361.57" y1="343.04" x2="361.57" y2="349.56"/>
    <line class="cls-2" x1="266.15" y1="243.7" x2="266.15" y2="244.1"/>
    <line class="cls-2" x1="469.46" y1="375.21" x2="469.46" y2="374.81"/>
    <line class="cls-2" x1="361.57" y1="342.64" x2="361.57" y2="343.04"/>
    <line class="cls-2" x1="266.15" y1="242.86" x2="266.15" y2="243.7"/>
    <line class="cls-2" x1="469.46" y1="374.81" x2="469.46" y2="373.98"/>
    <line class="cls-2" x1="361.57" y1="341.8" x2="361.57" y2="342.64"/>
    <line class="cls-2" x1="266.15" y1="241.86" x2="361.57" y2="340.8"/>
    <line class="cls-2" x1="361.57" y1="340.8" x2="469.46" y2="372.97"/>
    <line class="cls-2" x1="469.46" y1="372.97" x2="374.04" y2="274.03"/>
    <line class="cls-2" x1="374.04" y1="274.03" x2="266.15" y2="241.86"/>
    <line class="cls-2" x1="266.15" y1="241.86" x2="266.15" y2="242.86"/>
    <line class="cls-2" x1="361.57" y1="340.8" x2="361.57" y2="341.8"/>
    <line class="cls-2" x1="469.46" y1="373.98" x2="469.46" y2="372.97"/>
    <line class="cls-2" x1="249.32" y1="242.28" x2="141.43" y2="307.22"/>
    <line class="cls-2" x1="141.43" y1="307.22" x2="236.85" y2="406.17"/>
    <line class="cls-2" x1="236.85" y1="406.17" x2="344.74" y2="341.22"/>
    <line class="cls-2" x1="266.15" y1="259.73" x2="249.32" y2="242.28"/>
    <line class="cls-2" x1="141.43" y1="308.23" x2="141.43" y2="307.22"/>
    <line class="cls-2" x1="236.85" y1="407.17" x2="236.85" y2="406.17"/>
    <line class="cls-2" x1="236.85" y1="408" x2="236.85" y2="407.17"/>
    <line class="cls-2" x1="141.43" y1="309.06" x2="141.43" y2="308.23"/>
    <line class="cls-2" x1="236.85" y1="408.4" x2="236.85" y2="408"/>
    <line class="cls-2" x1="141.43" y1="309.46" x2="141.43" y2="309.06"/>
    <line class="cls-2" x1="236.85" y1="414.92" x2="236.85" y2="408.4"/>
    <line class="cls-2" x1="141.43" y1="315.98" x2="141.43" y2="309.46"/>
    <line class="cls-2" x1="141.43" y1="316.92" x2="141.43" y2="315.98"/>
    <line class="cls-2" x1="236.85" y1="415.86" x2="236.85" y2="414.92"/>
    <line class="cls-2" x1="344.74" y1="414.33" x2="344.74" y2="429.97"/>
    <line class="cls-2" x1="356.47" y1="513.62" x2="361.57" y2="518.9"/>
    <line class="cls-2" x1="344.74" y1="501.45" x2="344.74" y2="429.97"/>
    <line class="cls-2" x1="351.74" y1="500.69" x2="351.74" y2="437.83"/>
    <line class="cls-2" x1="345" y1="501.72" x2="345" y2="430.84"/>
    <line class="cls-2" x1="353.94" y1="440.11" x2="353.94" y2="499.48"/>
    <line class="cls-2" x1="352.26" y1="499.74" x2="353.94" y2="499.48"/>
    <line class="cls-2" x1="352.26" y1="499.74" x2="352.26" y2="438.36"/>
    <line class="cls-2" x1="356.73" y1="513.88" x2="356.73" y2="442.41"/>
    <line class="cls-2" x1="356.73" y1="442.41" x2="344.74" y2="429.97"/>
    <line class="cls-2" x1="356.47" y1="442.74" x2="356.47" y2="513.62"/>
    <line class="cls-2" x1="345" y1="430.84" x2="356.47" y2="442.74"/>
    <line class="cls-2" x1="354.27" y1="499.07" x2="354.27" y2="440.44"/>
    <line class="cls-2" x1="356.47" y1="501.36" x2="354.27" y2="499.07"/>
    <line class="cls-2" x1="356.47" y1="502.11" x2="353.94" y2="499.48"/>
    <line class="cls-2" x1="356.47" y1="504.11" x2="352.26" y2="499.74"/>
    <line class="cls-2" x1="352.42" y1="411.39" x2="345" y2="412.52"/>
    <line class="cls-2" x1="344.74" y1="412.25" x2="344.74" y2="412.85"/>
    <line class="cls-2" x1="352.42" y1="411.39" x2="352.42" y2="364.8"/>
    <line class="cls-2" x1="353.06" y1="365.47" x2="353.06" y2="411.21"/>
    <line class="cls-2" x1="356.73" y1="368.68" x2="356.73" y2="442.41"/>
    <line class="cls-2" x1="344.74" y1="356.24" x2="356.73" y2="368.68"/>
    <line class="cls-2" x1="266.15" y1="259.73" x2="344.74" y2="341.22"/>
    <line class="cls-2" x1="266.15" y1="251.55" x2="266.15" y2="259.73"/>
    <line class="cls-2" x1="253.68" y1="538.32" x2="253.68" y2="535.88"/>
    <line class="cls-2" x1="253.68" y1="544.49" x2="253.68" y2="544.13"/>
    <line class="cls-2" x1="253.68" y1="545.23" x2="361.57" y2="528.85"/>
    <line class="cls-2" x1="213.64" y1="503.72" x2="253.68" y2="545.23"/>
    <line class="cls-2" x1="253.68" y1="545.23" x2="253.68" y2="544.49"/>
    <line class="cls-2" x1="253.68" y1="535.28" x2="469.46" y2="502.51"/>
    <line class="cls-2" x1="253.68" y1="535.88" x2="253.68" y2="535.28"/>
    <line class="cls-2" x1="344.74" y1="501.45" x2="236.85" y2="517.84"/>
    <line class="cls-2" x1="213.64" y1="493.77" x2="253.68" y2="535.28"/>
    <line class="cls-2" x1="253.68" y1="545.23" x2="253.68" y2="535.28"/>
    <line class="cls-2" x1="108.32" y1="384.71" x2="108.32" y2="460.71"/>
    <line class="cls-2" x1="149.58" y1="503.5" x2="77.3" y2="428.56"/>
    <line class="cls-2" x1="149.58" y1="503.5" x2="149.58" y2="417.52"/>
    <line class="cls-2" x1="149.58" y1="503.5" x2="213.64" y2="493.77"/>
    <line class="cls-2" x1="213.64" y1="413.61" x2="213.64" y2="414.45"/>
    <line class="cls-2" x1="213.64" y1="409.14" x2="213.64" y2="413.61"/>
    <line class="cls-2" x1="213.64" y1="414.45" x2="213.64" y2="493.77"/>
    <line class="cls-2" x1="213.64" y1="406.66" x2="213.64" y2="409.14"/>
    <line class="cls-2" x1="77.3" y1="428.56" x2="77.3" y2="349.01"/>
    <line class="cls-2" x1="105.67" y1="457.97" x2="105.67" y2="381.97"/>
    <line class="cls-2" x1="106.96" y1="459.31" x2="108.32" y2="459.1"/>
    <line class="cls-2" x1="106.96" y1="459.31" x2="106.96" y2="383.31"/>
    <line class="cls-2" x1="103.09" y1="455.3" x2="103.09" y2="379.3"/>
    <line class="cls-2" x1="104.38" y1="456.63" x2="105.67" y2="456.44"/>
    <line class="cls-2" x1="104.38" y1="456.63" x2="104.38" y2="380.64"/>
    <line class="cls-2" x1="100.51" y1="452.62" x2="100.51" y2="376.63"/>
    <line class="cls-2" x1="101.8" y1="453.96" x2="103.09" y2="453.76"/>
    <line class="cls-2" x1="101.8" y1="453.96" x2="101.8" y2="377.96"/>
    <line class="cls-2" x1="95.36" y1="447.27" x2="95.36" y2="371.28"/>
    <line class="cls-2" x1="96.65" y1="448.61" x2="97.94" y2="448.42"/>
    <line class="cls-2" x1="96.65" y1="448.61" x2="96.65" y2="372.61"/>
    <line class="cls-2" x1="92.78" y1="444.6" x2="92.78" y2="368.6"/>
    <line class="cls-2" x1="94.07" y1="445.94" x2="95.36" y2="445.74"/>
    <line class="cls-2" x1="94.07" y1="445.94" x2="94.07" y2="369.94"/>
    <line class="cls-2" x1="90.2" y1="441.93" x2="90.2" y2="365.93"/>
    <line class="cls-2" x1="91.49" y1="443.26" x2="92.78" y2="443.07"/>
    <line class="cls-2" x1="91.49" y1="443.26" x2="91.49" y2="367.27"/>
    <line class="cls-2" x1="87.62" y1="439.25" x2="87.62" y2="363.25"/>
    <line class="cls-2" x1="88.91" y1="440.59" x2="90.2" y2="440.39"/>
    <line class="cls-2" x1="88.91" y1="440.59" x2="88.91" y2="364.59"/>
    <line class="cls-2" x1="85.04" y1="436.58" x2="85.04" y2="360.58"/>
    <line class="cls-2" x1="86.33" y1="437.92" x2="87.62" y2="437.72"/>
    <line class="cls-2" x1="86.33" y1="437.92" x2="86.33" y2="361.92"/>
    <line class="cls-2" x1="82.46" y1="433.91" x2="82.46" y2="357.91"/>
    <line class="cls-2" x1="83.75" y1="435.24" x2="85.04" y2="435.04"/>
    <line class="cls-2" x1="83.75" y1="435.24" x2="83.75" y2="359.24"/>
    <line class="cls-2" x1="81.17" y1="432.57" x2="82.46" y2="432.37"/>
    <line class="cls-2" x1="81.17" y1="432.57" x2="81.17" y2="356.57"/>
    <line class="cls-2" x1="97.94" y1="449.95" x2="97.94" y2="373.95"/>
    <line class="cls-2" x1="99.22" y1="451.29" x2="100.51" y2="451.09"/>
    <line class="cls-2" x1="99.22" y1="451.29" x2="99.22" y2="375.29"/>
    <line class="cls-2" x1="213.64" y1="413.61" x2="213.64" y2="409.14"/>
    <line class="cls-2" x1="213.64" y1="409.14" x2="213.64" y2="407.8"/>
    <line class="cls-2" x1="77.37" y1="349.08" x2="77.37" y2="344.64"/>
    <line class="cls-2" x1="77.37" y1="344.64" x2="77.37" y2="344.29"/>
    <line class="cls-2" x1="77.37" y1="344.29" x2="77.37" y2="343.54"/>
    <line class="cls-2" x1="141.43" y1="330.93" x2="77.37" y2="342.65"/>
    <line class="cls-2" x1="77.37" y1="342.65" x2="149.58" y2="417.52"/>
    <line class="cls-2" x1="149.58" y1="417.52" x2="213.64" y2="405.8"/>
    <line class="cls-2" x1="213.64" y1="405.8" x2="141.43" y2="330.93"/>
    <line class="cls-2" x1="213.64" y1="406.66" x2="213.64" y2="405.8"/>
    <line class="cls-2" x1="77.37" y1="343.54" x2="77.37" y2="342.65"/>
    <line class="cls-2" x1="149.58" y1="513.45" x2="149.58" y2="503.5"/>
    <line class="cls-2" x1="213.64" y1="503.72" x2="213.64" y2="493.77"/>
    <line class="cls-2" x1="77.3" y1="438.5" x2="77.3" y2="428.56"/>
    <line class="cls-2" x1="149.58" y1="513.45" x2="77.3" y2="438.5"/>
    <line class="cls-2" x1="149.58" y1="513.45" x2="213.64" y2="503.72"/>
    <line class="cls-2" x1="453.39" y1="412.69" x2="455.53" y2="414.9"/>
    <line class="cls-2" x1="455.53" y1="433.75" x2="455.53" y2="414.9"/>
    <line class="cls-2" x1="453.39" y1="388.24" x2="453.39" y2="412.69"/>
    <line class="cls-2" x1="455.53" y1="414.9" x2="375.14" y2="427.12"/>
    <line class="cls-2" x1="455.53" y1="433.75" x2="374.93" y2="446"/>
    <line class="cls-2" x1="249.49" y1="413.29" x2="332.1" y2="363.02"/>
    <line class="cls-2" x1="249.49" y1="438.78" x2="249.49" y2="413.29"/>
    <line class="cls-2" x1="330.56" y1="434.51" x2="330.56" y2="415.66"/>
    <line class="cls-2" x1="330.56" y1="415.66" x2="250.16" y2="427.87"/>
    <line class="cls-2" x1="330.56" y1="434.51" x2="250.33" y2="446.7"/>
    <line class="cls-2" x1="328.68" y1="434.8" x2="328.68" y2="500.23"/>
    <line class="cls-2" x1="328.68" y1="500.53" x2="250.33" y2="512.42"/>
    <line class="cls-2" x1="331.25" y1="503.2" x2="328.68" y2="500.53"/>
    <line class="cls-2" x1="344.74" y1="413.14" x2="356.73" y2="425.58"/>
    <line class="cls-2" x1="356.47" y1="369.01" x2="356.47" y2="424.4"/>
    <line class="cls-2" x1="345" y1="357.11" x2="356.47" y2="369.01"/>
    <line class="cls-2" x1="344.74" y1="413.14" x2="344.74" y2="356.24"/>
    <line class="cls-2" x1="345" y1="412.52" x2="345" y2="357.11"/>
    <line class="cls-2" x1="345" y1="412.52" x2="356.47" y2="424.4"/>
    <line class="cls-2" x1="344.74" y1="356.24" x2="344.74" y2="341.22"/>
    <line class="cls-2" x1="352.42" y1="411.39" x2="353.06" y2="412.06"/>
    <line class="cls-2" x1="353.06" y1="412.06" x2="356.73" y2="415.73"/>
    <line class="cls-2" x1="353.06" y1="411.21" x2="356.73" y2="414.88"/>
    <line class="cls-2" x1="351.74" y1="500.69" x2="356.47" y2="505.6"/>
    <line class="cls-2" x1="351.74" y1="500.69" x2="345" y2="501.72"/>
    <line class="cls-2" x1="345" y1="501.72" x2="344.74" y2="501.45"/>
    <line class="cls-2" x1="374.21" y1="445.2" x2="374.21" y2="363.8"/>
    <line class="cls-2" x1="456.82" y1="388.43" x2="456.82" y2="504.13"/>
    <line class="cls-2" x1="375.06" y1="515.96" x2="375.06" y2="364.88"/>
    <line class="cls-2" x1="455.97" y1="389.01" x2="455.97" y2="503.67"/>
    <line class="cls-2" x1="374.21" y1="363.8" x2="456.82" y2="388.43"/>
    <line class="cls-2" x1="375.06" y1="364.88" x2="455.97" y2="389.01"/>
    <line class="cls-2" x1="332.1" y1="363.02" x2="332.1" y2="503.07"/>
    <line class="cls-2" x1="331.25" y1="364.45" x2="331.25" y2="503.2"/>
    <line class="cls-2" x1="81.17" y1="356.57" x2="82.46" y2="357.91"/>
    <line class="cls-2" x1="83.75" y1="359.24" x2="85.04" y2="360.58"/>
    <line class="cls-2" x1="86.33" y1="361.92" x2="87.62" y2="363.25"/>
    <line class="cls-2" x1="88.91" y1="364.59" x2="90.2" y2="365.93"/>
    <line class="cls-2" x1="91.49" y1="367.27" x2="92.78" y2="368.6"/>
    <line class="cls-2" x1="94.07" y1="369.94" x2="95.36" y2="371.28"/>
    <line class="cls-2" x1="96.65" y1="372.61" x2="97.94" y2="373.95"/>
    <line class="cls-2" x1="99.22" y1="375.29" x2="100.51" y2="376.63"/>
    <line class="cls-2" x1="101.8" y1="377.96" x2="103.09" y2="379.3"/>
    <line class="cls-2" x1="104.38" y1="380.64" x2="105.67" y2="381.97"/>
    <line class="cls-2" x1="106.96" y1="383.31" x2="108.32" y2="384.71"/>
  </g>
  <line class="cls-1" x1="76.85" y1="342.74" x2="141.78" y2="330.86"/>
  <line class="cls-1" x1="141.43" y1="306.97" x2="141.43" y2="331.35"/>
  <line class="cls-1" x1="266.15" y1="241.5" x2="266.15" y2="259.63"/>
  <line class="cls-1" x1="249.09" y1="242.04" x2="266.4" y2="259.99"/>
  <line class="cls-1" x1="249.67" y1="242.07" x2="141.18" y2="307.38"/>
  <line class="cls-1" x1="374.15" y1="274.06" x2="265.82" y2="241.76"/>
  <line class="cls-1" x1="469.58" y1="373.1" x2="373.93" y2="273.92"/>
  <line class="cls-1" x1="469.46" y1="512.91" x2="469.46" y2="372.73"/>
  <line class="cls-1" x1="253.41" y1="545.27" x2="469.78" y2="512.41"/>
  <line class="cls-1" x1="213.35" y1="503.48" x2="253.84" y2="545.4"/>
  <line class="cls-1" x1="149.33" y1="513.48" x2="213.7" y2="503.71"/>
  <line class="cls-1" x1="77.12" y1="438.31" x2="149.77" y2="513.64"/>
  <line class="cls-1" x1="77.3" y1="438.63" x2="77.3" y2="342.47"/>
</svg>