<?xml version="1.0" encoding="UTF-8"?>
<svg id="Warstwa_1" xmlns="http://www.w3.org/2000/svg" xmlns:xlink="http://www.w3.org/1999/xlink" viewBox="0 0 541 788">
  <defs>
    <style>
      .cls-1 {
        stroke-linecap: round;
        stroke-linejoin: round;
        stroke-width: .4px;
      }

      .cls-1, .cls-2, .cls-3 {
        fill: none;
      }

      .cls-1, .cls-3 {
        stroke: #000;
      }

      .cls-2 {
        clip-rule: evenodd;
      }

      .cls-3 {
        stroke-miterlimit: 10;
        stroke-width: 3.5px;
      }

      .cls-4 {
        clip-path: url(#clippath);
      }
    </style>
    <clipPath id="clippath">
      <polyline class="cls-2" points="0 0 541 0 541 788 0 788 0 0"/>
    </clipPath>
  </defs>
  <g class="cls-4">
    <line class="cls-1" x1="264.42" y1="511.7" x2="228.32" y2="474.26"/>
    <line class="cls-1" x1="277.32" y1="525.07" x2="277.32" y2="439.09"/>
    <line class="cls-1" x1="74.01" y1="442.51" x2="74.01" y2="355.4"/>
    <line class="cls-1" x1="493.1" y1="492.3" x2="493.1" y2="405.18"/>
    <line class="cls-1" x1="277.32" y1="438.65" x2="277.32" y2="439.09"/>
    <line class="cls-1" x1="493.1" y1="405.18" x2="493.1" y2="330.73"/>
    <line class="cls-1" x1="427.35" y1="412.52" x2="398.7" y2="416.87"/>
    <line class="cls-1" x1="421.61" y1="375.91" x2="398.7" y2="379.39"/>
    <line class="cls-1" x1="421.61" y1="346.27" x2="421.61" y2="375.91"/>
    <line class="cls-1" x1="422.77" y1="407.84" x2="398.7" y2="411.5"/>
    <line class="cls-1" x1="422.77" y1="381.07" x2="422.77" y2="407.84"/>
    <line class="cls-1" x1="398.7" y1="379.62" x2="421.8" y2="376.11"/>
    <line class="cls-1" x1="421.8" y1="376.11" x2="421.8" y2="346.24"/>
    <line class="cls-1" x1="421.8" y1="376.11" x2="421.61" y2="375.91"/>
    <line class="cls-1" x1="398.7" y1="380.37" x2="422.64" y2="376.73"/>
    <line class="cls-1" x1="398.7" y1="381.75" x2="423.8" y2="377.93"/>
    <line class="cls-1" x1="423.8" y1="380.91" x2="398.7" y2="384.72"/>
    <line class="cls-1" x1="422.64" y1="346.1" x2="422.64" y2="376.73"/>
    <line class="cls-1" x1="423.8" y1="377.93" x2="422.64" y2="376.73"/>
    <line class="cls-1" x1="423.8" y1="377.93" x2="423.8" y2="345.91"/>
    <line class="cls-1" x1="423.8" y1="408.92" x2="423.8" y2="380.91"/>
    <line class="cls-1" x1="423.8" y1="408.92" x2="422.77" y2="407.84"/>
    <line class="cls-1" x1="398.7" y1="412.73" x2="423.8" y2="408.92"/>
    <line class="cls-1" x1="398.7" y1="413.32" x2="424.65" y2="409.38"/>
    <line class="cls-1" x1="428.2" y1="412.39" x2="428.2" y2="412.81"/>
    <line class="cls-1" x1="428.2" y1="412.95" x2="428.2" y2="412.81"/>
    <line class="cls-1" x1="428.2" y1="412.95" x2="398.08" y2="417.53"/>
    <line class="cls-1" x1="424.65" y1="409.38" x2="424.65" y2="345.78"/>
    <line class="cls-1" x1="427.35" y1="412.52" x2="424.65" y2="409.38"/>
    <line class="cls-1" x1="428.2" y1="344.72" x2="428.2" y2="412.39"/>
    <line class="cls-1" x1="493.1" y1="330.73" x2="493.1" y2="329.89"/>
    <line class="cls-1" x1="74.01" y1="280.95" x2="74.01" y2="280.11"/>
    <line class="cls-1" x1="156.53" y1="366.52" x2="156.53" y2="365.68"/>
    <line class="cls-1" x1="372.31" y1="333.74" x2="372.31" y2="332.91"/>
    <line class="cls-1" x1="372.31" y1="332.91" x2="372.31" y2="328.68"/>
    <line class="cls-1" x1="493.1" y1="329.89" x2="493.1" y2="325.66"/>
    <line class="cls-1" x1="74.01" y1="280.11" x2="74.01" y2="275.88"/>
    <line class="cls-1" x1="156.53" y1="365.68" x2="156.53" y2="361.45"/>
    <line class="cls-1" x1="74.01" y1="445.55" x2="74.01" y2="443.11"/>
    <line class="cls-1" x1="277.32" y1="528.11" x2="277.32" y2="525.67"/>
    <line class="cls-1" x1="277.32" y1="534.27" x2="277.32" y2="533.91"/>
    <line class="cls-1" x1="74.01" y1="451.72" x2="74.01" y2="451.36"/>
    <line class="cls-1" x1="264.42" y1="521.65" x2="277.32" y2="535.02"/>
    <line class="cls-1" x1="277.32" y1="535.02" x2="440.57" y2="510.22"/>
    <line class="cls-1" x1="74.01" y1="452.46" x2="116.58" y2="496.61"/>
    <line class="cls-1" x1="277.32" y1="535.02" x2="277.32" y2="534.27"/>
    <line class="cls-1" x1="74.01" y1="452.46" x2="74.01" y2="451.72"/>
    <line class="cls-1" x1="74.01" y1="443.11" x2="74.01" y2="442.51"/>
    <line class="cls-1" x1="277.32" y1="525.67" x2="277.32" y2="525.07"/>
    <line class="cls-1" x1="277.32" y1="533.91" x2="277.32" y2="528.11"/>
    <line class="cls-1" x1="74.01" y1="451.36" x2="74.01" y2="445.55"/>
    <line class="cls-1" x1="162.93" y1="527.11" x2="264.42" y2="511.7"/>
    <line class="cls-1" x1="120.42" y1="490.65" x2="154.08" y2="525.54"/>
    <line class="cls-1" x1="156.53" y1="531.12" x2="156.53" y2="528.68"/>
    <line class="cls-1" x1="264.42" y1="514.74" x2="264.42" y2="512.29"/>
    <line class="cls-1" x1="264.42" y1="520.9" x2="264.42" y2="520.54"/>
    <line class="cls-1" x1="156.53" y1="537.29" x2="156.53" y2="536.93"/>
    <line class="cls-1" x1="156.53" y1="538.03" x2="264.42" y2="521.65"/>
    <line class="cls-1" x1="116.58" y1="496.61" x2="156.53" y2="538.03"/>
    <line class="cls-1" x1="156.53" y1="538.03" x2="156.53" y2="537.29"/>
    <line class="cls-1" x1="264.42" y1="521.65" x2="264.42" y2="520.9"/>
    <line class="cls-1" x1="264.42" y1="512.29" x2="264.42" y2="511.7"/>
    <line class="cls-1" x1="156.53" y1="528.68" x2="156.53" y2="528.08"/>
    <line class="cls-1" x1="264.42" y1="520.54" x2="264.42" y2="514.74"/>
    <line class="cls-1" x1="156.53" y1="536.93" x2="156.53" y2="531.12"/>
    <line class="cls-1" x1="74.01" y1="355.4" x2="74.01" y2="280.95"/>
    <line class="cls-1" x1="111.14" y1="323.32" x2="111.14" y2="391.27"/>
    <line class="cls-1" x1="78.84" y1="374.86" x2="78.84" y2="289.83"/>
    <line class="cls-1" x1="79.16" y1="290.91" x2="79.16" y2="358.11"/>
    <line class="cls-1" x1="86.58" y1="298.6" x2="86.58" y2="356.64"/>
    <line class="cls-1" x1="86.58" y1="356.64" x2="79.16" y2="358.11"/>
    <line class="cls-1" x1="87.75" y1="299.81" x2="87.75" y2="329.45"/>
    <line class="cls-1" x1="86.9" y1="298.93" x2="86.9" y2="329.58"/>
    <line class="cls-1" x1="86.9" y1="332.56" x2="86.9" y2="356.38"/>
    <line class="cls-1" x1="88.07" y1="300.14" x2="88.07" y2="329.04"/>
    <line class="cls-1" x1="101.76" y1="342.64" x2="88.57" y2="328.96"/>
    <line class="cls-1" x1="88.57" y1="328.96" x2="88.57" y2="300.67"/>
    <line class="cls-1" x1="103.9" y1="316.56" x2="103.9" y2="346.2"/>
    <line class="cls-1" x1="103.05" y1="315.68" x2="103.05" y2="346.32"/>
    <line class="cls-1" x1="101.76" y1="344.99" x2="101.76" y2="314.35"/>
    <line class="cls-1" x1="88.07" y1="329.04" x2="101.76" y2="343.24"/>
    <line class="cls-1" x1="88.07" y1="329.04" x2="88.57" y2="328.96"/>
    <line class="cls-1" x1="104.22" y1="316.89" x2="104.22" y2="345.79"/>
    <line class="cls-1" x1="78.84" y1="358.18" x2="111.14" y2="391.67"/>
    <line class="cls-1" x1="78.84" y1="357.78" x2="110.82" y2="390.94"/>
    <line class="cls-1" x1="86.58" y1="356.64" x2="110.82" y2="381.78"/>
    <line class="cls-1" x1="110.82" y1="323.73" x2="110.82" y2="390.94"/>
    <line class="cls-1" x1="110.82" y1="390.94" x2="111.14" y2="391.27"/>
    <line class="cls-1" x1="111.14" y1="323.32" x2="111.14" y2="408.35"/>
    <line class="cls-1" x1="79.16" y1="290.91" x2="110.82" y2="323.73"/>
    <line class="cls-1" x1="78.84" y1="289.83" x2="111.14" y2="323.32"/>
    <line class="cls-1" x1="110.82" y1="380.58" x2="87.41" y2="356.3"/>
    <line class="cls-1" x1="87.41" y1="356.3" x2="87.41" y2="333.08"/>
    <line class="cls-1" x1="103.05" y1="346.32" x2="103.9" y2="346.2"/>
    <line class="cls-1" x1="103.9" y1="346.2" x2="110.82" y2="353.38"/>
    <line class="cls-1" x1="103.05" y1="346.32" x2="110.82" y2="354.38"/>
    <line class="cls-1" x1="87.75" y1="329.45" x2="101.76" y2="343.98"/>
    <line class="cls-1" x1="86.9" y1="329.58" x2="87.75" y2="329.45"/>
    <line class="cls-1" x1="86.9" y1="329.58" x2="101.76" y2="344.99"/>
    <line class="cls-1" x1="110.82" y1="357.36" x2="86.9" y2="332.56"/>
    <line class="cls-1" x1="110.82" y1="352.03" x2="104.72" y2="345.71"/>
    <line class="cls-1" x1="104.72" y1="345.71" x2="104.72" y2="317.42"/>
    <line class="cls-1" x1="86.9" y1="356.38" x2="110.82" y2="381.18"/>
    <line class="cls-1" x1="86.9" y1="356.38" x2="87.41" y2="356.3"/>
    <line class="cls-1" x1="104.22" y1="345.79" x2="110.82" y2="352.63"/>
    <line class="cls-1" x1="104.22" y1="345.79" x2="104.72" y2="345.71"/>
    <line class="cls-1" x1="151.69" y1="365.38" x2="151.69" y2="433.32"/>
    <line class="cls-1" x1="119.39" y1="399.83" x2="119.39" y2="331.88"/>
    <line class="cls-1" x1="156.53" y1="440.97" x2="156.53" y2="366.52"/>
    <line class="cls-1" x1="372.31" y1="337.62" x2="372.31" y2="333.74"/>
    <line class="cls-1" x1="119.39" y1="331.88" x2="119.39" y2="399.83"/>
    <line class="cls-1" x1="119.72" y1="332.96" x2="119.72" y2="400.16"/>
    <line class="cls-1" x1="127.13" y1="340.65" x2="127.13" y2="398.69"/>
    <line class="cls-1" x1="127.13" y1="398.69" x2="119.72" y2="400.16"/>
    <line class="cls-1" x1="128.3" y1="341.86" x2="128.3" y2="371.5"/>
    <line class="cls-1" x1="127.46" y1="340.99" x2="127.46" y2="371.63"/>
    <line class="cls-1" x1="127.46" y1="374.61" x2="127.46" y2="398.43"/>
    <line class="cls-1" x1="128.62" y1="342.19" x2="128.62" y2="371.09"/>
    <line class="cls-1" x1="142.32" y1="384.69" x2="129.13" y2="371.01"/>
    <line class="cls-1" x1="129.13" y1="371.01" x2="129.13" y2="342.72"/>
    <line class="cls-1" x1="144.45" y1="358.61" x2="144.45" y2="388.25"/>
    <line class="cls-1" x1="143.61" y1="357.73" x2="143.61" y2="388.38"/>
    <line class="cls-1" x1="142.32" y1="387.04" x2="142.32" y2="356.39"/>
    <line class="cls-1" x1="128.62" y1="371.09" x2="142.32" y2="385.29"/>
    <line class="cls-1" x1="128.62" y1="371.09" x2="129.13" y2="371.01"/>
    <line class="cls-1" x1="144.77" y1="358.94" x2="144.77" y2="387.84"/>
    <line class="cls-1" x1="119.39" y1="400.23" x2="151.69" y2="433.72"/>
    <line class="cls-1" x1="119.39" y1="399.83" x2="151.37" y2="432.99"/>
    <line class="cls-1" x1="127.13" y1="398.69" x2="151.37" y2="423.83"/>
    <line class="cls-1" x1="151.37" y1="365.78" x2="151.37" y2="432.99"/>
    <line class="cls-1" x1="151.37" y1="432.99" x2="151.69" y2="433.32"/>
    <line class="cls-1" x1="151.69" y1="365.38" x2="151.69" y2="433.32"/>
    <line class="cls-1" x1="119.72" y1="332.96" x2="151.37" y2="365.78"/>
    <line class="cls-1" x1="119.39" y1="331.88" x2="151.69" y2="365.38"/>
    <line class="cls-1" x1="151.37" y1="422.63" x2="127.96" y2="398.36"/>
    <line class="cls-1" x1="127.96" y1="398.36" x2="127.96" y2="375.13"/>
    <line class="cls-1" x1="143.61" y1="388.38" x2="144.45" y2="388.25"/>
    <line class="cls-1" x1="144.45" y1="388.25" x2="151.37" y2="395.43"/>
    <line class="cls-1" x1="143.61" y1="388.38" x2="151.37" y2="396.43"/>
    <line class="cls-1" x1="128.3" y1="371.5" x2="142.32" y2="386.04"/>
    <line class="cls-1" x1="127.46" y1="371.63" x2="128.3" y2="371.5"/>
    <line class="cls-1" x1="127.46" y1="371.63" x2="142.32" y2="387.04"/>
    <line class="cls-1" x1="151.37" y1="399.4" x2="127.46" y2="374.61"/>
    <line class="cls-1" x1="151.37" y1="394.08" x2="145.28" y2="387.76"/>
    <line class="cls-1" x1="145.28" y1="387.76" x2="145.28" y2="359.46"/>
    <line class="cls-1" x1="127.46" y1="398.43" x2="151.37" y2="423.23"/>
    <line class="cls-1" x1="127.46" y1="398.43" x2="127.96" y2="398.36"/>
    <line class="cls-1" x1="144.77" y1="387.84" x2="151.37" y2="394.68"/>
    <line class="cls-1" x1="144.77" y1="387.84" x2="145.28" y2="387.76"/>
    <line class="cls-1" x1="366.43" y1="394.83" x2="366.43" y2="339.25"/>
    <line class="cls-1" x1="367.79" y1="339.05" x2="367.79" y2="394.62"/>
    <line class="cls-1" x1="368.63" y1="338.92" x2="368.63" y2="394.5"/>
    <line class="cls-1" x1="371.47" y1="338.49" x2="371.47" y2="394.06"/>
    <line class="cls-1" x1="338.6" y1="342.73" x2="338.6" y2="399.06"/>
    <line class="cls-1" x1="372.31" y1="393.94" x2="372.31" y2="337.62"/>
    <line class="cls-1" x1="372.31" y1="337.62" x2="338.6" y2="342.73"/>
    <line class="cls-1" x1="339.44" y1="343.35" x2="339.44" y2="398.93"/>
    <line class="cls-1" x1="371.47" y1="338.49" x2="339.44" y2="343.35"/>
    <line class="cls-1" x1="156.53" y1="528.08" x2="156.53" y2="448.27"/>
    <line class="cls-1" x1="162.93" y1="527.11" x2="162.93" y2="447.3"/>
    <line class="cls-1" x1="154.08" y1="525.54" x2="154.08" y2="445.73"/>
    <line class="cls-1" x1="277.77" y1="409.42" x2="278.64" y2="409.29"/>
    <line class="cls-1" x1="277.5" y1="408.34" x2="278.32" y2="408.21"/>
    <line class="cls-1" x1="277.36" y1="408.35" x2="277.5" y2="408.34"/>
    <line class="cls-1" x1="277.25" y1="408.35" x2="277.36" y2="408.35"/>
    <line class="cls-1" x1="277.13" y1="408.34" x2="277.25" y2="408.35"/>
    <line class="cls-1" x1="277.03" y1="408.31" x2="277.13" y2="408.34"/>
    <line class="cls-1" x1="277" y1="408.3" x2="277.03" y2="408.31"/>
    <line class="cls-1" x1="276.88" y1="408.23" x2="276.94" y2="408.27"/>
    <line class="cls-1" x1="277.46" y1="409.45" x2="277.77" y2="409.42"/>
    <line class="cls-1" x1="277.33" y1="409.45" x2="277.46" y2="409.45"/>
    <line class="cls-1" x1="263.16" y1="394.9" x2="263.16" y2="395.74"/>
    <line class="cls-1" x1="263.16" y1="395.74" x2="276.29" y2="409.36"/>
    <line class="cls-1" x1="264.08" y1="394.95" x2="276.88" y2="408.23"/>
    <line class="cls-1" x1="278.32" y1="408.21" x2="384.97" y2="392.02"/>
    <line class="cls-1" x1="385.69" y1="392.25" x2="385.69" y2="393.03"/>
    <line class="cls-1" x1="278.64" y1="409.29" x2="385.69" y2="393.03"/>
    <line class="cls-1" x1="493.1" y1="495.34" x2="493.1" y2="492.89"/>
    <line class="cls-1" x1="493.1" y1="501.5" x2="493.1" y2="501.14"/>
    <line class="cls-1" x1="440.57" y1="510.22" x2="493.1" y2="502.24"/>
    <line class="cls-1" x1="493.1" y1="502.24" x2="493.1" y2="501.5"/>
    <line class="cls-1" x1="493.1" y1="492.89" x2="493.1" y2="492.3"/>
    <line class="cls-1" x1="493.1" y1="501.14" x2="493.1" y2="495.34"/>
    <line class="cls-1" x1="228.32" y1="474.26" x2="228.32" y2="472.18"/>
    <line class="cls-1" x1="120.42" y1="410.83" x2="120.42" y2="490.65"/>
    <line class="cls-1" x1="120.42" y1="490.65" x2="154.08" y2="485.54"/>
    <line class="cls-1" x1="162.93" y1="484.19" x2="228.32" y2="474.26"/>
    <line class="cls-1" x1="398.11" y1="504.64" x2="398.53" y2="504.58"/>
    <line class="cls-1" x1="398.53" y1="504.58" x2="398.53" y2="442.63"/>
    <line class="cls-1" x1="422.99" y1="496.68" x2="398.53" y2="500.39"/>
    <line class="cls-1" x1="422.99" y1="438.91" x2="422.99" y2="496.68"/>
    <line class="cls-1" x1="422.99" y1="496.68" x2="423.96" y2="497.68"/>
    <line class="cls-1" x1="423.96" y1="438.76" x2="423.96" y2="497.68"/>
    <line class="cls-1" x1="423.96" y1="497.68" x2="424.97" y2="497.52"/>
    <line class="cls-1" x1="424.97" y1="438.32" x2="424.97" y2="497.52"/>
    <line class="cls-1" x1="424.97" y1="497.52" x2="429.63" y2="502.36"/>
    <line class="cls-1" x1="398.53" y1="442.63" x2="423.96" y2="438.76"/>
    <line class="cls-1" x1="263.41" y1="395.01" x2="264.08" y2="394.9"/>
    <line class="cls-1" x1="264.08" y1="394.9" x2="263.91" y2="394.73"/>
    <line class="cls-1" x1="263.24" y1="394.83" x2="263.41" y2="395.01"/>
    <line class="cls-1" x1="263.41" y1="424.36" x2="263.41" y2="396"/>
    <line class="cls-1" x1="263.41" y1="395.15" x2="263.41" y2="395.01"/>
    <line class="cls-1" x1="264.08" y1="395.05" x2="264.08" y2="394.9"/>
    <line class="cls-1" x1="276.62" y1="438.79" x2="277.3" y2="438.69"/>
    <line class="cls-1" x1="263.16" y1="424.83" x2="276.62" y2="438.79"/>
    <line class="cls-1" x1="276.62" y1="408.71" x2="277.3" y2="408.61"/>
    <line class="cls-1" x1="277.3" y1="408.61" x2="276.97" y2="408.26"/>
    <line class="cls-1" x1="276.97" y1="408.26" x2="276.29" y2="408.37"/>
    <line class="cls-1" x1="276.29" y1="408.37" x2="276.62" y2="408.71"/>
    <line class="cls-1" x1="276.62" y1="438.79" x2="276.62" y2="408.71"/>
    <line class="cls-1" x1="277.3" y1="438.69" x2="277.3" y2="408.61"/>
    <line class="cls-1" x1="276.29" y1="408.52" x2="276.29" y2="408.37"/>
    <line class="cls-1" x1="276.29" y1="437.82" x2="276.29" y2="409.36"/>
    <line class="cls-1" x1="385.69" y1="422.18" x2="386.09" y2="422.12"/>
    <line class="cls-1" x1="386.09" y1="392.04" x2="385.83" y2="391.77"/>
    <line class="cls-1" x1="385.83" y1="391.77" x2="384.97" y2="391.9"/>
    <line class="cls-1" x1="384.97" y1="391.9" x2="385.23" y2="392.17"/>
    <line class="cls-1" x1="385.23" y1="392.17" x2="386.09" y2="392.04"/>
    <line class="cls-1" x1="386.09" y1="422.12" x2="386.09" y2="392.04"/>
    <line class="cls-1" x1="384.97" y1="392.02" x2="384.97" y2="391.9"/>
    <line class="cls-1" x1="385.23" y1="421.52" x2="385.23" y2="393.1"/>
    <line class="cls-1" x1="385.23" y1="392.32" x2="385.23" y2="392.17"/>
    <line class="cls-1" x1="156.53" y1="448.27" x2="156.53" y2="447.91"/>
    <line class="cls-1" x1="162.93" y1="447.3" x2="264.42" y2="431.88"/>
    <line class="cls-1" x1="264.42" y1="431.88" x2="264.42" y2="431.52"/>
    <line class="cls-1" x1="120.42" y1="410.83" x2="154.08" y2="445.73"/>
    <line class="cls-1" x1="264.42" y1="431.52" x2="264.42" y2="426.25"/>
    <line class="cls-1" x1="156.53" y1="447.91" x2="156.53" y2="442.1"/>
    <line class="cls-1" x1="156.53" y1="442.1" x2="156.53" y2="440.97"/>
    <line class="cls-1" x1="263.16" y1="424.2" x2="263.16" y2="424.83"/>
    <line class="cls-1" x1="263.24" y1="424.18" x2="263.16" y2="424.2"/>
    <line class="cls-1" x1="263.16" y1="424.2" x2="276.29" y2="437.82"/>
    <line class="cls-1" x1="278.64" y1="437.75" x2="385.69" y2="421.49"/>
    <line class="cls-1" x1="385.66" y1="421.46" x2="385.69" y2="421.49"/>
    <line class="cls-1" x1="385.69" y1="421.49" x2="385.69" y2="422.24"/>
    <line class="cls-1" x1="278.64" y1="438.49" x2="385.69" y2="422.24"/>
    <line class="cls-1" x1="263.24" y1="424.18" x2="263.24" y2="395.83"/>
    <line class="cls-1" x1="263.16" y1="394.9" x2="276.29" y2="408.52"/>
    <line class="cls-1" x1="277.3" y1="408.71" x2="385.69" y2="392.25"/>
    <line class="cls-1" x1="385.66" y1="393.04" x2="385.66" y2="421.46"/>
    <line class="cls-1" x1="277.77" y1="437.88" x2="278.64" y2="437.75"/>
    <line class="cls-1" x1="277.77" y1="438.63" x2="278.64" y2="438.49"/>
    <line class="cls-1" x1="277.33" y1="437.91" x2="277.46" y2="437.91"/>
    <line class="cls-1" x1="277.46" y1="437.91" x2="277.77" y2="437.88"/>
    <line class="cls-1" x1="277.46" y1="438.66" x2="277.77" y2="438.63"/>
    <line class="cls-1" x1="277.3" y1="438.65" x2="277.46" y2="438.66"/>
    <line class="cls-1" x1="78.84" y1="445.44" x2="78.84" y2="374.86"/>
    <line class="cls-1" x1="85.91" y1="382.18" x2="85.91" y2="444.75"/>
    <line class="cls-1" x1="79.16" y1="375.19" x2="79.16" y2="445.78"/>
    <line class="cls-1" x1="86.36" y1="382.65" x2="86.36" y2="443.73"/>
    <line class="cls-1" x1="101.41" y1="455.25" x2="89.19" y2="442.58"/>
    <line class="cls-1" x1="89.19" y1="442.58" x2="89.19" y2="385.59"/>
    <line class="cls-1" x1="88.04" y1="441.99" x2="88.04" y2="384.4"/>
    <line class="cls-1" x1="88.69" y1="385.07" x2="88.69" y2="442.66"/>
    <line class="cls-1" x1="88.04" y1="443.48" x2="88.04" y2="441.99"/>
    <line class="cls-1" x1="88.69" y1="442.66" x2="101.41" y2="455.85"/>
    <line class="cls-1" x1="101.41" y1="457.34" x2="88.04" y2="443.48"/>
    <line class="cls-1" x1="88.69" y1="442.66" x2="89.19" y2="442.58"/>
    <line class="cls-1" x1="111.14" y1="478.94" x2="111.14" y2="408.35"/>
    <line class="cls-1" x1="110.82" y1="467.01" x2="102.56" y2="458.45"/>
    <line class="cls-1" x1="102.56" y1="458.45" x2="102.56" y2="399.46"/>
    <line class="cls-1" x1="110.82" y1="478.6" x2="110.82" y2="408.02"/>
    <line class="cls-1" x1="101.41" y1="457.85" x2="101.41" y2="398.26"/>
    <line class="cls-1" x1="102.06" y1="398.93" x2="102.06" y2="458.52"/>
    <line class="cls-1" x1="101.41" y1="459.34" x2="101.41" y2="457.85"/>
    <line class="cls-1" x1="102.06" y1="458.52" x2="110.82" y2="467.61"/>
    <line class="cls-1" x1="110.82" y1="469.09" x2="101.41" y2="459.34"/>
    <line class="cls-1" x1="102.06" y1="458.52" x2="102.56" y2="458.45"/>
    <line class="cls-1" x1="79.16" y1="375.19" x2="110.82" y2="408.02"/>
    <line class="cls-1" x1="111.14" y1="478.94" x2="78.84" y2="445.44"/>
    <line class="cls-1" x1="86.36" y1="443.73" x2="101.41" y2="459.34"/>
    <line class="cls-1" x1="86.36" y1="443.73" x2="88.04" y2="443.48"/>
    <line class="cls-1" x1="237.52" y1="435.97" x2="237.52" y2="469.91"/>
    <line class="cls-1" x1="235.83" y1="470.17" x2="237.52" y2="469.91"/>
    <line class="cls-1" x1="235.83" y1="470.17" x2="235.83" y2="436.22"/>
    <line class="cls-1" x1="241.21" y1="435.41" x2="241.21" y2="485.55"/>
    <line class="cls-1" x1="237.84" y1="469.5" x2="237.84" y2="435.92"/>
    <line class="cls-1" x1="240.95" y1="472.73" x2="237.84" y2="469.5"/>
    <line class="cls-1" x1="237.84" y1="469.5" x2="238.35" y2="469.42"/>
    <line class="cls-1" x1="238.35" y1="469.42" x2="240.95" y2="472.13"/>
    <line class="cls-1" x1="238.35" y1="435.84" x2="238.35" y2="469.42"/>
    <line class="cls-1" x1="237.85" y1="438.6" x2="237.84" y2="438.58"/>
    <line class="cls-1" x1="240.95" y1="473.47" x2="237.52" y2="469.91"/>
    <line class="cls-1" x1="240.95" y1="475.48" x2="235.83" y2="470.17"/>
    <line class="cls-1" x1="235.32" y1="470.82" x2="235.32" y2="436.3"/>
    <line class="cls-1" x1="240.95" y1="476.67" x2="235.32" y2="470.82"/>
    <line class="cls-1" x1="228.32" y1="472.18" x2="241.21" y2="485.55"/>
    <line class="cls-1" x1="228.32" y1="437.37" x2="228.32" y2="472.18"/>
    <line class="cls-1" x1="228.58" y1="471.85" x2="228.58" y2="437.33"/>
    <line class="cls-1" x1="240.95" y1="435.45" x2="240.95" y2="484.68"/>
    <line class="cls-1" x1="240.95" y1="484.68" x2="228.58" y2="471.85"/>
    <line class="cls-1" x1="235.32" y1="470.82" x2="228.58" y2="471.85"/>
    <line class="cls-1" x1="219.19" y1="438.75" x2="219.19" y2="467.2"/>
    <line class="cls-1" x1="219.19" y1="467.2" x2="192.24" y2="471.29"/>
    <line class="cls-1" x1="219.19" y1="467.2" x2="219" y2="467"/>
    <line class="cls-1" x1="192.24" y1="471.06" x2="219" y2="467"/>
    <line class="cls-1" x1="219" y1="467" x2="219" y2="438.78"/>
    <line class="cls-1" x1="219.19" y1="466.85" x2="219.18" y2="466.84"/>
    <line class="cls-1" x1="220.04" y1="438.62" x2="220.04" y2="467.81"/>
    <line class="cls-1" x1="220.68" y1="438.53" x2="220.68" y2="468.48"/>
    <line class="cls-1" x1="220.68" y1="468.48" x2="220.04" y2="467.81"/>
    <line class="cls-1" x1="220.04" y1="467.81" x2="192.24" y2="472.04"/>
    <line class="cls-1" x1="220.68" y1="468.48" x2="192.24" y2="472.8"/>
    <line class="cls-1" x1="222.03" y1="438.32" x2="222.03" y2="469.47"/>
    <line class="cls-1" x1="222.03" y1="469.47" x2="192.24" y2="473.99"/>
    <line class="cls-1" x1="191.57" y1="477.76" x2="225.28" y2="472.64"/>
    <line class="cls-1" x1="225.28" y1="472.64" x2="225.28" y2="437.83"/>
    <line class="cls-1" x1="191.57" y1="442.95" x2="191.57" y2="477.76"/>
    <line class="cls-1" x1="192.24" y1="477.06" x2="192.24" y2="442.85"/>
    <line class="cls-1" x1="224.61" y1="437.93" x2="224.61" y2="472.14"/>
    <line class="cls-1" x1="224.61" y1="472.14" x2="192.24" y2="477.06"/>
    <line class="cls-1" x1="222.03" y1="469.47" x2="224.61" y2="472.14"/>
    <line class="cls-1" x1="328.31" y1="447.04" x2="328.31" y2="483.12"/>
    <line class="cls-1" x1="328.31" y1="483.12" x2="292.15" y2="488.61"/>
    <line class="cls-1" x1="328.31" y1="483.12" x2="328.11" y2="482.91"/>
    <line class="cls-1" x1="292.15" y1="488.38" x2="328.11" y2="482.91"/>
    <line class="cls-1" x1="328.11" y1="482.91" x2="328.11" y2="447.07"/>
    <line class="cls-1" x1="329.15" y1="446.91" x2="329.15" y2="483.73"/>
    <line class="cls-1" x1="329.79" y1="446.81" x2="329.79" y2="484.4"/>
    <line class="cls-1" x1="329.79" y1="484.4" x2="329.15" y2="483.73"/>
    <line class="cls-1" x1="329.15" y1="483.73" x2="292.15" y2="489.35"/>
    <line class="cls-1" x1="329.79" y1="484.4" x2="292.15" y2="490.12"/>
    <line class="cls-1" x1="331.14" y1="446.61" x2="331.14" y2="485.39"/>
    <line class="cls-1" x1="331.14" y1="485.39" x2="292.15" y2="491.31"/>
    <line class="cls-1" x1="291.48" y1="495.07" x2="334.4" y2="488.55"/>
    <line class="cls-1" x1="334.4" y1="488.55" x2="334.4" y2="445.52"/>
    <line class="cls-1" x1="292.15" y1="494.37" x2="292.15" y2="452.53"/>
    <line class="cls-1" x1="292.15" y1="452.53" x2="333.72" y2="446.22"/>
    <line class="cls-1" x1="333.72" y1="446.22" x2="333.72" y2="488.06"/>
    <line class="cls-1" x1="333.72" y1="488.06" x2="292.15" y2="494.37"/>
    <line class="cls-1" x1="331.14" y1="485.39" x2="333.72" y2="488.06"/>
    <line class="cls-1" x1="291.48" y1="495.07" x2="291.48" y2="452.04"/>
    <line class="cls-1" x1="291.48" y1="452.04" x2="334.4" y2="445.52"/>
    <line class="cls-1" x1="385.21" y1="428.87" x2="385.21" y2="444.06"/>
    <line class="cls-1" x1="441.11" y1="420.39" x2="277.33" y2="445.26"/>
    <line class="cls-1" x1="441.1" y1="435.87" x2="441.1" y2="411.27"/>
    <line class="cls-1" x1="429.63" y1="437.62" x2="398.11" y2="442.4"/>
    <line class="cls-1" x1="385.21" y1="444.06" x2="385.21" y2="508.98"/>
    <line class="cls-1" x1="398.11" y1="507.03" x2="398.11" y2="442.4"/>
    <line class="cls-1" x1="428.42" y1="413.19" x2="386.09" y2="419.62"/>
    <line class="cls-1" x1="398.08" y1="417.8" x2="398.08" y2="349.3"/>
    <line class="cls-1" x1="385.43" y1="391.83" x2="385.43" y2="351.22"/>
    <line class="cls-1" x1="428.42" y1="344.69" x2="398.08" y2="349.3"/>
    <line class="cls-1" x1="385.43" y1="351.22" x2="385.43" y2="334.29"/>
    <line class="cls-1" x1="441.07" y1="342.77" x2="441.07" y2="325.84"/>
    <line class="cls-1" x1="78.84" y1="374.86" x2="79.16" y2="375.19"/>
    <line class="cls-1" x1="110.82" y1="408.02" x2="111.14" y2="408.35"/>
    <line class="cls-1" x1="441.1" y1="500.64" x2="441.1" y2="435.87"/>
    <line class="cls-1" x1="429.63" y1="502.36" x2="429.63" y2="437.62"/>
    <line class="cls-1" x1="441.07" y1="411.27" x2="428.42" y2="413.19"/>
    <line class="cls-1" x1="428.2" y1="412.95" x2="428.42" y2="413.19"/>
    <line class="cls-1" x1="441.07" y1="411.27" x2="441.07" y2="342.77"/>
    <line class="cls-1" x1="428.42" y1="413.19" x2="428.42" y2="344.69"/>
    <line class="cls-1" x1="74.01" y1="275.88" x2="74.01" y2="268.89"/>
    <line class="cls-1" x1="389.77" y1="228.39" x2="96.35" y2="272.95"/>
    <line class="cls-1" x1="389.77" y1="222.88" x2="91.72" y2="268.15"/>
    <line class="cls-1" x1="400.37" y1="216.84" x2="398.31" y2="214.7"/>
    <line class="cls-1" x1="72.61" y1="264.17" x2="74.67" y2="266.31"/>
    <line class="cls-1" x1="72.61" y1="267.44" x2="72.61" y2="264.17"/>
    <line class="cls-1" x1="398.31" y1="214.7" x2="72.61" y2="264.17"/>
    <line class="cls-1" x1="493.1" y1="317.93" x2="493.1" y2="325.66"/>
    <line class="cls-1" x1="389.77" y1="228.39" x2="389.77" y2="222.88"/>
    <line class="cls-1" x1="475.39" y1="311.66" x2="389.77" y2="222.88"/>
    <line class="cls-1" x1="470.75" y1="312.36" x2="389.77" y2="228.39"/>
    <line class="cls-1" x1="489.1" y1="315.26" x2="494.5" y2="314.44"/>
    <line class="cls-1" x1="494.5" y1="314.44" x2="400.37" y2="216.84"/>
    <line class="cls-1" x1="494.5" y1="314.44" x2="494.5" y2="317.72"/>
    <line class="cls-1" x1="393.12" y1="324.15" x2="475.39" y2="311.66"/>
    <line class="cls-1" x1="382.52" y1="329" x2="384.58" y2="331.14"/>
    <line class="cls-1" x1="384.58" y1="331.14" x2="489.1" y2="315.26"/>
    <line class="cls-1" x1="384.58" y1="331.14" x2="384.58" y2="334.41"/>
    <line class="cls-1" x1="384.58" y1="334.41" x2="480.67" y2="319.82"/>
    <line class="cls-1" x1="494.5" y1="317.72" x2="480.67" y2="319.82"/>
    <line class="cls-1" x1="371.69" y1="317.77" x2="382.52" y2="329"/>
    <line class="cls-1" x1="371.69" y1="321.04" x2="384.58" y2="334.41"/>
    <line class="cls-1" x1="380.23" y1="310.78" x2="378.11" y2="311.1"/>
    <line class="cls-1" x1="380.23" y1="310.78" x2="393.12" y2="324.15"/>
    <line class="cls-1" x1="372.31" y1="328.68" x2="372.31" y2="321.69"/>
    <line class="cls-1" x1="156.53" y1="353.72" x2="156.53" y2="361.45"/>
    <line class="cls-1" x1="155.9" y1="350.54" x2="155.9" y2="353.82"/>
    <line class="cls-1" x1="153.84" y1="348.4" x2="155.9" y2="350.54"/>
    <line class="cls-1" x1="371.69" y1="317.77" x2="371.69" y2="321.04"/>
    <line class="cls-1" x1="155.9" y1="353.82" x2="371.69" y2="321.04"/>
    <line class="cls-1" x1="155.9" y1="350.54" x2="371.69" y2="317.77"/>
    <line class="cls-1" x1="164.44" y1="343.56" x2="378.11" y2="311.1"/>
    <line class="cls-1" x1="74.67" y1="266.31" x2="153.84" y2="348.4"/>
    <line class="cls-1" x1="72.61" y1="267.44" x2="155.9" y2="353.82"/>
    <line class="cls-1" x1="91.72" y1="268.15" x2="164.44" y2="343.56"/>
    <line class="cls-1" x1="264.42" y1="431.88" x2="277.33" y2="445.26"/>
    <line class="cls-1" x1="263.24" y1="394.83" x2="263.91" y2="394.73"/>
    <line class="cls-1" x1="263.24" y1="394.98" x2="263.24" y2="394.83"/>
    <line class="cls-1" x1="427.35" y1="345.35" x2="398.7" y2="349.97"/>
    <line class="cls-1" x1="398.7" y1="349.97" x2="398.7" y2="416.87"/>
    <line class="cls-1" x1="427.35" y1="412.52" x2="427.35" y2="345.35"/>
    <line class="cls-1" x1="493.1" y1="492.89" x2="277.99" y2="524.97"/>
    <line class="cls-1" x1="277.99" y1="524.97" x2="277.32" y2="525.07"/>
    <line class="cls-1" x1="277.32" y1="525.07" x2="264.42" y2="511.7"/>
    <line class="cls-1" x1="120.42" y1="490.65" x2="74.01" y2="442.51"/>
    <line class="cls-1" x1="154.08" y1="525.54" x2="156.53" y2="528.08"/>
    <line class="cls-1" x1="156.53" y1="528.08" x2="162.93" y2="527.11"/>
    <line class="cls-1" x1="85.91" y1="444.75" x2="110.82" y2="470.59"/>
    <line class="cls-1" x1="85.91" y1="444.75" x2="79.16" y2="445.78"/>
  </g>
  <line class="cls-3" x1="494.5" y1="313.78" x2="494.5" y2="502.66"/>
  <line class="cls-3" x1="397.7" y1="214.07" x2="495.04" y2="315.01"/>
  <line class="cls-3" x1="72.61" y1="262.63" x2="72.61" y2="451.99"/>
  <line class="cls-3" x1="157.27" y1="538.8" x2="72.03" y2="450.76"/>
  <line class="cls-3" x1="71.39" y1="264.35" x2="399.25" y2="214.56"/>
  <line class="cls-3" x1="264.42" y1="521.65" x2="278.02" y2="535.75"/>
  <line class="cls-3" x1="496.07" y1="501.79" x2="276.56" y2="535.13"/>
  <line class="cls-3" x1="265.87" y1="521.43" x2="155.85" y2="538.14"/>
</svg>