<?xml version="1.0" encoding="UTF-8"?>
<svg id="Warstwa_1" xmlns="http://www.w3.org/2000/svg" xmlns:xlink="http://www.w3.org/1999/xlink" viewBox="0 0 541 788">
  <defs>
    <style>
      .cls-1 {
        stroke-linecap: round;
        stroke-linejoin: round;
        stroke-width: .14px;
      }

      .cls-1, .cls-2, .cls-3 {
        fill: none;
      }

      .cls-1, .cls-3 {
        stroke: #000;
      }

      .cls-2 {
        clip-rule: evenodd;
      }

      .cls-3 {
        stroke-miterlimit: 10;
        stroke-width: 3.5px;
      }

      .cls-4 {
        clip-path: url(#clippath);
      }
    </style>
    <clipPath id="clippath">
      <polyline class="cls-2" points="0 0 541 0 541 788 0 788 0 0"/>
    </clipPath>
  </defs>
  <g class="cls-4">
    <line class="cls-1" x1="79.67" y1="469.51" x2="108.3" y2="499.2"/>
    <line class="cls-1" x1="108.3" y1="499.2" x2="108.3" y2="491.18"/>
    <line class="cls-1" x1="108.3" y1="491.18" x2="86.41" y2="468.49"/>
    <line class="cls-1" x1="86.41" y1="468.49" x2="79.67" y2="469.51"/>
    <line class="cls-1" x1="317.62" y1="471.85" x2="237.43" y2="484.03"/>
    <line class="cls-1" x1="237.43" y1="484.03" x2="237.43" y2="487.1"/>
    <line class="cls-1" x1="237.43" y1="487.1" x2="320.2" y2="474.53"/>
    <line class="cls-1" x1="320.2" y1="474.53" x2="317.62" y2="471.85"/>
    <line class="cls-1" x1="373.49" y1="388.49" x2="373.49" y2="390.64"/>
    <line class="cls-1" x1="373.49" y1="390.64" x2="435.83" y2="381.17"/>
    <line class="cls-1" x1="435.83" y1="381.17" x2="434.02" y2="379.3"/>
    <line class="cls-1" x1="434.02" y1="379.3" x2="373.49" y2="388.49"/>
    <line class="cls-1" x1="450.09" y1="469.12" x2="234.31" y2="501.89"/>
    <line class="cls-1" x1="234.31" y1="501.89" x2="234.31" y2="511.84"/>
    <line class="cls-1" x1="234.31" y1="511.84" x2="450.09" y2="479.07"/>
    <line class="cls-1" x1="450.09" y1="479.07" x2="450.09" y2="469.12"/>
    <line class="cls-1" x1="342.2" y1="485.51" x2="341.94" y2="485.24"/>
    <line class="cls-1" x1="342.2" y1="405.69" x2="342.2" y2="485.51"/>
    <line class="cls-1" x1="450.09" y1="469.12" x2="450.09" y2="382.01"/>
    <line class="cls-1" x1="372.64" y1="453.5" x2="372.64" y2="391.69"/>
    <line class="cls-1" x1="373.49" y1="453.37" x2="372.64" y2="453.5"/>
    <line class="cls-1" x1="373.49" y1="409.87" x2="373.49" y2="453.37"/>
    <line class="cls-1" x1="399.91" y1="442.6" x2="373.49" y2="446.61"/>
    <line class="cls-1" x1="399.91" y1="405.31" x2="399.91" y2="442.6"/>
    <line class="cls-1" x1="373.49" y1="446.84" x2="400.1" y2="442.8"/>
    <line class="cls-1" x1="400.1" y1="444.29" x2="373.49" y2="448.33"/>
    <line class="cls-1" x1="400.1" y1="442.8" x2="399.91" y2="442.6"/>
    <line class="cls-1" x1="400.1" y1="405.28" x2="373.49" y2="409.32"/>
    <line class="cls-1" x1="430.97" y1="438.65" x2="402.43" y2="442.98"/>
    <line class="cls-1" x1="430.97" y1="401.36" x2="430.97" y2="438.65"/>
    <line class="cls-1" x1="432.85" y1="401.07" x2="432.85" y2="438.6"/>
    <line class="cls-1" x1="431.16" y1="438.85" x2="431.16" y2="401.33"/>
    <line class="cls-1" x1="400.75" y1="443.47" x2="400.75" y2="405.94"/>
    <line class="cls-1" x1="402.43" y1="405.69" x2="402.43" y2="443.21"/>
    <line class="cls-1" x1="400.1" y1="442.8" x2="400.1" y2="405.28"/>
    <line class="cls-1" x1="400.75" y1="444.96" x2="400.75" y2="443.47"/>
    <line class="cls-1" x1="402.43" y1="443.21" x2="431.16" y2="438.85"/>
    <line class="cls-1" x1="400.1" y1="444.29" x2="400.1" y2="442.8"/>
    <line class="cls-1" x1="400.75" y1="444.96" x2="400.1" y2="444.29"/>
    <line class="cls-1" x1="431.16" y1="438.85" x2="430.97" y2="438.65"/>
    <line class="cls-1" x1="432.85" y1="399.94" x2="432.85" y2="401.07"/>
    <line class="cls-1" x1="431.16" y1="401.33" x2="402.43" y2="405.69"/>
    <line class="cls-1" x1="400.75" y1="405.94" x2="400.75" y2="404.81"/>
    <line class="cls-1" x1="400.1" y1="405.28" x2="400.1" y2="404.91"/>
    <line class="cls-1" x1="432.85" y1="440.09" x2="432.85" y2="438.6"/>
    <line class="cls-1" x1="373.49" y1="449.1" x2="432.85" y2="440.09"/>
    <line class="cls-1" x1="434.02" y1="440.8" x2="434.02" y2="399.76"/>
    <line class="cls-1" x1="436.6" y1="443.78" x2="436.6" y2="400.29"/>
    <line class="cls-1" x1="436.6" y1="443.78" x2="434.02" y2="440.8"/>
    <line class="cls-1" x1="436.6" y1="443.78" x2="437.45" y2="443.66"/>
    <line class="cls-1" x1="437.45" y1="443.66" x2="437.45" y2="381.84"/>
    <line class="cls-1" x1="437.83" y1="444.49" x2="373.03" y2="454.33"/>
    <line class="cls-1" x1="373.03" y1="454.33" x2="372.64" y2="453.93"/>
    <line class="cls-1" x1="437.45" y1="443.66" x2="437.83" y2="444.1"/>
    <line class="cls-1" x1="437.83" y1="444.1" x2="373.03" y2="453.95"/>
    <line class="cls-1" x1="373.03" y1="453.95" x2="372.64" y2="453.5"/>
    <line class="cls-1" x1="373.49" y1="449.99" x2="434.02" y2="440.8"/>
    <line class="cls-1" x1="437.83" y1="444.49" x2="437.83" y2="444.1"/>
    <line class="cls-1" x1="373.03" y1="454.33" x2="373.03" y2="453.95"/>
    <line class="cls-1" x1="372.64" y1="453.93" x2="372.64" y2="453.5"/>
    <line class="cls-1" x1="73.35" y1="463.26" x2="73.35" y2="375.73"/>
    <line class="cls-1" x1="114.61" y1="506.05" x2="114.61" y2="418.94"/>
    <line class="cls-1" x1="222.51" y1="402.55" x2="222.51" y2="401.8"/>
    <line class="cls-1" x1="114.61" y1="418.94" x2="114.61" y2="418.19"/>
    <line class="cls-1" x1="196.99" y1="374.75" x2="181.25" y2="358.42"/>
    <line class="cls-1" x1="222.51" y1="401.8" x2="222.51" y2="401.21"/>
    <line class="cls-1" x1="181.25" y1="358.42" x2="98.81" y2="371.18"/>
    <line class="cls-1" x1="114.6" y1="417.58" x2="114.61" y2="417.59"/>
    <line class="cls-1" x1="114.61" y1="417.59" x2="222.99" y2="401.13"/>
    <line class="cls-1" x1="114.61" y1="418.19" x2="114.61" y2="417.59"/>
    <line class="cls-1" x1="72.94" y1="344.36" x2="73.25" y2="344.68"/>
    <line class="cls-1" x1="72.91" y1="344.3" x2="72.94" y2="344.36"/>
    <line class="cls-1" x1="72.91" y1="344.25" x2="72.91" y2="344.3"/>
    <line class="cls-1" x1="72.94" y1="344.21" x2="72.91" y2="344.25"/>
    <line class="cls-1" x1="73.01" y1="344.17" x2="72.94" y2="344.21"/>
    <line class="cls-1" x1="73.09" y1="344.14" x2="73.01" y2="344.17"/>
    <line class="cls-1" x1="73.22" y1="344.11" x2="73.09" y2="344.14"/>
    <line class="cls-1" x1="72" y1="344.29" x2="72" y2="345.13"/>
    <line class="cls-1" x1="114.8" y1="387.23" x2="115.62" y2="387.11"/>
    <line class="cls-1" x1="114.66" y1="387.24" x2="114.8" y2="387.23"/>
    <line class="cls-1" x1="114.54" y1="387.24" x2="114.66" y2="387.24"/>
    <line class="cls-1" x1="114.43" y1="387.23" x2="114.54" y2="387.24"/>
    <line class="cls-1" x1="114.33" y1="387.2" x2="114.43" y2="387.23"/>
    <line class="cls-1" x1="114.3" y1="387.19" x2="114.33" y2="387.2"/>
    <line class="cls-1" x1="114.18" y1="387.12" x2="114.24" y2="387.16"/>
    <line class="cls-1" x1="181.08" y1="328.47" x2="181.08" y2="327.73"/>
    <line class="cls-1" x1="181.08" y1="327.73" x2="181.05" y2="327.69"/>
    <line class="cls-1" x1="181.08" y1="328.47" x2="73.4" y2="344.83"/>
    <line class="cls-1" x1="181.08" y1="327.73" x2="73.22" y2="344.11"/>
    <line class="cls-1" x1="73.25" y1="344.68" x2="114.18" y2="387.12"/>
    <line class="cls-1" x1="72" y1="345.13" x2="113.59" y2="388.25"/>
    <line class="cls-1" x1="115.62" y1="387.11" x2="222.27" y2="370.91"/>
    <line class="cls-1" x1="222.96" y1="371.15" x2="222.99" y2="371.18"/>
    <line class="cls-1" x1="222.99" y1="371.18" x2="222.99" y2="371.93"/>
    <line class="cls-1" x1="114.6" y1="388.39" x2="222.99" y2="371.93"/>
    <line class="cls-1" x1="138.89" y1="236.61" x2="138.89" y2="315.84"/>
    <line class="cls-1" x1="234.31" y1="414.78" x2="234.31" y2="335.55"/>
    <line class="cls-1" x1="450.09" y1="382.01" x2="450.09" y2="302.78"/>
    <line class="cls-1" x1="341.94" y1="485.24" x2="330.4" y2="473.28"/>
    <line class="cls-1" x1="330.4" y1="407.48" x2="330.4" y2="473.28"/>
    <line class="cls-1" x1="202.04" y1="369.74" x2="202.04" y2="368.25"/>
    <line class="cls-1" x1="203.19" y1="368.84" x2="207.37" y2="373.17"/>
    <line class="cls-1" x1="203.19" y1="312.68" x2="203.19" y2="368.84"/>
    <line class="cls-1" x1="202.04" y1="311.49" x2="202.04" y2="368.25"/>
    <line class="cls-1" x1="202.69" y1="368.92" x2="202.69" y2="312.16"/>
    <line class="cls-1" x1="214.49" y1="372.09" x2="214.49" y2="324.39"/>
    <line class="cls-1" x1="213.84" y1="323.72" x2="213.84" y2="372.19"/>
    <line class="cls-1" x1="216.17" y1="371.84" x2="216.17" y2="326.14"/>
    <line class="cls-1" x1="206.86" y1="373.25" x2="202.69" y2="368.92"/>
    <line class="cls-1" x1="202.69" y1="368.92" x2="203.19" y2="368.84"/>
    <line class="cls-1" x1="194.53" y1="302.95" x2="220.31" y2="329.69"/>
    <line class="cls-1" x1="220.31" y1="329.69" x2="220.31" y2="371.21"/>
    <line class="cls-1" x1="216.68" y1="326.67" x2="216.68" y2="371.76"/>
    <line class="cls-1" x1="205.61" y1="373.44" x2="202.04" y2="369.74"/>
    <line class="cls-1" x1="201.59" y1="370.02" x2="201.59" y2="311.02"/>
    <line class="cls-1" x1="204.99" y1="373.53" x2="201.59" y2="370.02"/>
    <line class="cls-1" x1="194.53" y1="371.45" x2="197.62" y2="374.65"/>
    <line class="cls-1" x1="194.53" y1="302.95" x2="194.53" y2="371.45"/>
    <line class="cls-1" x1="194.85" y1="371.04" x2="194.85" y2="304.03"/>
    <line class="cls-1" x1="194.85" y1="304.03" x2="219.99" y2="330.1"/>
    <line class="cls-1" x1="219.99" y1="330.1" x2="219.99" y2="371.25"/>
    <line class="cls-1" x1="198.24" y1="374.56" x2="194.85" y2="371.04"/>
    <line class="cls-1" x1="201.59" y1="370.02" x2="194.85" y2="371.04"/>
    <line class="cls-1" x1="372.65" y1="391.69" x2="372.65" y2="323.19"/>
    <line class="cls-1" x1="373.49" y1="323.8" x2="373.49" y2="391.56"/>
    <line class="cls-1" x1="399.92" y1="380.21" x2="373.49" y2="384.22"/>
    <line class="cls-1" x1="399.92" y1="319.79" x2="399.92" y2="380.21"/>
    <line class="cls-1" x1="373.49" y1="384.45" x2="400.11" y2="380.41"/>
    <line class="cls-1" x1="400.11" y1="381.9" x2="373.49" y2="385.94"/>
    <line class="cls-1" x1="400.11" y1="380.41" x2="399.92" y2="380.21"/>
    <line class="cls-1" x1="430.97" y1="376.26" x2="402.44" y2="380.59"/>
    <line class="cls-1" x1="430.97" y1="315.07" x2="430.97" y2="376.26"/>
    <line class="cls-1" x1="432.85" y1="314.79" x2="432.85" y2="376.2"/>
    <line class="cls-1" x1="431.16" y1="376.46" x2="431.16" y2="315.05"/>
    <line class="cls-1" x1="400.75" y1="381.08" x2="400.75" y2="319.66"/>
    <line class="cls-1" x1="402.44" y1="319.41" x2="402.44" y2="380.82"/>
    <line class="cls-1" x1="400.11" y1="380.41" x2="400.11" y2="319.76"/>
    <line class="cls-1" x1="400.75" y1="382.56" x2="400.75" y2="381.08"/>
    <line class="cls-1" x1="402.44" y1="380.82" x2="431.16" y2="376.46"/>
    <line class="cls-1" x1="400.11" y1="381.9" x2="400.11" y2="380.41"/>
    <line class="cls-1" x1="400.75" y1="382.56" x2="400.11" y2="381.9"/>
    <line class="cls-1" x1="431.16" y1="376.46" x2="430.97" y2="376.26"/>
    <line class="cls-1" x1="432.85" y1="377.69" x2="432.85" y2="376.2"/>
    <line class="cls-1" x1="373.49" y1="386.71" x2="432.85" y2="377.69"/>
    <line class="cls-1" x1="434.02" y1="379.3" x2="434.02" y2="379"/>
    <line class="cls-1" x1="434.02" y1="379" x2="434.02" y2="314.61"/>
    <line class="cls-1" x1="436.6" y1="381.97" x2="436.6" y2="314.22"/>
    <line class="cls-1" x1="437.45" y1="381.84" x2="437.45" y2="313.35"/>
    <line class="cls-1" x1="436.6" y1="314.22" x2="373.49" y2="323.8"/>
    <line class="cls-1" x1="372.65" y1="323.19" x2="437.45" y2="313.35"/>
    <line class="cls-1" x1="372.64" y1="391.69" x2="372.65" y2="391.69"/>
    <line class="cls-1" x1="79.35" y1="469.18" x2="79.35" y2="397.7"/>
    <line class="cls-1" x1="86.41" y1="468.19" x2="86.41" y2="468.49"/>
    <line class="cls-1" x1="86.41" y1="405.77" x2="86.41" y2="468.19"/>
    <line class="cls-1" x1="79.67" y1="398.78" x2="79.67" y2="469.51"/>
    <line class="cls-1" x1="86.87" y1="406.24" x2="86.87" y2="467.17"/>
    <line class="cls-1" x1="97.83" y1="474.44" x2="89.7" y2="466.02"/>
    <line class="cls-1" x1="89.7" y1="466.02" x2="89.7" y2="409.18"/>
    <line class="cls-1" x1="88.55" y1="465.43" x2="88.55" y2="407.99"/>
    <line class="cls-1" x1="89.2" y1="408.66" x2="89.2" y2="466.1"/>
    <line class="cls-1" x1="88.55" y1="466.92" x2="88.55" y2="465.43"/>
    <line class="cls-1" x1="89.2" y1="466.1" x2="97.83" y2="475.04"/>
    <line class="cls-1" x1="97.83" y1="476.53" x2="88.55" y2="466.92"/>
    <line class="cls-1" x1="89.2" y1="466.1" x2="89.7" y2="466.02"/>
    <line class="cls-1" x1="108.62" y1="499.53" x2="108.62" y2="428.05"/>
    <line class="cls-1" x1="79.35" y1="397.7" x2="108.62" y2="428.05"/>
    <line class="cls-1" x1="108.3" y1="487.3" x2="98.98" y2="477.64"/>
    <line class="cls-1" x1="98.98" y1="477.64" x2="98.98" y2="418.8"/>
    <line class="cls-1" x1="108.3" y1="499.2" x2="108.3" y2="428.47"/>
    <line class="cls-1" x1="108.3" y1="428.47" x2="79.67" y2="398.78"/>
    <line class="cls-1" x1="97.83" y1="477.05" x2="97.83" y2="417.61"/>
    <line class="cls-1" x1="98.47" y1="418.28" x2="98.47" y2="477.72"/>
    <line class="cls-1" x1="97.83" y1="478.54" x2="97.83" y2="477.05"/>
    <line class="cls-1" x1="98.47" y1="477.72" x2="108.3" y2="487.91"/>
    <line class="cls-1" x1="108.3" y1="489.39" x2="97.83" y2="478.54"/>
    <line class="cls-1" x1="98.47" y1="477.72" x2="98.98" y2="477.64"/>
    <line class="cls-1" x1="86.87" y1="467.17" x2="97.83" y2="478.54"/>
    <line class="cls-1" x1="86.87" y1="467.17" x2="88.55" y2="466.92"/>
    <line class="cls-1" x1="73.35" y1="466.3" x2="73.35" y2="463.86"/>
    <line class="cls-1" x1="114.61" y1="509.09" x2="114.61" y2="506.64"/>
    <line class="cls-1" x1="450.09" y1="472.16" x2="450.09" y2="469.72"/>
    <line class="cls-1" x1="114.61" y1="515.25" x2="114.61" y2="514.89"/>
    <line class="cls-1" x1="73.35" y1="472.47" x2="73.35" y2="472.11"/>
    <line class="cls-1" x1="450.09" y1="478.32" x2="450.09" y2="477.97"/>
    <line class="cls-1" x1="114.61" y1="515.99" x2="222.51" y2="499.61"/>
    <line class="cls-1" x1="73.35" y1="473.21" x2="114.61" y2="515.99"/>
    <line class="cls-1" x1="114.61" y1="515.99" x2="114.61" y2="515.25"/>
    <line class="cls-1" x1="450.09" y1="479.07" x2="450.09" y2="478.32"/>
    <line class="cls-1" x1="73.35" y1="473.21" x2="73.35" y2="472.47"/>
    <line class="cls-1" x1="114.61" y1="506.64" x2="114.61" y2="506.05"/>
    <line class="cls-1" x1="73.35" y1="463.86" x2="73.35" y2="463.26"/>
    <line class="cls-1" x1="450.09" y1="469.72" x2="450.09" y2="469.12"/>
    <line class="cls-1" x1="114.61" y1="514.89" x2="114.61" y2="509.09"/>
    <line class="cls-1" x1="73.35" y1="472.11" x2="73.35" y2="466.3"/>
    <line class="cls-1" x1="450.09" y1="477.97" x2="450.09" y2="472.16"/>
    <line class="cls-1" x1="141.34" y1="333.38" x2="141.34" y2="325.68"/>
    <line class="cls-1" x1="147.74" y1="332.41" x2="147.74" y2="332.32"/>
    <line class="cls-1" x1="138.89" y1="364.98" x2="138.89" y2="364.08"/>
    <line class="cls-1" x1="138.89" y1="333.75" x2="138.89" y2="322.78"/>
    <line class="cls-1" x1="234.31" y1="504.93" x2="234.31" y2="502.49"/>
    <line class="cls-1" x1="234.31" y1="511.1" x2="234.31" y2="510.74"/>
    <line class="cls-1" x1="222.51" y1="499.61" x2="234.31" y2="511.84"/>
    <line class="cls-1" x1="234.31" y1="511.84" x2="234.31" y2="511.1"/>
    <line class="cls-1" x1="234.31" y1="502.49" x2="234.31" y2="501.89"/>
    <line class="cls-1" x1="234.31" y1="510.74" x2="234.31" y2="504.93"/>
    <line class="cls-1" x1="180.36" y1="327.34" x2="180.62" y2="327.61"/>
    <line class="cls-1" x1="180.62" y1="327.61" x2="181.05" y2="327.55"/>
    <line class="cls-1" x1="180.79" y1="327.28" x2="180.36" y2="327.34"/>
    <line class="cls-1" x1="180.36" y1="327.49" x2="180.36" y2="327.34"/>
    <line class="cls-1" x1="180.62" y1="356.96" x2="180.62" y2="328.54"/>
    <line class="cls-1" x1="180.62" y1="327.76" x2="180.62" y2="327.61"/>
    <line class="cls-1" x1="71.63" y1="373.94" x2="71.88" y2="374.2"/>
    <line class="cls-1" x1="71.88" y1="374.2" x2="72" y2="374.19"/>
    <line class="cls-1" x1="71.63" y1="343.86" x2="71.88" y2="344.13"/>
    <line class="cls-1" x1="71.88" y1="344.13" x2="72.75" y2="343.99"/>
    <line class="cls-1" x1="72.75" y1="343.99" x2="72.49" y2="343.73"/>
    <line class="cls-1" x1="72.49" y1="343.73" x2="71.63" y2="343.86"/>
    <line class="cls-1" x1="71.63" y1="373.94" x2="71.63" y2="343.86"/>
    <line class="cls-1" x1="71.88" y1="374.2" x2="71.88" y2="344.13"/>
    <line class="cls-1" x1="72.75" y1="344.14" x2="72.75" y2="343.99"/>
    <line class="cls-1" x1="113.92" y1="417.68" x2="114.6" y2="417.58"/>
    <line class="cls-1" x1="72" y1="374.22" x2="113.92" y2="417.68"/>
    <line class="cls-1" x1="113.92" y1="387.6" x2="114.6" y2="387.5"/>
    <line class="cls-1" x1="114.6" y1="387.5" x2="114.27" y2="387.16"/>
    <line class="cls-1" x1="114.27" y1="387.16" x2="113.59" y2="387.26"/>
    <line class="cls-1" x1="113.59" y1="387.26" x2="113.92" y2="387.6"/>
    <line class="cls-1" x1="113.92" y1="417.68" x2="113.92" y2="387.6"/>
    <line class="cls-1" x1="114.6" y1="417.58" x2="114.6" y2="387.5"/>
    <line class="cls-1" x1="113.59" y1="387.41" x2="113.59" y2="387.26"/>
    <line class="cls-1" x1="113.59" y1="416.71" x2="113.59" y2="388.25"/>
    <line class="cls-1" x1="222.7" y1="370.73" x2="222.27" y2="370.8"/>
    <line class="cls-1" x1="222.27" y1="370.8" x2="222.53" y2="371.07"/>
    <line class="cls-1" x1="222.53" y1="371.07" x2="222.96" y2="371"/>
    <line class="cls-1" x1="222.27" y1="370.95" x2="222.27" y2="370.8"/>
    <line class="cls-1" x1="222.53" y1="400.45" x2="222.53" y2="372"/>
    <line class="cls-1" x1="222.53" y1="371.21" x2="222.53" y2="371.07"/>
    <line class="cls-1" x1="236.58" y1="487.23" x2="236.58" y2="421.73"/>
    <line class="cls-1" x1="237.43" y1="421.61" x2="237.43" y2="487.1"/>
    <line class="cls-1" x1="261.32" y1="476" x2="237.43" y2="479.63"/>
    <line class="cls-1" x1="261.32" y1="417.97" x2="261.32" y2="476"/>
    <line class="cls-1" x1="237.43" y1="479.73" x2="261.41" y2="476.09"/>
    <line class="cls-1" x1="261.41" y1="477.58" x2="237.43" y2="481.22"/>
    <line class="cls-1" x1="261.41" y1="476.09" x2="261.32" y2="476"/>
    <line class="cls-1" x1="288" y1="472.46" x2="263.53" y2="476.18"/>
    <line class="cls-1" x1="288" y1="413.92" x2="288" y2="472.46"/>
    <line class="cls-1" x1="261.84" y1="476.54" x2="261.84" y2="417.9"/>
    <line class="cls-1" x1="263.53" y1="417.64" x2="263.53" y2="476.28"/>
    <line class="cls-1" x1="261.41" y1="476.09" x2="261.41" y2="417.96"/>
    <line class="cls-1" x1="261.84" y1="478.03" x2="261.84" y2="476.54"/>
    <line class="cls-1" x1="263.53" y1="476.28" x2="288.08" y2="472.55"/>
    <line class="cls-1" x1="288.08" y1="474.04" x2="261.84" y2="478.03"/>
    <line class="cls-1" x1="261.41" y1="477.58" x2="261.41" y2="476.09"/>
    <line class="cls-1" x1="261.84" y1="478.03" x2="261.41" y2="477.58"/>
    <line class="cls-1" x1="288.08" y1="472.55" x2="288" y2="472.46"/>
    <line class="cls-1" x1="314.67" y1="468.92" x2="290.2" y2="472.64"/>
    <line class="cls-1" x1="314.67" y1="409.87" x2="314.67" y2="468.92"/>
    <line class="cls-1" x1="316.44" y1="409.6" x2="316.44" y2="468.75"/>
    <line class="cls-1" x1="314.76" y1="469.01" x2="314.76" y2="409.86"/>
    <line class="cls-1" x1="288.51" y1="473" x2="288.51" y2="413.84"/>
    <line class="cls-1" x1="290.2" y1="413.59" x2="290.2" y2="472.74"/>
    <line class="cls-1" x1="288.08" y1="472.55" x2="288.08" y2="413.91"/>
    <line class="cls-1" x1="288.51" y1="474.49" x2="288.51" y2="473"/>
    <line class="cls-1" x1="290.2" y1="472.74" x2="314.76" y2="469.01"/>
    <line class="cls-1" x1="288.08" y1="474.04" x2="288.08" y2="472.55"/>
    <line class="cls-1" x1="288.51" y1="474.49" x2="288.08" y2="474.04"/>
    <line class="cls-1" x1="314.76" y1="469.01" x2="314.67" y2="468.92"/>
    <line class="cls-1" x1="316.44" y1="470.24" x2="316.44" y2="468.75"/>
    <line class="cls-1" x1="237.43" y1="482.24" x2="316.44" y2="470.24"/>
    <line class="cls-1" x1="317.62" y1="471.85" x2="317.62" y2="471.55"/>
    <line class="cls-1" x1="317.62" y1="471.55" x2="317.62" y2="409.43"/>
    <line class="cls-1" x1="320.2" y1="474.53" x2="320.2" y2="409.03"/>
    <line class="cls-1" x1="321.04" y1="474.4" x2="321.04" y2="408.9"/>
    <line class="cls-1" x1="321.04" y1="474.4" x2="236.58" y2="487.23"/>
    <line class="cls-1" x1="234.31" y1="327.82" x2="234.31" y2="335.55"/>
    <line class="cls-1" x1="450.09" y1="302.78" x2="450.09" y2="295.05"/>
    <line class="cls-1" x1="242.22" y1="317.66" x2="432.38" y2="288.78"/>
    <line class="cls-1" x1="233.68" y1="324.64" x2="233.68" y2="327.92"/>
    <line class="cls-1" x1="231.62" y1="322.5" x2="233.68" y2="324.64"/>
    <line class="cls-1" x1="233.68" y1="324.64" x2="451.49" y2="291.56"/>
    <line class="cls-1" x1="451.49" y1="291.56" x2="449.43" y2="289.43"/>
    <line class="cls-1" x1="451.49" y1="294.84" x2="451.49" y2="291.56"/>
    <line class="cls-1" x1="233.68" y1="327.92" x2="451.49" y2="294.84"/>
    <line class="cls-1" x1="138.89" y1="229.63" x2="138.89" y2="236.61"/>
    <line class="cls-1" x1="137.49" y1="224.9" x2="137.49" y2="228.18"/>
    <line class="cls-1" x1="142.88" y1="224.08" x2="137.49" y2="224.9"/>
    <line class="cls-1" x1="137.49" y1="228.18" x2="233.68" y2="327.92"/>
    <line class="cls-1" x1="137.49" y1="224.9" x2="231.62" y2="322.5"/>
    <line class="cls-1" x1="156.6" y1="228.88" x2="242.22" y2="317.66"/>
    <line class="cls-1" x1="346.76" y1="205.51" x2="161.23" y2="233.68"/>
    <line class="cls-1" x1="346.76" y1="200" x2="156.6" y2="228.88"/>
    <line class="cls-1" x1="357.36" y1="193.96" x2="355.3" y2="191.82"/>
    <line class="cls-1" x1="355.3" y1="191.82" x2="142.88" y2="224.08"/>
    <line class="cls-1" x1="346.76" y1="205.51" x2="346.76" y2="200"/>
    <line class="cls-1" x1="432.38" y1="288.78" x2="346.76" y2="200"/>
    <line class="cls-1" x1="427.74" y1="289.48" x2="346.76" y2="205.51"/>
    <line class="cls-1" x1="449.43" y1="289.43" x2="357.36" y2="193.96"/>
    <line class="cls-1" x1="222.51" y1="403.68" x2="222.51" y2="402.55"/>
    <line class="cls-1" x1="234.31" y1="415.91" x2="234.31" y2="414.78"/>
    <line class="cls-1" x1="222.51" y1="409.85" x2="234.31" y2="422.08"/>
    <line class="cls-1" x1="234.31" y1="422.08" x2="234.31" y2="421.72"/>
    <line class="cls-1" x1="222.51" y1="409.85" x2="222.51" y2="409.49"/>
    <line class="cls-1" x1="234.31" y1="422.08" x2="342.2" y2="405.69"/>
    <line class="cls-1" x1="234.31" y1="421.72" x2="234.31" y2="415.91"/>
    <line class="cls-1" x1="222.51" y1="409.49" x2="222.51" y2="403.68"/>
    <line class="cls-1" x1="138.89" y1="316.97" x2="138.89" y2="315.84"/>
    <line class="cls-1" x1="141.34" y1="325.68" x2="147.82" y2="332.4"/>
    <line class="cls-1" x1="138.89" y1="322.78" x2="138.89" y2="316.97"/>
    <line class="cls-1" x1="181.08" y1="357.67" x2="181.08" y2="356.93"/>
    <line class="cls-1" x1="181.08" y1="356.93" x2="181.05" y2="356.9"/>
    <line class="cls-1" x1="181.08" y1="357.67" x2="97.96" y2="370.3"/>
    <line class="cls-1" x1="181.08" y1="356.93" x2="97.33" y2="369.65"/>
    <line class="cls-1" x1="72.41" y1="374.01" x2="113.59" y2="416.71"/>
    <line class="cls-1" x1="115.94" y1="416.64" x2="222.99" y2="400.38"/>
    <line class="cls-1" x1="222.96" y1="400.35" x2="222.99" y2="400.38"/>
    <line class="cls-1" x1="222.99" y1="400.38" x2="222.99" y2="401.13"/>
    <line class="cls-1" x1="181.05" y1="356.9" x2="181.05" y2="328.48"/>
    <line class="cls-1" x1="180.36" y1="327.49" x2="72.62" y2="343.86"/>
    <line class="cls-1" x1="72" y1="344.29" x2="113.59" y2="387.41"/>
    <line class="cls-1" x1="114.6" y1="387.61" x2="222.96" y2="371.15"/>
    <line class="cls-1" x1="222.96" y1="371.93" x2="222.96" y2="400.35"/>
    <line class="cls-1" x1="72" y1="373.59" x2="72.41" y2="374.01"/>
    <line class="cls-1" x1="72" y1="373.59" x2="72" y2="374.22"/>
    <line class="cls-1" x1="114.6" y1="416.85" x2="115.94" y2="416.64"/>
    <line class="cls-1" x1="435.83" y1="399.49" x2="435.83" y2="381.17"/>
    <line class="cls-1" x1="435.83" y1="399.49" x2="373.49" y2="408.95"/>
    <line class="cls-1" x1="373.49" y1="409.87" x2="373.49" y2="391.56"/>
    <line class="cls-1" x1="436.6" y1="400.29" x2="436.6" y2="381.97"/>
    <line class="cls-1" x1="222.7" y1="370.73" x2="222.96" y2="371"/>
    <line class="cls-1" x1="222.96" y1="371.15" x2="222.96" y2="371"/>
    <line class="cls-1" x1="180.79" y1="327.28" x2="181.05" y2="327.55"/>
    <line class="cls-1" x1="181.05" y1="327.69" x2="181.05" y2="327.55"/>
    <line class="cls-1" x1="234.31" y1="501.89" x2="222.51" y2="489.66"/>
    <line class="cls-1" x1="222.51" y1="489.66" x2="330.4" y2="473.28"/>
    <line class="cls-1" x1="222.84" y1="489.61" x2="114.61" y2="506.05"/>
    <line class="cls-1" x1="114.61" y1="506.05" x2="73.35" y2="463.26"/>
  </g>
  <line class="cls-3" x1="452.47" y1="478.71" x2="233.57" y2="511.95"/>
  <line class="cls-3" x1="223.5" y1="499.47" x2="113.68" y2="515.03"/>
  <line class="cls-3" x1="71.63" y1="341.22" x2="71.63" y2="472.56"/>
  <line class="cls-3" x1="71.08" y1="471.33" x2="115.19" y2="515.47"/>
  <line class="cls-3" x1="137.49" y1="223.34" x2="137.49" y2="333.75"/>
  <line class="cls-3" x1="71.01" y1="342.92" x2="138.89" y2="332.34"/>
  <line class="cls-3" x1="356.37" y1="191.66" x2="136.57" y2="225.04"/>
  <line class="cls-3" x1="451.49" y1="290.99" x2="451.49" y2="480.42"/>
  <line class="cls-3" x1="452.13" y1="292.23" x2="354.88" y2="191.39"/>
  <line class="cls-3" x1="235.02" y1="512.58" x2="221.99" y2="499.07"/>
</svg>