<?xml version="1.0" encoding="UTF-8"?>
<svg id="Warstwa_1" xmlns="http://www.w3.org/2000/svg" xmlns:xlink="http://www.w3.org/1999/xlink" viewBox="0 0 541 788">
  <defs>
    <style>
      .cls-1 {
        stroke-linecap: round;
        stroke-linejoin: round;
        stroke-width: .4px;
      }

      .cls-1, .cls-2, .cls-3 {
        fill: none;
      }

      .cls-1, .cls-3 {
        stroke: #000;
      }

      .cls-2 {
        clip-rule: evenodd;
      }

      .cls-3 {
        stroke-miterlimit: 10;
        stroke-width: 3.5px;
      }

      .cls-4 {
        clip-path: url(#clippath);
      }
    </style>
    <clipPath id="clippath">
      <polyline class="cls-2" points="0 0 541 0 541 788 0 788 0 0"/>
    </clipPath>
  </defs>
  <g class="cls-4">
    <line class="cls-1" x1="251.44" y1="587.91" x2="251.44" y2="590.98"/>
    <line class="cls-1" x1="251.44" y1="590.98" x2="334.21" y2="578.41"/>
    <line class="cls-1" x1="334.21" y1="578.41" x2="331.63" y2="575.73"/>
    <line class="cls-1" x1="331.63" y1="575.73" x2="251.44" y2="587.91"/>
    <line class="cls-1" x1="357.47" y1="574.88" x2="440.25" y2="562.3"/>
    <line class="cls-1" x1="440.25" y1="562.3" x2="437.67" y2="559.63"/>
    <line class="cls-1" x1="437.67" y1="559.63" x2="357.47" y2="571.81"/>
    <line class="cls-1" x1="357.47" y1="571.81" x2="357.47" y2="574.88"/>
    <line class="cls-1" x1="250.59" y1="591.11" x2="251.44" y2="590.98"/>
    <line class="cls-1" x1="251.44" y1="590.98" x2="251.44" y2="475.73"/>
    <line class="cls-1" x1="251.44" y1="475.73" x2="334.21" y2="425.91"/>
    <line class="cls-1" x1="334.21" y1="425.91" x2="334.21" y2="578.41"/>
    <line class="cls-1" x1="334.21" y1="578.41" x2="335.05" y2="578.28"/>
    <line class="cls-1" x1="335.05" y1="578.28" x2="335.05" y2="424.56"/>
    <line class="cls-1" x1="335.05" y1="424.56" x2="250.59" y2="475.4"/>
    <line class="cls-1" x1="250.59" y1="475.4" x2="250.59" y2="591.11"/>
    <line class="cls-1" x1="251.44" y1="496" x2="251.44" y2="497.53"/>
    <line class="cls-1" x1="251.44" y1="497.53" x2="330.79" y2="485.47"/>
    <line class="cls-1" x1="330.79" y1="485.47" x2="329.51" y2="484.14"/>
    <line class="cls-1" x1="329.51" y1="484.14" x2="304.21" y2="487.98"/>
    <line class="cls-1" x1="304.21" y1="487.98" x2="304.21" y2="489.21"/>
    <line class="cls-1" x1="304.21" y1="489.21" x2="302.52" y2="489.47"/>
    <line class="cls-1" x1="302.52" y1="489.47" x2="301.49" y2="488.4"/>
    <line class="cls-1" x1="301.49" y1="488.4" x2="251.44" y2="496"/>
    <line class="cls-1" x1="251.44" y1="501.39" x2="333.63" y2="488.91"/>
    <line class="cls-1" x1="333.63" y1="488.91" x2="331.63" y2="486.83"/>
    <line class="cls-1" x1="331.63" y1="486.83" x2="251.44" y2="499.01"/>
    <line class="cls-1" x1="251.44" y1="499.01" x2="251.44" y2="501.39"/>
    <line class="cls-1" x1="357.47" y1="482.91" x2="357.47" y2="485.29"/>
    <line class="cls-1" x1="357.47" y1="485.29" x2="439.67" y2="472.8"/>
    <line class="cls-1" x1="439.67" y1="472.8" x2="437.67" y2="470.73"/>
    <line class="cls-1" x1="437.67" y1="470.73" x2="357.47" y2="482.91"/>
    <line class="cls-1" x1="356.63" y1="421.29" x2="356.63" y2="575"/>
    <line class="cls-1" x1="356.63" y1="575" x2="357.47" y2="574.88"/>
    <line class="cls-1" x1="357.47" y1="574.88" x2="357.47" y2="422.37"/>
    <line class="cls-1" x1="357.47" y1="422.37" x2="440.25" y2="447.06"/>
    <line class="cls-1" x1="440.25" y1="447.06" x2="440.25" y2="562.3"/>
    <line class="cls-1" x1="440.25" y1="562.3" x2="441.09" y2="562.18"/>
    <line class="cls-1" x1="441.09" y1="562.18" x2="441.09" y2="446.47"/>
    <line class="cls-1" x1="441.09" y1="446.47" x2="356.63" y2="421.29"/>
    <line class="cls-1" x1="357.47" y1="479.89" x2="357.47" y2="481.42"/>
    <line class="cls-1" x1="357.47" y1="481.42" x2="436.83" y2="469.37"/>
    <line class="cls-1" x1="436.83" y1="469.37" x2="435.54" y2="468.04"/>
    <line class="cls-1" x1="435.54" y1="468.04" x2="386.42" y2="475.5"/>
    <line class="cls-1" x1="386.42" y1="475.5" x2="386.42" y2="476.73"/>
    <line class="cls-1" x1="386.42" y1="476.73" x2="384.73" y2="476.98"/>
    <line class="cls-1" x1="384.73" y1="476.98" x2="383.7" y2="475.91"/>
    <line class="cls-1" x1="383.7" y1="475.91" x2="357.47" y2="479.89"/>
    <line class="cls-1" x1="383.7" y1="475.91" x2="384.73" y2="476.98"/>
    <line class="cls-1" x1="384.73" y1="476.98" x2="384.73" y2="430.5"/>
    <line class="cls-1" x1="384.73" y1="430.5" x2="383.7" y2="430.19"/>
    <line class="cls-1" x1="383.7" y1="430.19" x2="383.7" y2="475.91"/>
    <line class="cls-1" x1="301.49" y1="488.4" x2="302.52" y2="489.47"/>
    <line class="cls-1" x1="302.52" y1="489.47" x2="302.52" y2="444.98"/>
    <line class="cls-1" x1="302.52" y1="444.98" x2="301.49" y2="445.6"/>
    <line class="cls-1" x1="301.49" y1="445.6" x2="301.49" y2="488.4"/>
    <line class="cls-1" x1="101.27" y1="453.98" x2="101.27" y2="364.48"/>
    <line class="cls-1" x1="101.53" y1="454.25" x2="101.27" y2="453.98"/>
    <line class="cls-1" x1="142.53" y1="496.77" x2="101.53" y2="454.25"/>
    <line class="cls-1" x1="101.27" y1="463.31" x2="251.42" y2="619"/>
    <line class="cls-1" x1="101.27" y1="463.31" x2="101.27" y2="457.04"/>
    <line class="cls-1" x1="101.27" y1="457.04" x2="101.27" y2="453.98"/>
    <line class="cls-1" x1="444.99" y1="561.88" x2="249.08" y2="591.64"/>
    <line class="cls-1" x1="251.42" y1="619" x2="467.2" y2="586.23"/>
    <line class="cls-1" x1="251.42" y1="609.68" x2="467.2" y2="576.9"/>
    <line class="cls-1" x1="467.2" y1="576.9" x2="458.12" y2="567.48"/>
    <line class="cls-1" x1="467.2" y1="586.23" x2="467.2" y2="576.9"/>
    <line class="cls-1" x1="251.42" y1="609.68" x2="142.53" y2="496.77"/>
    <line class="cls-1" x1="250.59" y1="591.11" x2="250.59" y2="514.27"/>
    <line class="cls-1" x1="251.44" y1="514.14" x2="251.44" y2="590.98"/>
    <line class="cls-1" x1="275.33" y1="579.88" x2="251.44" y2="583.52"/>
    <line class="cls-1" x1="275.33" y1="516.61" x2="275.33" y2="579.88"/>
    <line class="cls-1" x1="251.44" y1="583.62" x2="275.42" y2="579.98"/>
    <line class="cls-1" x1="275.42" y1="581.46" x2="251.44" y2="585.11"/>
    <line class="cls-1" x1="275.42" y1="579.98" x2="275.33" y2="579.88"/>
    <line class="cls-1" x1="302.01" y1="576.34" x2="277.53" y2="580.06"/>
    <line class="cls-1" x1="302.01" y1="512.56" x2="302.01" y2="576.34"/>
    <line class="cls-1" x1="275.85" y1="580.42" x2="275.85" y2="516.53"/>
    <line class="cls-1" x1="277.53" y1="516.27" x2="277.53" y2="580.16"/>
    <line class="cls-1" x1="275.42" y1="579.98" x2="275.42" y2="516.6"/>
    <line class="cls-1" x1="275.85" y1="581.91" x2="275.85" y2="580.42"/>
    <line class="cls-1" x1="277.53" y1="580.16" x2="302.09" y2="576.43"/>
    <line class="cls-1" x1="302.09" y1="577.92" x2="275.85" y2="581.91"/>
    <line class="cls-1" x1="275.42" y1="581.46" x2="275.42" y2="579.98"/>
    <line class="cls-1" x1="275.85" y1="581.91" x2="275.42" y2="581.46"/>
    <line class="cls-1" x1="302.09" y1="576.43" x2="302.01" y2="576.34"/>
    <line class="cls-1" x1="328.68" y1="572.8" x2="304.21" y2="576.52"/>
    <line class="cls-1" x1="328.68" y1="508.88" x2="328.68" y2="572.8"/>
    <line class="cls-1" x1="330.45" y1="508.61" x2="330.45" y2="572.64"/>
    <line class="cls-1" x1="328.77" y1="572.89" x2="328.77" y2="508.86"/>
    <line class="cls-1" x1="302.52" y1="576.88" x2="302.52" y2="512.85"/>
    <line class="cls-1" x1="304.21" y1="512.59" x2="304.21" y2="576.62"/>
    <line class="cls-1" x1="302.09" y1="576.43" x2="302.09" y2="512.55"/>
    <line class="cls-1" x1="302.52" y1="578.37" x2="302.52" y2="576.88"/>
    <line class="cls-1" x1="304.21" y1="576.62" x2="328.77" y2="572.89"/>
    <line class="cls-1" x1="302.09" y1="577.92" x2="302.09" y2="576.43"/>
    <line class="cls-1" x1="302.52" y1="578.37" x2="302.09" y2="577.92"/>
    <line class="cls-1" x1="328.77" y1="572.89" x2="328.68" y2="572.8"/>
    <line class="cls-1" x1="330.45" y1="508.24" x2="330.45" y2="508.61"/>
    <line class="cls-1" x1="328.77" y1="508.86" x2="304.21" y2="512.59"/>
    <line class="cls-1" x1="302.52" y1="512.85" x2="302.52" y2="512.48"/>
    <line class="cls-1" x1="330.45" y1="574.13" x2="330.45" y2="572.64"/>
    <line class="cls-1" x1="251.44" y1="586.13" x2="330.45" y2="574.13"/>
    <line class="cls-1" x1="331.63" y1="575.73" x2="331.63" y2="575.44"/>
    <line class="cls-1" x1="331.63" y1="575.44" x2="331.63" y2="508.06"/>
    <line class="cls-1" x1="334.21" y1="578.41" x2="334.21" y2="501.57"/>
    <line class="cls-1" x1="335.05" y1="578.28" x2="335.05" y2="501.44"/>
    <line class="cls-1" x1="357.47" y1="498.04" x2="357.47" y2="574.88"/>
    <line class="cls-1" x1="383.9" y1="563.53" x2="357.47" y2="567.54"/>
    <line class="cls-1" x1="383.9" y1="500.12" x2="383.9" y2="563.53"/>
    <line class="cls-1" x1="357.47" y1="567.77" x2="384.09" y2="563.72"/>
    <line class="cls-1" x1="384.09" y1="565.22" x2="357.47" y2="569.26"/>
    <line class="cls-1" x1="384.09" y1="563.72" x2="383.9" y2="563.53"/>
    <line class="cls-1" x1="434.61" y1="556.59" x2="386.42" y2="563.91"/>
    <line class="cls-1" x1="434.61" y1="492.79" x2="434.61" y2="556.59"/>
    <line class="cls-1" x1="436.49" y1="492.5" x2="436.49" y2="556.53"/>
    <line class="cls-1" x1="434.8" y1="556.79" x2="434.8" y2="492.76"/>
    <line class="cls-1" x1="384.73" y1="564.39" x2="384.73" y2="500.36"/>
    <line class="cls-1" x1="386.42" y1="500.11" x2="386.42" y2="564.14"/>
    <line class="cls-1" x1="384.09" y1="563.72" x2="384.09" y2="500.09"/>
    <line class="cls-1" x1="384.73" y1="565.88" x2="384.73" y2="564.39"/>
    <line class="cls-1" x1="386.42" y1="564.14" x2="434.8" y2="556.79"/>
    <line class="cls-1" x1="384.09" y1="565.22" x2="384.09" y2="563.72"/>
    <line class="cls-1" x1="384.73" y1="565.88" x2="384.09" y2="565.22"/>
    <line class="cls-1" x1="434.8" y1="556.79" x2="434.61" y2="556.59"/>
    <line class="cls-1" x1="436.49" y1="492.13" x2="436.49" y2="492.5"/>
    <line class="cls-1" x1="434.8" y1="492.76" x2="386.42" y2="500.11"/>
    <line class="cls-1" x1="384.73" y1="500.36" x2="384.73" y2="500"/>
    <line class="cls-1" x1="436.49" y1="558.02" x2="436.49" y2="556.53"/>
    <line class="cls-1" x1="357.47" y1="570.02" x2="436.49" y2="558.02"/>
    <line class="cls-1" x1="437.67" y1="559.63" x2="437.67" y2="559.33"/>
    <line class="cls-1" x1="437.67" y1="559.33" x2="437.67" y2="491.95"/>
    <line class="cls-1" x1="440.25" y1="562.3" x2="440.25" y2="485.46"/>
    <line class="cls-1" x1="441.09" y1="562.18" x2="441.09" y2="485.34"/>
    <line class="cls-1" x1="151.93" y1="442.18" x2="151.93" y2="496.19"/>
    <line class="cls-1" x1="145.25" y1="435.26" x2="145.25" y2="497.21"/>
    <line class="cls-1" x1="151.93" y1="496.19" x2="145.25" y2="497.21"/>
    <line class="cls-1" x1="154.84" y1="445.2" x2="154.84" y2="496.21"/>
    <line class="cls-1" x1="154.84" y1="496.21" x2="152.31" y2="496.59"/>
    <line class="cls-1" x1="152.31" y1="442.58" x2="152.31" y2="496.59"/>
    <line class="cls-1" x1="152.31" y1="496.59" x2="151.93" y2="496.19"/>
    <line class="cls-1" x1="156.34" y1="508.7" x2="156.34" y2="446.76"/>
    <line class="cls-1" x1="156.34" y1="446.76" x2="145.25" y2="435.26"/>
    <line class="cls-1" x1="154.84" y1="496.21" x2="156.34" y2="497.76"/>
    <line class="cls-1" x1="156.34" y1="508.7" x2="145.25" y2="497.21"/>
    <line class="cls-1" x1="101.27" y1="331.75" x2="101.27" y2="364.48"/>
    <line class="cls-1" x1="329.75" y1="428.59" x2="329.75" y2="484.4"/>
    <line class="cls-1" x1="330.79" y1="485.47" x2="329.75" y2="484.4"/>
    <line class="cls-1" x1="330.79" y1="485.47" x2="330.79" y2="427.97"/>
    <line class="cls-1" x1="331.63" y1="486.83" x2="331.63" y2="427.46"/>
    <line class="cls-1" x1="250.59" y1="475.4" x2="250.59" y2="475.4"/>
    <line class="cls-1" x1="435.79" y1="468.3" x2="435.79" y2="445.73"/>
    <line class="cls-1" x1="436.83" y1="446.04" x2="436.83" y2="469.37"/>
    <line class="cls-1" x1="436.83" y1="469.37" x2="435.79" y2="468.3"/>
    <line class="cls-1" x1="437.67" y1="446.29" x2="437.67" y2="470.73"/>
    <line class="cls-1" x1="242.33" y1="600.25" x2="242.33" y2="477.69"/>
    <line class="cls-1" x1="242.33" y1="600.25" x2="249.08" y2="599.23"/>
    <line class="cls-1" x1="249.08" y1="599.23" x2="249.08" y2="473.63"/>
    <line class="cls-1" x1="451.38" y1="568.51" x2="451.38" y2="442.91"/>
    <line class="cls-1" x1="458.12" y1="567.48" x2="458.12" y2="444.92"/>
    <line class="cls-1" x1="453.73" y1="431.01" x2="317.06" y2="289.29"/>
    <line class="cls-1" x1="317.06" y1="289.29" x2="209.16" y2="257.11"/>
    <line class="cls-1" x1="345.84" y1="398.84" x2="209.16" y2="257.11"/>
    <line class="cls-1" x1="209.16" y1="257.11" x2="101.27" y2="322.06"/>
    <line class="cls-1" x1="101.27" y1="322.06" x2="237.95" y2="463.79"/>
    <line class="cls-1" x1="101.27" y1="323.06" x2="101.27" y2="322.06"/>
    <line class="cls-1" x1="101.27" y1="323.9" x2="101.27" y2="323.06"/>
    <line class="cls-1" x1="101.27" y1="324.3" x2="101.27" y2="323.9"/>
    <line class="cls-1" x1="101.27" y1="330.82" x2="101.27" y2="324.3"/>
    <line class="cls-1" x1="101.27" y1="331.75" x2="101.27" y2="330.82"/>
    <line class="cls-1" x1="458.12" y1="444.92" x2="458.12" y2="444.32"/>
    <line class="cls-1" x1="451.38" y1="442.91" x2="350.23" y2="412.75"/>
    <line class="cls-1" x1="458.12" y1="444.32" x2="458.12" y2="437.8"/>
    <line class="cls-1" x1="458.12" y1="437.8" x2="458.12" y2="437.4"/>
    <line class="cls-1" x1="458.12" y1="437.4" x2="458.12" y2="436.56"/>
    <line class="cls-1" x1="350.23" y1="403.39" x2="458.12" y2="435.56"/>
    <line class="cls-1" x1="458.12" y1="435.56" x2="453.73" y2="431.01"/>
    <line class="cls-1" x1="458.12" y1="436.56" x2="458.12" y2="435.56"/>
    <line class="cls-1" x1="237.95" y1="463.79" x2="242.33" y2="468.34"/>
    <line class="cls-1" x1="242.33" y1="468.34" x2="350.23" y2="403.39"/>
    <line class="cls-1" x1="350.23" y1="403.39" x2="345.84" y2="398.84"/>
    <line class="cls-1" x1="242.33" y1="469.34" x2="242.33" y2="468.34"/>
    <line class="cls-1" x1="242.33" y1="470.17" x2="242.33" y2="469.34"/>
    <line class="cls-1" x1="242.33" y1="470.57" x2="242.33" y2="470.17"/>
    <line class="cls-1" x1="242.33" y1="477.09" x2="242.33" y2="470.57"/>
    <line class="cls-1" x1="350.23" y1="412.75" x2="249.08" y2="473.63"/>
    <line class="cls-1" x1="242.33" y1="477.69" x2="242.33" y2="477.09"/>
    <line class="cls-1" x1="333.63" y1="500.97" x2="333.63" y2="488.91"/>
    <line class="cls-1" x1="439.67" y1="484.86" x2="439.67" y2="472.8"/>
    <line class="cls-1" x1="439.67" y1="484.86" x2="439.67" y2="491.65"/>
    <line class="cls-1" x1="439.67" y1="491.65" x2="357.47" y2="504.13"/>
    <line class="cls-1" x1="333.63" y1="507.76" x2="251.44" y2="520.24"/>
    <line class="cls-1" x1="333.63" y1="507.76" x2="333.63" y2="500.97"/>
    <line class="cls-1" x1="215.24" y1="378.05" x2="224.65" y2="387.81"/>
    <line class="cls-1" x1="224.65" y1="387.81" x2="226.45" y2="386.73"/>
    <line class="cls-1" x1="258.59" y1="367.38" x2="249.18" y2="357.62"/>
    <line class="cls-1" x1="249.18" y1="357.62" x2="215.24" y2="378.05"/>
    <line class="cls-1" x1="215.05" y1="380.66" x2="225.49" y2="391.49"/>
    <line class="cls-1" x1="225.49" y1="391.49" x2="261.84" y2="369.61"/>
    <line class="cls-1" x1="213.52" y1="378.24" x2="223.96" y2="389.07"/>
    <line class="cls-1" x1="223.96" y1="389.07" x2="260.31" y2="367.19"/>
    <line class="cls-1" x1="260.31" y1="367.19" x2="249.87" y2="356.36"/>
    <line class="cls-1" x1="249.87" y1="356.36" x2="213.52" y2="378.24"/>
    <line class="cls-1" x1="258.59" y1="367.38" x2="226.45" y2="386.73"/>
    <line class="cls-1" x1="215.05" y1="380.66" x2="213.52" y2="378.24"/>
    <line class="cls-1" x1="225.49" y1="391.49" x2="223.96" y2="389.07"/>
    <line class="cls-1" x1="261.84" y1="369.61" x2="260.31" y2="367.19"/>
    <line class="cls-1" x1="384.73" y1="476.98" x2="386.42" y2="476.73"/>
    <line class="cls-1" x1="386.42" y1="476.73" x2="386.42" y2="431.01"/>
    <line class="cls-1" x1="384.73" y1="476.98" x2="384.73" y2="430.5"/>
    <line class="cls-1" x1="302.52" y1="489.47" x2="304.21" y2="489.21"/>
    <line class="cls-1" x1="304.21" y1="489.21" x2="304.21" y2="443.97"/>
    <line class="cls-1" x1="302.52" y1="489.47" x2="302.52" y2="444.98"/>
    <line class="cls-1" x1="251.44" y1="514.14" x2="251.44" y2="502.08"/>
    <line class="cls-1" x1="334.21" y1="501.57" x2="334.21" y2="489.51"/>
    <line class="cls-1" x1="357.47" y1="498.04" x2="357.47" y2="485.98"/>
    <line class="cls-1" x1="440.25" y1="485.46" x2="440.25" y2="473.4"/>
    <line class="cls-1" x1="251.42" y1="609.68" x2="251.42" y2="619"/>
    <line class="cls-1" x1="451.38" y1="568.51" x2="444.99" y2="561.88"/>
    <line class="cls-1" x1="444.99" y1="561.88" x2="444.99" y2="441"/>
    <line class="cls-1" x1="451.38" y1="568.51" x2="458.12" y2="567.48"/>
  </g>
  <line class="cls-3" x1="209.74" y1="256.77" x2="100.25" y2="322.67"/>
  <line class="cls-3" x1="101.27" y1="463.93" x2="101.27" y2="321.51"/>
  <line class="cls-3" x1="317.45" y1="289.4" x2="208.17" y2="256.82"/>
  <line class="cls-3" x1="458.62" y1="436.08" x2="316.66" y2="288.87"/>
  <line class="cls-3" x1="252.13" y1="619.74" x2="100.71" y2="462.73"/>
  <line class="cls-3" x1="468.75" y1="586" x2="250.77" y2="619.1"/>
  <line class="cls-3" x1="467.2" y1="576.02" x2="467.2" y2="587.12"/>
  <line class="cls-3" x1="457.8" y1="567.16" x2="467.82" y2="577.18"/>
  <line class="cls-3" x1="458.27" y1="568.38" x2="458.12" y2="434.85"/>
</svg>