<?xml version="1.0" encoding="UTF-8"?>
<svg id="Warstwa_1" xmlns="http://www.w3.org/2000/svg" xmlns:xlink="http://www.w3.org/1999/xlink" viewBox="0 0 542 816">
  <defs>
    <style>
      .cls-1 {
        stroke-linecap: round;
        stroke-linejoin: round;
        stroke-width: 0.4px;
      }

      .cls-1, .cls-2, .cls-3 {
        fill: none;
      }

      .cls-1, .cls-3 {
        stroke: #000;
      }

      .cls-2 {
        clip-rule: evenodd;
      }

      .cls-3 {
        stroke-miterlimit: 10;
        stroke-width: 3.5px;
      }

      .cls-4 {
        clip-path: url(#clippath);
      }
    </style>
    <clipPath id="clippath">
      <polyline class="cls-2" points="0 0 542 0 542 816 0 816 0 0"/>
    </clipPath>
  </defs>
  <g class="cls-4">
    <line class="cls-1" x1="145.04" y1="346.04" x2="145.04" y2="347.86"/>
    <line class="cls-1" x1="266.67" y1="440.46" x2="334.75" y2="430.12"/>
    <line class="cls-1" x1="266.67" y1="530.65" x2="345.44" y2="518.69"/>
    <line class="cls-1" x1="336.17" y1="430.9" x2="336.17" y2="442.96"/>
    <line class="cls-1" x1="266.67" y1="523.24" x2="290.64" y2="519.61"/>
    <line class="cls-1" x1="290.64" y1="521.09" x2="266.67" y2="524.73"/>
    <line class="cls-1" x1="331.57" y1="450.12" x2="331.57" y2="514.15"/>
    <line class="cls-1" x1="329.89" y1="514.41" x2="329.89" y2="450.38"/>
    <line class="cls-1" x1="291.28" y1="520.27" x2="291.28" y2="456.24"/>
    <line class="cls-1" x1="292.97" y1="455.98" x2="292.97" y2="520.02"/>
    <line class="cls-1" x1="290.64" y1="519.61" x2="290.64" y2="455.97"/>
    <line class="cls-1" x1="291.28" y1="521.76" x2="291.28" y2="520.27"/>
    <line class="cls-1" x1="292.97" y1="520.02" x2="329.89" y2="514.41"/>
    <line class="cls-1" x1="290.64" y1="521.09" x2="290.64" y2="519.61"/>
    <line class="cls-1" x1="291.28" y1="521.76" x2="290.64" y2="521.09"/>
    <line class="cls-1" x1="331.57" y1="449.76" x2="331.57" y2="450.12"/>
    <line class="cls-1" x1="329.89" y1="450.38" x2="292.97" y2="455.98"/>
    <line class="cls-1" x1="291.28" y1="456.24" x2="291.28" y2="455.88"/>
    <line class="cls-1" x1="266.67" y1="525.5" x2="331.57" y2="515.64"/>
    <line class="cls-1" x1="331.57" y1="515.64" x2="331.57" y2="514.15"/>
    <line class="cls-1" x1="335.33" y1="519.93" x2="335.33" y2="443.09"/>
    <line class="cls-1" x1="332.75" y1="517.25" x2="332.75" y2="516.95"/>
    <line class="cls-1" x1="332.75" y1="516.95" x2="332.75" y2="449.58"/>
    <line class="cls-1" x1="336.17" y1="519.8" x2="336.17" y2="442.96"/>
    <line class="cls-1" x1="336.17" y1="519.8" x2="266.67" y2="530.35"/>
    <line class="cls-1" x1="93.87" y1="455.62" x2="92.58" y2="455.81"/>
    <line class="cls-1" x1="92.58" y1="455.81" x2="92.58" y2="381.3"/>
    <line class="cls-1" x1="91.3" y1="454.47" x2="91.3" y2="379.96"/>
    <line class="cls-1" x1="91.3" y1="452.94" x2="90.01" y2="453.14"/>
    <line class="cls-1" x1="90.01" y1="453.14" x2="90.01" y2="378.63"/>
    <line class="cls-1" x1="89.67" y1="452.78" x2="90.01" y2="453.14"/>
    <line class="cls-1" x1="88.72" y1="451.8" x2="88.72" y2="377.29"/>
    <line class="cls-1" x1="88.72" y1="450.27" x2="87.43" y2="450.46"/>
    <line class="cls-1" x1="87.43" y1="450.46" x2="87.43" y2="375.95"/>
    <line class="cls-1" x1="86.14" y1="449.12" x2="86.14" y2="374.62"/>
    <line class="cls-1" x1="106.77" y1="468.98" x2="105.48" y2="469.18"/>
    <line class="cls-1" x1="105.48" y1="469.18" x2="105.48" y2="394.67"/>
    <line class="cls-1" x1="104.19" y1="467.84" x2="104.19" y2="393.34"/>
    <line class="cls-1" x1="101.61" y1="465.17" x2="101.61" y2="390.66"/>
    <line class="cls-1" x1="102.9" y1="466.51" x2="104.19" y2="466.31"/>
    <line class="cls-1" x1="102.9" y1="466.51" x2="102.9" y2="392"/>
    <line class="cls-1" x1="101.61" y1="463.64" x2="100.32" y2="463.83"/>
    <line class="cls-1" x1="100.32" y1="463.83" x2="100.32" y2="389.32"/>
    <line class="cls-1" x1="99.03" y1="462.5" x2="99.03" y2="387.99"/>
    <line class="cls-1" x1="99.03" y1="460.96" x2="97.74" y2="461.16"/>
    <line class="cls-1" x1="97.74" y1="461.16" x2="97.74" y2="386.65"/>
    <line class="cls-1" x1="96.45" y1="459.82" x2="96.45" y2="385.31"/>
    <line class="cls-1" x1="96.45" y1="458.29" x2="95.16" y2="458.48"/>
    <line class="cls-1" x1="95.16" y1="458.48" x2="95.16" y2="383.98"/>
    <line class="cls-1" x1="93.87" y1="457.15" x2="93.87" y2="382.64"/>
    <line class="cls-1" x1="109.35" y1="471.66" x2="108.06" y2="471.86"/>
    <line class="cls-1" x1="108.06" y1="471.86" x2="108.06" y2="397.35"/>
    <line class="cls-1" x1="106.77" y1="470.52" x2="106.77" y2="396.01"/>
    <line class="cls-1" x1="266.67" y1="435.37" x2="290.25" y2="431.79"/>
    <line class="cls-1" x1="290.25" y1="431.79" x2="290.25" y2="404.78"/>
    <line class="cls-1" x1="291.28" y1="432.86" x2="290.25" y2="431.79"/>
    <line class="cls-1" x1="292.97" y1="432.61" x2="292.97" y2="401.96"/>
    <line class="cls-1" x1="291.28" y1="403.71" x2="291.28" y2="432.86"/>
    <line class="cls-1" x1="292.97" y1="431.38" x2="330.54" y2="425.67"/>
    <line class="cls-1" x1="330.54" y1="425.67" x2="330.54" y2="395.03"/>
    <line class="cls-1" x1="331.57" y1="426.74" x2="330.54" y2="425.67"/>
    <line class="cls-1" x1="331.57" y1="394.87" x2="331.57" y2="426.74"/>
    <line class="cls-1" x1="331.57" y1="426.74" x2="292.97" y2="432.61"/>
    <line class="cls-1" x1="291.28" y1="432.86" x2="266.67" y2="436.6"/>
    <line class="cls-1" x1="335.33" y1="395.71" x2="335.33" y2="448.45"/>
    <line class="cls-1" x1="332.75" y1="394.69" x2="332.75" y2="428.05"/>
    <line class="cls-1" x1="336.17" y1="430.9" x2="336.17" y2="396.33"/>
    <line class="cls-1" x1="259.93" y1="435.4" x2="259.93" y2="436.16"/>
    <line class="cls-1" x1="257.35" y1="433.49" x2="255.67" y2="431.75"/>
    <line class="cls-1" x1="254.38" y1="430.42" x2="252.9" y2="428.88"/>
    <line class="cls-1" x1="251.61" y1="427.54" x2="250.13" y2="426"/>
    <line class="cls-1" x1="248.84" y1="424.66" x2="247.36" y2="423.13"/>
    <line class="cls-1" x1="246.07" y1="421.79" x2="244.59" y2="420.25"/>
    <line class="cls-1" x1="243.3" y1="418.92" x2="241.88" y2="417.44"/>
    <line class="cls-1" x1="314.04" y1="380.14" x2="266.67" y2="429.18"/>
    <line class="cls-1" x1="361.42" y1="414.79" x2="314.04" y2="380.14"/>
    <line class="cls-1" x1="368.16" y1="418.97" x2="368.16" y2="419.73"/>
    <line class="cls-1" x1="368.16" y1="410.25" x2="368.16" y2="410.75"/>
    <line class="cls-1" x1="368.16" y1="409.2" x2="368.16" y2="410.25"/>
    <line class="cls-1" x1="259.93" y1="424.37" x2="259.93" y2="435.4"/>
    <line class="cls-1" x1="368.16" y1="410.75" x2="368.16" y2="418.97"/>
    <line class="cls-1" x1="259.93" y1="424.37" x2="314.04" y2="368.35"/>
    <line class="cls-1" x1="294.7" y1="348.3" x2="314.04" y2="368.35"/>
    <line class="cls-1" x1="240.59" y1="404.31" x2="259.93" y2="424.37"/>
    <line class="cls-1" x1="314.04" y1="368.35" x2="368.16" y2="407.93"/>
    <line class="cls-1" x1="368.16" y1="407.93" x2="348.82" y2="387.88"/>
    <line class="cls-1" x1="368.16" y1="407.93" x2="368.16" y2="409.2"/>
    <line class="cls-1" x1="145.04" y1="305.24" x2="240.59" y2="404.31"/>
    <line class="cls-1" x1="294.7" y1="348.3" x2="199.16" y2="249.22"/>
    <line class="cls-1" x1="199.16" y1="249.22" x2="145.04" y2="305.24"/>
    <line class="cls-1" x1="145.04" y1="316.27" x2="145.04" y2="305.24"/>
    <line class="cls-1" x1="145.04" y1="317.45" x2="145.04" y2="316.27"/>
    <line class="cls-1" x1="253.27" y1="288.8" x2="199.16" y2="249.22"/>
    <line class="cls-1" x1="348.82" y1="387.88" x2="253.27" y2="288.8"/>
    <line class="cls-1" x1="111.93" y1="401.36" x2="111.93" y2="475.84"/>
    <line class="cls-1" x1="153.32" y1="520.57" x2="80.98" y2="445.56"/>
    <line class="cls-1" x1="153.32" y1="520.57" x2="153.32" y2="434.72"/>
    <line class="cls-1" x1="153.32" y1="520.57" x2="217.38" y2="510.84"/>
    <line class="cls-1" x1="350.93" y1="522.88" x2="350.93" y2="407.12"/>
    <line class="cls-1" x1="352.21" y1="524.22" x2="352.21" y2="408.06"/>
    <line class="cls-1" x1="352.21" y1="524.22" x2="353.7" y2="523.99"/>
    <line class="cls-1" x1="348.15" y1="520" x2="348.15" y2="405.09"/>
    <line class="cls-1" x1="349.44" y1="521.34" x2="349.44" y2="406.04"/>
    <line class="cls-1" x1="349.44" y1="521.34" x2="350.93" y2="521.12"/>
    <line class="cls-1" x1="345.44" y1="518.69" x2="345.44" y2="403.11"/>
    <line class="cls-1" x1="346.73" y1="518.53" x2="346.73" y2="404.06"/>
    <line class="cls-1" x1="346.73" y1="518.53" x2="348.15" y2="518.32"/>
    <line class="cls-1" x1="254.38" y1="547.43" x2="254.38" y2="430.42"/>
    <line class="cls-1" x1="255.67" y1="548.77" x2="255.67" y2="431.75"/>
    <line class="cls-1" x1="257.35" y1="548.51" x2="255.67" y2="548.77"/>
    <line class="cls-1" x1="251.61" y1="544.56" x2="251.61" y2="427.54"/>
    <line class="cls-1" x1="252.9" y1="545.89" x2="252.9" y2="428.88"/>
    <line class="cls-1" x1="254.38" y1="545.67" x2="252.9" y2="545.89"/>
    <line class="cls-1" x1="248.84" y1="541.68" x2="248.84" y2="424.66"/>
    <line class="cls-1" x1="250.13" y1="543.02" x2="250.13" y2="426"/>
    <line class="cls-1" x1="251.61" y1="542.79" x2="250.13" y2="543.02"/>
    <line class="cls-1" x1="246.07" y1="538.81" x2="246.07" y2="421.79"/>
    <line class="cls-1" x1="247.33" y1="540.12" x2="247.36" y2="540.14"/>
    <line class="cls-1" x1="247.36" y1="540.14" x2="247.36" y2="423.13"/>
    <line class="cls-1" x1="248.84" y1="539.92" x2="247.36" y2="540.14"/>
    <line class="cls-1" x1="243.3" y1="535.93" x2="243.3" y2="418.92"/>
    <line class="cls-1" x1="244.59" y1="537.27" x2="244.59" y2="420.25"/>
    <line class="cls-1" x1="246.07" y1="537.04" x2="244.59" y2="537.27"/>
    <line class="cls-1" x1="241.88" y1="534.46" x2="241.88" y2="417.44"/>
    <line class="cls-1" x1="243.3" y1="534.25" x2="241.88" y2="534.46"/>
    <line class="cls-1" x1="353.7" y1="525.75" x2="353.7" y2="409.15"/>
    <line class="cls-1" x1="354.99" y1="527.09" x2="354.99" y2="410.09"/>
    <line class="cls-1" x1="354.99" y1="527.09" x2="356.47" y2="526.87"/>
    <line class="cls-1" x1="356.47" y1="528.63" x2="356.47" y2="411.18"/>
    <line class="cls-1" x1="357.76" y1="529.97" x2="357.76" y2="412.12"/>
    <line class="cls-1" x1="357.76" y1="529.97" x2="358.84" y2="529.8"/>
    <line class="cls-1" x1="257.35" y1="550.51" x2="257.35" y2="433.49"/>
    <line class="cls-1" x1="241.88" y1="534.46" x2="243.3" y2="535.93"/>
    <line class="cls-1" x1="259.93" y1="565.09" x2="259.93" y2="554.97"/>
    <line class="cls-1" x1="266.67" y1="553.94" x2="266.67" y2="429.18"/>
    <line class="cls-1" x1="358.84" y1="536.88" x2="358.84" y2="412.91"/>
    <line class="cls-1" x1="358.84" y1="536.88" x2="361.42" y2="539.55"/>
    <line class="cls-1" x1="361.42" y1="539.55" x2="361.42" y2="414.79"/>
    <line class="cls-1" x1="368.16" y1="548.65" x2="368.16" y2="419.73"/>
    <line class="cls-1" x1="145.04" y1="317.45" x2="145.04" y2="346.04"/>
    <line class="cls-1" x1="217.38" y1="431.59" x2="217.38" y2="510.84"/>
    <line class="cls-1" x1="303.32" y1="391.24" x2="324.77" y2="387.99"/>
    <line class="cls-1" x1="300.17" y1="394.51" x2="327.92" y2="390.29"/>
    <line class="cls-1" x1="325.89" y1="388.81" x2="302.19" y2="392.41"/>
    <line class="cls-1" x1="329.91" y1="391.75" x2="298.17" y2="396.57"/>
    <line class="cls-1" x1="111.93" y1="474.33" x2="110.64" y2="474.53"/>
    <line class="cls-1" x1="110.64" y1="474.53" x2="110.64" y2="400.02"/>
    <line class="cls-1" x1="109.35" y1="473.19" x2="109.35" y2="398.68"/>
    <line class="cls-1" x1="259.93" y1="554.97" x2="368.16" y2="538.53"/>
    <line class="cls-1" x1="259.93" y1="565.09" x2="368.16" y2="548.65"/>
    <line class="cls-1" x1="217.38" y1="520.97" x2="259.93" y2="565.09"/>
    <line class="cls-1" x1="217.44" y1="431.58" x2="217.44" y2="430.74"/>
    <line class="cls-1" x1="217.44" y1="430.74" x2="217.44" y2="424.93"/>
    <line class="cls-1" x1="217.44" y1="424.93" x2="217.44" y2="424.57"/>
    <line class="cls-1" x1="217.44" y1="424.57" x2="217.44" y2="423.83"/>
    <line class="cls-1" x1="111.93" y1="391.67" x2="153.38" y2="434.66"/>
    <line class="cls-1" x1="153.38" y1="434.66" x2="217.44" y2="422.94"/>
    <line class="cls-1" x1="217.44" y1="422.94" x2="175.99" y2="379.95"/>
    <line class="cls-1" x1="217.44" y1="423.83" x2="217.44" y2="422.94"/>
    <line class="cls-1" x1="333.73" y1="394.54" x2="294.36" y2="400.52"/>
    <line class="cls-1" x1="330.69" y1="392.32" x2="297.39" y2="397.38"/>
    <line class="cls-1" x1="111.93" y1="401.36" x2="110.64" y2="400.02"/>
    <line class="cls-1" x1="109.35" y1="398.68" x2="108.06" y2="397.35"/>
    <line class="cls-1" x1="106.77" y1="396.01" x2="105.48" y2="394.67"/>
    <line class="cls-1" x1="104.19" y1="393.34" x2="102.9" y2="392"/>
    <line class="cls-1" x1="101.61" y1="390.66" x2="100.32" y2="389.32"/>
    <line class="cls-1" x1="99.03" y1="387.99" x2="97.74" y2="386.65"/>
    <line class="cls-1" x1="96.45" y1="385.31" x2="95.16" y2="383.98"/>
    <line class="cls-1" x1="93.87" y1="382.64" x2="92.58" y2="381.3"/>
    <line class="cls-1" x1="91.3" y1="379.96" x2="90.01" y2="378.63"/>
    <line class="cls-1" x1="88.72" y1="377.29" x2="87.43" y2="375.95"/>
    <line class="cls-1" x1="86.14" y1="374.62" x2="84.85" y2="373.28"/>
    <line class="cls-1" x1="80.98" y1="445.56" x2="80.98" y2="367.92"/>
    <line class="cls-1" x1="86.14" y1="447.59" x2="84.85" y2="447.79"/>
    <line class="cls-1" x1="84.85" y1="447.79" x2="84.85" y2="373.28"/>
    <line class="cls-1" x1="84.85" y1="447.79" x2="86.14" y2="449.12"/>
    <line class="cls-1" x1="80.98" y1="367.92" x2="80.98" y2="361.58"/>
    <line class="cls-1" x1="80.98" y1="361.58" x2="80.98" y2="361.22"/>
    <line class="cls-1" x1="80.98" y1="361.22" x2="80.98" y2="360.47"/>
    <line class="cls-1" x1="145.04" y1="347.86" x2="80.98" y2="359.58"/>
    <line class="cls-1" x1="80.98" y1="359.58" x2="111.93" y2="391.67"/>
    <line class="cls-1" x1="175.99" y1="379.95" x2="145.04" y2="347.86"/>
    <line class="cls-1" x1="80.98" y1="360.47" x2="80.98" y2="359.58"/>
    <line class="cls-1" x1="334.75" y1="449.27" x2="266.67" y2="459.61"/>
    <line class="cls-1" x1="358.84" y1="532.57" x2="345.44" y2="518.69"/>
    <line class="cls-1" x1="358.84" y1="531.08" x2="357.76" y2="529.97"/>
    <line class="cls-1" x1="356.47" y1="528.63" x2="354.99" y2="527.09"/>
    <line class="cls-1" x1="353.7" y1="525.75" x2="352.21" y2="524.22"/>
    <line class="cls-1" x1="350.93" y1="522.88" x2="349.44" y2="521.34"/>
    <line class="cls-1" x1="348.15" y1="520" x2="346.73" y2="518.53"/>
    <line class="cls-1" x1="217.38" y1="510.84" x2="259.93" y2="554.97"/>
    <line class="cls-1" x1="255.67" y1="548.77" x2="257.35" y2="550.51"/>
    <line class="cls-1" x1="252.9" y1="545.89" x2="254.38" y2="547.43"/>
    <line class="cls-1" x1="250.13" y1="543.02" x2="251.61" y2="544.56"/>
    <line class="cls-1" x1="247.33" y1="540.12" x2="248.84" y2="541.68"/>
    <line class="cls-1" x1="244.59" y1="537.27" x2="246.07" y2="538.81"/>
    <line class="cls-1" x1="110.64" y1="474.51" x2="111.93" y2="475.84"/>
    <line class="cls-1" x1="108.06" y1="471.84" x2="109.35" y2="473.17"/>
    <line class="cls-1" x1="105.48" y1="469.16" x2="106.77" y2="470.5"/>
    <line class="cls-1" x1="102.9" y1="466.49" x2="104.19" y2="467.83"/>
    <line class="cls-1" x1="100.32" y1="463.82" x2="101.61" y2="465.15"/>
    <line class="cls-1" x1="97.74" y1="461.15" x2="99.03" y2="462.48"/>
    <line class="cls-1" x1="95.16" y1="458.48" x2="96.45" y2="459.81"/>
    <line class="cls-1" x1="92.58" y1="455.8" x2="93.87" y2="457.14"/>
    <line class="cls-1" x1="90.01" y1="453.13" x2="91.3" y2="454.47"/>
    <line class="cls-1" x1="87.43" y1="450.46" x2="88.72" y2="451.79"/>
    <line class="cls-1" x1="259.93" y1="554.97" x2="259.93" y2="436.16"/>
    <line class="cls-1" x1="217.38" y1="520.97" x2="217.38" y2="510.84"/>
    <line class="cls-1" x1="153.32" y1="530.7" x2="153.32" y2="520.57"/>
    <line class="cls-1" x1="80.98" y1="455.69" x2="80.98" y2="445.56"/>
    <line class="cls-1" x1="153.32" y1="530.7" x2="80.98" y2="455.69"/>
    <line class="cls-1" x1="153.32" y1="530.7" x2="217.38" y2="520.97"/>
    <line class="cls-1" x1="332.75" y1="517.25" x2="266.67" y2="527.29"/>
    <line class="cls-1" x1="334.75" y1="430.12" x2="332.75" y2="428.05"/>
    <line class="cls-1" x1="266.67" y1="438.09" x2="332.75" y2="428.05"/>
    <line class="cls-1" x1="335.33" y1="519.93" x2="332.75" y2="517.25"/>
    <line class="cls-1" x1="334.75" y1="449.27" x2="334.75" y2="430.12"/>
  </g>
  <line class="cls-3" x1="199.99" y1="248.35" x2="144.54" y2="305.75"/>
  <line class="cls-3" x1="80.13" y1="359.74" x2="146.33" y2="347.62"/>
  <line class="cls-3" x1="197.88" y1="248.29" x2="253.27" y2="288.8"/>
  <line class="cls-3" x1="368.7" y1="408.49" x2="253.06" y2="288.58"/>
  <line class="cls-3" x1="368.16" y1="549.93" x2="368.16" y2="407.28"/>
  <line class="cls-3" x1="259.34" y1="565.41" x2="369.3" y2="548.25"/>
  <line class="cls-3" x1="216.3" y1="520.13" x2="260.77" y2="565.96"/>
  <line class="cls-3" x1="152.44" y1="530.83" x2="217.73" y2="520.65"/>
  <line class="cls-3" x1="145.04" y1="349.35" x2="145.04" y2="304.43"/>
  <line class="cls-3" x1="80.98" y1="358" x2="80.98" y2="456.42"/>
  <line class="cls-3" x1="153.87" y1="531.28" x2="80.49" y2="455.18"/>
</svg>