<?xml version="1.0" encoding="UTF-8"?>
<svg id="Warstwa_1" xmlns="http://www.w3.org/2000/svg" xmlns:xlink="http://www.w3.org/1999/xlink" viewBox="0 0 542 816">
  <defs>
    <style>
      .cls-1 {
        stroke-linecap: round;
        stroke-linejoin: round;
        stroke-width: .14px;
      }

      .cls-1, .cls-2, .cls-3, .cls-4 {
        fill: none;
      }

      .cls-1, .cls-2, .cls-4 {
        stroke: #000;
      }

      .cls-2 {
        stroke-width: .15px;
      }

      .cls-2, .cls-4 {
        stroke-miterlimit: 10;
      }

      .cls-3 {
        clip-rule: evenodd;
      }

      .cls-4 {
        stroke-width: 3.5px;
      }

      .cls-5 {
        clip-path: url(#clippath);
      }
    </style>
    <clipPath id="clippath">
      <polyline class="cls-3" points="0 0 542 0 542 816 0 816 0 0"/>
    </clipPath>
  </defs>
  <g class="cls-5">
    <line class="cls-1" x1="416.28" y1="417.29" x2="416.28" y2="427.27"/>
    <line class="cls-1" x1="426.4" y1="502.87" x2="321.71" y2="518.77"/>
    <line class="cls-1" x1="310.08" y1="388.73" x2="310.08" y2="443.4"/>
    <line class="cls-1" x1="321.71" y1="518.77" x2="239.73" y2="531.22"/>
    <line class="cls-1" x1="332.5" y1="516.83" x2="332.5" y2="375.23"/>
    <line class="cls-1" x1="333.34" y1="429.89" x2="333.34" y2="516.7"/>
    <line class="cls-1" x1="333.34" y1="509.59" x2="359.96" y2="505.55"/>
    <line class="cls-1" x1="359.96" y1="507.04" x2="333.34" y2="511.08"/>
    <line class="cls-1" x1="412.52" y1="434.3" x2="412.52" y2="498.33"/>
    <line class="cls-1" x1="410.84" y1="498.59" x2="410.84" y2="434.56"/>
    <line class="cls-1" x1="360.6" y1="506.22" x2="360.6" y2="442.19"/>
    <line class="cls-1" x1="362.29" y1="441.93" x2="362.29" y2="505.96"/>
    <line class="cls-1" x1="359.96" y1="505.55" x2="359.96" y2="441.92"/>
    <line class="cls-1" x1="360.6" y1="507.71" x2="360.6" y2="506.22"/>
    <line class="cls-1" x1="362.29" y1="505.96" x2="410.84" y2="498.59"/>
    <line class="cls-1" x1="359.96" y1="507.04" x2="359.96" y2="505.55"/>
    <line class="cls-1" x1="360.6" y1="507.71" x2="359.96" y2="507.04"/>
    <line class="cls-1" x1="412.52" y1="433.94" x2="412.52" y2="434.3"/>
    <line class="cls-1" x1="410.84" y1="434.56" x2="362.29" y2="441.93"/>
    <line class="cls-1" x1="360.6" y1="442.19" x2="360.6" y2="441.82"/>
    <line class="cls-1" x1="333.34" y1="511.85" x2="412.52" y2="499.82"/>
    <line class="cls-1" x1="412.52" y1="499.82" x2="412.52" y2="498.33"/>
    <line class="cls-1" x1="416.28" y1="504.11" x2="416.28" y2="427.27"/>
    <line class="cls-1" x1="413.71" y1="501.43" x2="413.71" y2="501.13"/>
    <line class="cls-1" x1="413.71" y1="501.13" x2="413.71" y2="433.75"/>
    <line class="cls-1" x1="417.13" y1="503.98" x2="417.13" y2="392.77"/>
    <line class="cls-1" x1="417.13" y1="503.98" x2="332.5" y2="516.83"/>
    <line class="cls-1" x1="253.72" y1="522.45" x2="253.72" y2="458.42"/>
    <line class="cls-1" x1="252.03" y1="458.68" x2="252.03" y2="522.71"/>
    <line class="cls-1" x1="253.72" y1="523.94" x2="253.72" y2="522.45"/>
    <line class="cls-1" x1="252.03" y1="522.71" x2="239.73" y2="524.58"/>
    <line class="cls-1" x1="239.73" y1="526.07" x2="253.72" y2="523.94"/>
    <line class="cls-1" x1="239.73" y1="460.55" x2="252.03" y2="458.68"/>
    <line class="cls-1" x1="253.72" y1="458.42" x2="253.72" y2="458.05"/>
    <line class="cls-1" x1="279.59" y1="518.01" x2="279.59" y2="454.12"/>
    <line class="cls-1" x1="277.9" y1="454.38" x2="277.9" y2="518.27"/>
    <line class="cls-1" x1="279.59" y1="519.5" x2="279.59" y2="518.01"/>
    <line class="cls-1" x1="277.9" y1="518.27" x2="253.72" y2="521.94"/>
    <line class="cls-1" x1="253.72" y1="523.43" x2="279.59" y2="519.5"/>
    <line class="cls-1" x1="305.46" y1="513.57" x2="305.46" y2="450.2"/>
    <line class="cls-1" x1="303.77" y1="450.45" x2="303.77" y2="513.83"/>
    <line class="cls-1" x1="305.46" y1="515.06" x2="305.46" y2="513.57"/>
    <line class="cls-1" x1="303.77" y1="513.83" x2="279.59" y2="517.5"/>
    <line class="cls-1" x1="279.59" y1="518.99" x2="305.46" y2="515.06"/>
    <line class="cls-1" x1="306.32" y1="515.95" x2="253.72" y2="523.94"/>
    <line class="cls-1" x1="306.32" y1="450.07" x2="306.32" y2="515.95"/>
    <line class="cls-1" x1="306.32" y1="515.95" x2="305.46" y2="515.06"/>
    <line class="cls-1" x1="307.5" y1="517.26" x2="307.5" y2="517.56"/>
    <line class="cls-1" x1="307.5" y1="449.89" x2="307.5" y2="517.26"/>
    <line class="cls-1" x1="310.08" y1="443.4" x2="310.08" y2="520.23"/>
    <line class="cls-1" x1="310.92" y1="520.11" x2="310.92" y2="388.22"/>
    <line class="cls-1" x1="310.92" y1="520.11" x2="239.73" y2="530.92"/>
    <line class="cls-1" x1="239.73" y1="437.17" x2="278.33" y2="431.3"/>
    <line class="cls-1" x1="280.02" y1="431.05" x2="306.32" y2="427.05"/>
    <line class="cls-1" x1="305.29" y1="425.98" x2="280.02" y2="429.82"/>
    <line class="cls-1" x1="277.3" y1="430.23" x2="239.73" y2="435.94"/>
    <line class="cls-1" x1="305.29" y1="391.61" x2="305.29" y2="425.98"/>
    <line class="cls-1" x1="306.32" y1="427.05" x2="305.29" y2="425.98"/>
    <line class="cls-1" x1="306.32" y1="427.05" x2="306.32" y2="390.99"/>
    <line class="cls-1" x1="309.5" y1="430.73" x2="307.5" y2="428.66"/>
    <line class="cls-1" x1="307.5" y1="428.66" x2="307.5" y2="428.36"/>
    <line class="cls-1" x1="307.5" y1="428.36" x2="307.5" y2="390.28"/>
    <line class="cls-1" x1="310.08" y1="431.33" x2="310.08" y2="433.42"/>
    <line class="cls-1" x1="416.28" y1="392.52" x2="416.28" y2="417.29"/>
    <line class="cls-1" x1="333.34" y1="429.89" x2="333.34" y2="374.72"/>
    <line class="cls-1" x1="412.52" y1="410.92" x2="362.29" y2="418.55"/>
    <line class="cls-1" x1="360.6" y1="418.81" x2="333.34" y2="422.95"/>
    <line class="cls-1" x1="333.34" y1="421.72" x2="359.57" y2="417.74"/>
    <line class="cls-1" x1="362.29" y1="417.33" x2="411.49" y2="409.85"/>
    <line class="cls-1" x1="411.49" y1="409.85" x2="411.49" y2="391.09"/>
    <line class="cls-1" x1="412.52" y1="391.4" x2="412.52" y2="410.92"/>
    <line class="cls-1" x1="412.52" y1="410.92" x2="411.49" y2="409.85"/>
    <line class="cls-1" x1="413.71" y1="412.23" x2="413.71" y2="412.53"/>
    <line class="cls-1" x1="413.71" y1="391.75" x2="413.71" y2="412.23"/>
    <line class="cls-1" x1="413.71" y1="412.53" x2="415.7" y2="414.6"/>
    <line class="cls-1" x1="429.77" y1="372.89" x2="334.22" y2="273.82"/>
    <line class="cls-1" x1="334.22" y1="273.82" x2="226.16" y2="241.59"/>
    <line class="cls-1" x1="118.1" y1="308.55" x2="118.1" y2="308.48"/>
    <line class="cls-1" x1="118.1" y1="306.64" x2="213.65" y2="405.71"/>
    <line class="cls-1" x1="118.1" y1="307.64" x2="118.1" y2="306.64"/>
    <line class="cls-1" x1="226.16" y1="241.59" x2="118.1" y2="306.64"/>
    <line class="cls-1" x1="321.71" y1="340.67" x2="226.16" y2="241.59"/>
    <line class="cls-1" x1="118.1" y1="308.48" x2="118.1" y2="307.64"/>
    <line class="cls-1" x1="118.1" y1="315.4" x2="118.1" y2="308.48"/>
    <line class="cls-1" x1="118.1" y1="316.33" x2="118.1" y2="315.4"/>
    <line class="cls-1" x1="449.11" y1="402.31" x2="449.11" y2="401.7"/>
    <line class="cls-1" x1="442.37" y1="400.29" x2="341.05" y2="370.08"/>
    <line class="cls-1" x1="449.11" y1="401.7" x2="449.11" y2="395.19"/>
    <line class="cls-1" x1="449.11" y1="395.19" x2="449.11" y2="394.79"/>
    <line class="cls-1" x1="449.11" y1="394.79" x2="449.11" y2="393.95"/>
    <line class="cls-1" x1="341.05" y1="360.72" x2="449.11" y2="392.95"/>
    <line class="cls-1" x1="449.11" y1="392.95" x2="429.77" y2="372.89"/>
    <line class="cls-1" x1="449.11" y1="393.95" x2="449.11" y2="392.95"/>
    <line class="cls-1" x1="213.65" y1="405.71" x2="232.99" y2="425.77"/>
    <line class="cls-1" x1="232.99" y1="425.77" x2="341.05" y2="360.72"/>
    <line class="cls-1" x1="341.05" y1="360.72" x2="321.71" y2="340.67"/>
    <line class="cls-1" x1="232.99" y1="426.77" x2="232.99" y2="425.77"/>
    <line class="cls-1" x1="232.99" y1="427.61" x2="232.99" y2="426.77"/>
    <line class="cls-1" x1="232.99" y1="428.01" x2="232.99" y2="427.61"/>
    <line class="cls-1" x1="232.99" y1="434.53" x2="232.99" y2="428.01"/>
    <line class="cls-1" x1="232.99" y1="555.53" x2="232.99" y2="434.53"/>
    <line class="cls-1" x1="341.05" y1="370.08" x2="239.73" y2="431.07"/>
    <line class="cls-1" x1="230.41" y1="432.46" x2="228.86" y2="430.85"/>
    <line class="cls-1" x1="227.57" y1="429.51" x2="226.09" y2="427.98"/>
    <line class="cls-1" x1="224.8" y1="426.64" x2="223.32" y2="425.1"/>
    <line class="cls-1" x1="222.03" y1="423.77" x2="220.55" y2="422.23"/>
    <line class="cls-1" x1="219.26" y1="420.89" x2="217.77" y2="419.35"/>
    <line class="cls-1" x1="216.48" y1="418.02" x2="215" y2="416.48"/>
    <line class="cls-1" x1="230.41" y1="551.07" x2="230.41" y2="432.46"/>
    <line class="cls-1" x1="190.44" y1="511.41" x2="232.99" y2="555.53"/>
    <line class="cls-1" x1="232.99" y1="565.66" x2="232.99" y2="555.53"/>
    <line class="cls-1" x1="239.73" y1="554.51" x2="239.73" y2="431.07"/>
    <line class="cls-1" x1="439.79" y1="521.06" x2="439.79" y2="399.53"/>
    <line class="cls-1" x1="439.79" y1="521.06" x2="442.37" y2="523.73"/>
    <line class="cls-1" x1="442.37" y1="523.73" x2="442.37" y2="400.29"/>
    <line class="cls-1" x1="449.11" y1="532.83" x2="449.11" y2="402.31"/>
    <line class="cls-1" x1="437.55" y1="512.94" x2="437.55" y2="398.86"/>
    <line class="cls-1" x1="438.84" y1="514.28" x2="438.84" y2="399.24"/>
    <line class="cls-1" x1="438.84" y1="514.28" x2="439.79" y2="514.14"/>
    <line class="cls-1" x1="434.78" y1="510.07" x2="434.78" y2="398.03"/>
    <line class="cls-1" x1="436.07" y1="511.4" x2="436.07" y2="398.42"/>
    <line class="cls-1" x1="436.07" y1="511.4" x2="437.55" y2="511.18"/>
    <line class="cls-1" x1="432.01" y1="507.19" x2="432.01" y2="397.2"/>
    <line class="cls-1" x1="433.3" y1="508.53" x2="433.3" y2="397.59"/>
    <line class="cls-1" x1="433.3" y1="508.53" x2="434.78" y2="508.31"/>
    <line class="cls-1" x1="227.57" y1="548.13" x2="227.57" y2="429.51"/>
    <line class="cls-1" x1="228.86" y1="549.47" x2="228.86" y2="430.85"/>
    <line class="cls-1" x1="230.41" y1="549.23" x2="228.86" y2="549.47"/>
    <line class="cls-1" x1="224.8" y1="545.26" x2="224.8" y2="426.64"/>
    <line class="cls-1" x1="226.09" y1="546.59" x2="226.09" y2="427.98"/>
    <line class="cls-1" x1="227.57" y1="546.37" x2="226.09" y2="546.59"/>
    <line class="cls-1" x1="222.03" y1="542.38" x2="222.03" y2="423.77"/>
    <line class="cls-1" x1="223.32" y1="543.72" x2="223.32" y2="425.1"/>
    <line class="cls-1" x1="224.8" y1="543.49" x2="223.32" y2="543.72"/>
    <line class="cls-1" x1="219.26" y1="539.5" x2="219.26" y2="420.89"/>
    <line class="cls-1" x1="220.55" y1="540.84" x2="220.55" y2="422.23"/>
    <line class="cls-1" x1="222.03" y1="540.62" x2="220.55" y2="540.84"/>
    <line class="cls-1" x1="216.48" y1="536.63" x2="216.48" y2="418.02"/>
    <line class="cls-1" x1="217.77" y1="537.97" x2="217.77" y2="419.35"/>
    <line class="cls-1" x1="219.26" y1="537.74" x2="217.77" y2="537.97"/>
    <line class="cls-1" x1="215" y1="535.09" x2="215" y2="416.48"/>
    <line class="cls-1" x1="216.48" y1="534.87" x2="215" y2="535.09"/>
    <line class="cls-1" x1="118.1" y1="348.43" x2="118.1" y2="316.33"/>
    <line class="cls-1" x1="232.99" y1="555.53" x2="449.11" y2="522.71"/>
    <line class="cls-1" x1="232.99" y1="565.66" x2="449.11" y2="532.83"/>
    <line class="cls-1" x1="190.44" y1="521.54" x2="232.99" y2="565.66"/>
    <line class="cls-1" x1="190.44" y1="432.09" x2="190.44" y2="431.25"/>
    <line class="cls-1" x1="126.38" y1="443.81" x2="126.38" y2="442.97"/>
    <line class="cls-1" x1="190.44" y1="431.25" x2="190.44" y2="425.44"/>
    <line class="cls-1" x1="126.38" y1="442.97" x2="126.38" y2="437.16"/>
    <line class="cls-1" x1="190.44" y1="425.44" x2="190.44" y2="425.08"/>
    <line class="cls-1" x1="126.38" y1="437.16" x2="126.38" y2="436.81"/>
    <line class="cls-1" x1="126.38" y1="436.81" x2="126.38" y2="436.06"/>
    <line class="cls-1" x1="190.44" y1="425.08" x2="190.44" y2="424.34"/>
    <line class="cls-1" x1="190.44" y1="424.34" x2="190.44" y2="423.45"/>
    <line class="cls-1" x1="126.38" y1="435.16" x2="190.44" y2="423.45"/>
    <line class="cls-1" x1="126.38" y1="436.06" x2="126.38" y2="435.16"/>
    <line class="cls-1" x1="84.99" y1="392.24" x2="126.38" y2="435.16"/>
    <line class="cls-1" x1="190.44" y1="423.45" x2="149.05" y2="380.53"/>
    <line class="cls-1" x1="84.99" y1="401.92" x2="84.99" y2="476.43"/>
    <line class="cls-1" x1="126.38" y1="521.14" x2="54.04" y2="446.13"/>
    <line class="cls-1" x1="126.38" y1="521.14" x2="126.38" y2="443.81"/>
    <line class="cls-1" x1="126.38" y1="521.14" x2="190.44" y2="511.41"/>
    <line class="cls-1" x1="190.44" y1="432.09" x2="190.44" y2="511.41"/>
    <line class="cls-1" x1="309.5" y1="442.79" x2="309.5" y2="430.73"/>
    <line class="cls-1" x1="309.5" y1="430.73" x2="239.73" y2="441.33"/>
    <line class="cls-1" x1="415.7" y1="426.67" x2="415.7" y2="414.6"/>
    <line class="cls-1" x1="415.7" y1="414.6" x2="333.34" y2="427.11"/>
    <line class="cls-1" x1="362.29" y1="418.55" x2="362.29" y2="376.42"/>
    <line class="cls-1" x1="360.6" y1="418.81" x2="360.6" y2="375.91"/>
    <line class="cls-1" x1="359.57" y1="417.74" x2="360.6" y2="418.81"/>
    <line class="cls-1" x1="413.71" y1="412.53" x2="333.34" y2="424.74"/>
    <line class="cls-1" x1="415.7" y1="433.45" x2="333.34" y2="445.96"/>
    <line class="cls-1" x1="415.7" y1="433.45" x2="415.7" y2="426.67"/>
    <line class="cls-1" x1="309.5" y1="449.58" x2="239.73" y2="460.18"/>
    <line class="cls-1" x1="309.5" y1="449.58" x2="309.5" y2="442.79"/>
    <line class="cls-1" x1="280.02" y1="431.05" x2="280.02" y2="406.82"/>
    <line class="cls-1" x1="278.33" y1="431.3" x2="278.33" y2="407.83"/>
    <line class="cls-1" x1="277.3" y1="430.23" x2="278.33" y2="431.3"/>
    <line class="cls-1" x1="439.79" y1="516.75" x2="426.4" y2="502.87"/>
    <line class="cls-1" x1="426.46" y1="502.93" x2="426.46" y2="501.44"/>
    <line class="cls-1" x1="54.04" y1="456.26" x2="54.04" y2="368.5"/>
    <line class="cls-1" x1="54.04" y1="368.5" x2="54.04" y2="367.96"/>
    <line class="cls-1" x1="54.04" y1="367.96" x2="54.04" y2="366.18"/>
    <line class="cls-1" x1="54.04" y1="360.16" x2="84.99" y2="392.24"/>
    <line class="cls-1" x1="149.05" y1="380.53" x2="118.1" y2="348.43"/>
    <line class="cls-1" x1="118.1" y1="348.43" x2="54.04" y2="360.16"/>
    <line class="cls-1" x1="54.04" y1="366.18" x2="54.04" y2="360.16"/>
    <line class="cls-1" x1="84.99" y1="474.9" x2="83.7" y2="475.1"/>
    <line class="cls-1" x1="83.7" y1="475.1" x2="83.7" y2="400.59"/>
    <line class="cls-1" x1="82.41" y1="473.76" x2="82.41" y2="399.25"/>
    <line class="cls-1" x1="82.41" y1="472.22" x2="81.12" y2="472.42"/>
    <line class="cls-1" x1="81.12" y1="472.42" x2="81.12" y2="397.91"/>
    <line class="cls-1" x1="79.83" y1="471.08" x2="79.83" y2="396.58"/>
    <line class="cls-1" x1="79.83" y1="469.55" x2="78.54" y2="469.75"/>
    <line class="cls-1" x1="78.54" y1="469.75" x2="78.54" y2="395.24"/>
    <line class="cls-1" x1="77.25" y1="468.41" x2="77.25" y2="393.9"/>
    <line class="cls-1" x1="74.67" y1="464.2" x2="73.38" y2="464.4"/>
    <line class="cls-1" x1="73.38" y1="464.4" x2="73.38" y2="389.89"/>
    <line class="cls-1" x1="72.09" y1="463.06" x2="72.09" y2="388.55"/>
    <line class="cls-1" x1="72.09" y1="461.53" x2="70.8" y2="461.72"/>
    <line class="cls-1" x1="70.8" y1="461.72" x2="70.8" y2="387.22"/>
    <line class="cls-1" x1="69.51" y1="460.39" x2="69.51" y2="385.88"/>
    <line class="cls-1" x1="69.51" y1="458.86" x2="68.22" y2="459.05"/>
    <line class="cls-1" x1="68.22" y1="459.05" x2="68.22" y2="384.54"/>
    <line class="cls-1" x1="66.93" y1="457.71" x2="66.93" y2="383.2"/>
    <line class="cls-1" x1="66.93" y1="456.18" x2="65.64" y2="456.38"/>
    <line class="cls-1" x1="65.64" y1="456.38" x2="65.64" y2="381.87"/>
    <line class="cls-1" x1="64.36" y1="455.04" x2="64.36" y2="380.53"/>
    <line class="cls-1" x1="64.36" y1="453.51" x2="63.07" y2="453.7"/>
    <line class="cls-1" x1="63.07" y1="453.7" x2="63.07" y2="379.19"/>
    <line class="cls-1" x1="61.78" y1="452.36" x2="61.78" y2="377.86"/>
    <line class="cls-1" x1="61.78" y1="450.83" x2="60.49" y2="451.03"/>
    <line class="cls-1" x1="60.49" y1="451.03" x2="60.49" y2="376.52"/>
    <line class="cls-1" x1="59.2" y1="449.69" x2="59.2" y2="375.18"/>
    <line class="cls-1" x1="59.2" y1="448.16" x2="57.91" y2="448.35"/>
    <line class="cls-1" x1="57.91" y1="448.35" x2="57.91" y2="373.84"/>
    <line class="cls-1" x1="57.91" y1="448.35" x2="59.2" y2="449.69"/>
    <line class="cls-1" x1="74.67" y1="465.74" x2="74.67" y2="391.23"/>
    <line class="cls-1" x1="75.96" y1="467.07" x2="77.25" y2="466.88"/>
    <line class="cls-1" x1="75.96" y1="467.07" x2="75.96" y2="392.56"/>
    <line class="cls-1" x1="84.99" y1="401.92" x2="83.7" y2="400.59"/>
    <line class="cls-1" x1="82.41" y1="399.25" x2="81.12" y2="397.91"/>
    <line class="cls-1" x1="79.83" y1="396.58" x2="78.54" y2="395.24"/>
    <line class="cls-1" x1="77.25" y1="393.9" x2="75.96" y2="392.56"/>
    <line class="cls-1" x1="74.67" y1="391.23" x2="73.38" y2="389.89"/>
    <line class="cls-1" x1="72.09" y1="388.55" x2="70.8" y2="387.22"/>
    <line class="cls-1" x1="69.51" y1="385.88" x2="68.22" y2="384.54"/>
    <line class="cls-1" x1="66.93" y1="383.2" x2="65.64" y2="381.87"/>
    <line class="cls-1" x1="64.36" y1="380.53" x2="63.07" y2="379.19"/>
    <line class="cls-1" x1="61.78" y1="377.86" x2="60.49" y2="376.52"/>
    <line class="cls-1" x1="59.2" y1="375.18" x2="57.91" y2="373.84"/>
    <line class="cls-1" x1="429.23" y1="504.32" x2="429.23" y2="396.38"/>
    <line class="cls-1" x1="430.52" y1="505.66" x2="430.52" y2="396.76"/>
    <line class="cls-1" x1="430.52" y1="505.66" x2="432.01" y2="505.43"/>
    <line class="cls-1" x1="426.46" y1="501.44" x2="426.46" y2="395.55"/>
    <line class="cls-1" x1="427.75" y1="502.78" x2="427.75" y2="395.94"/>
    <line class="cls-1" x1="427.75" y1="502.78" x2="429.23" y2="502.55"/>
    <line class="cls-1" x1="426.46" y1="501.44" x2="426.52" y2="501.51"/>
    <line class="cls-1" x1="126.38" y1="531.26" x2="190.44" y2="521.54"/>
    <line class="cls-1" x1="190.44" y1="521.54" x2="190.44" y2="511.41"/>
    <line class="cls-1" x1="126.38" y1="531.26" x2="126.38" y2="521.14"/>
    <line class="cls-1" x1="126.38" y1="531.26" x2="54.04" y2="456.26"/>
    <line class="cls-1" x1="83.7" y1="475.1" x2="84.99" y2="476.43"/>
    <line class="cls-1" x1="81.12" y1="472.42" x2="82.41" y2="473.76"/>
    <line class="cls-1" x1="78.54" y1="469.75" x2="79.83" y2="471.08"/>
    <line class="cls-1" x1="75.96" y1="467.07" x2="77.25" y2="468.41"/>
    <line class="cls-1" x1="73.38" y1="464.4" x2="74.67" y2="465.74"/>
    <line class="cls-1" x1="70.8" y1="461.72" x2="72.09" y2="463.06"/>
    <line class="cls-1" x1="68.22" y1="459.05" x2="69.51" y2="460.39"/>
    <line class="cls-1" x1="65.64" y1="456.38" x2="66.93" y2="457.71"/>
    <line class="cls-1" x1="63.07" y1="453.7" x2="64.36" y2="455.04"/>
    <line class="cls-1" x1="60.49" y1="451.03" x2="61.78" y2="452.36"/>
    <line class="cls-1" x1="217.72" y1="537.91" x2="219.26" y2="539.5"/>
    <line class="cls-1" x1="215" y1="535.09" x2="216.48" y2="536.63"/>
    <line class="cls-1" x1="220.55" y1="540.84" x2="222.03" y2="542.38"/>
    <line class="cls-1" x1="223.32" y1="543.72" x2="224.82" y2="545.27"/>
    <line class="cls-1" x1="226.09" y1="546.59" x2="227.57" y2="548.13"/>
    <line class="cls-1" x1="228.86" y1="549.47" x2="230.41" y2="551.07"/>
    <line class="cls-1" x1="433.3" y1="508.53" x2="434.78" y2="510.07"/>
    <line class="cls-1" x1="430.52" y1="505.66" x2="432.01" y2="507.19"/>
    <line class="cls-1" x1="427.75" y1="502.78" x2="429.23" y2="504.32"/>
    <line class="cls-1" x1="436.07" y1="511.4" x2="437.55" y2="512.94"/>
    <line class="cls-1" x1="438.84" y1="514.28" x2="439.79" y2="515.26"/>
    <line class="cls-1" x1="307.5" y1="428.66" x2="239.73" y2="438.95"/>
    <line class="cls-1" x1="359.57" y1="417.74" x2="359.57" y2="375.6"/>
    <line class="cls-1" x1="413.71" y1="501.43" x2="333.34" y2="513.64"/>
    <line class="cls-1" x1="307.5" y1="517.56" x2="239.73" y2="527.85"/>
  </g>
  <line class="cls-4" x1="225.42" y1="241.37" x2="334.87" y2="274.01"/>
  <line class="cls-4" x1="449.63" y1="393.49" x2="334" y2="273.59"/>
  <line class="cls-4" x1="226.83" y1="241.18" x2="117.27" y2="309"/>
  <line class="cls-4" x1="53.06" y1="360.34" x2="118.91" y2="348.29"/>
  <line class="cls-4" x1="118.1" y1="307.54" x2="118.1" y2="350.02"/>
  <line class="cls-4" x1="54.04" y1="358.62" x2="54.04" y2="456.9"/>
  <line class="cls-4" x1="127" y1="531.91" x2="53.52" y2="455.72"/>
  <line class="cls-4" x1="191.12" y1="521.43" x2="125.46" y2="531.4"/>
  <line class="cls-4" x1="233.26" y1="566.09" x2="189.59" y2="520.9"/>
  <line class="cls-4" x1="450.38" y1="532.64" x2="231.77" y2="565.7"/>
  <line class="cls-4" x1="449.11" y1="392.26" x2="449.11" y2="534.36"/>
  <line class="cls-2" x1="277.3" y1="430.23" x2="277.16" y2="408.54"/>
</svg>