<?xml version="1.0" encoding="UTF-8"?>
<svg id="Warstwa_1" xmlns="http://www.w3.org/2000/svg" xmlns:xlink="http://www.w3.org/1999/xlink" viewBox="0 0 542 816">
  <defs>
    <style>
      .cls-1 {
        stroke-miterlimit: 10;
      }

      .cls-1, .cls-2 {
        stroke: #000;
      }

      .cls-1, .cls-2, .cls-3 {
        fill: none;
      }

      .cls-2 {
        stroke-linecap: round;
        stroke-linejoin: round;
        stroke-width: .14px;
      }

      .cls-3 {
        clip-rule: evenodd;
      }

      .cls-4 {
        clip-path: url(#clippath);
      }
    </style>
    <clipPath id="clippath">
      <polyline class="cls-3" points="0 0 542 0 542 816 0 816 0 0"/>
    </clipPath>
  </defs>
  <g class="cls-4">
    <line class="cls-2" x1="113.93" y1="363.67" x2="113.93" y2="376.26"/>
    <line class="cls-2" x1="113.59" y1="376.32" x2="113.59" y2="363.32"/>
    <line class="cls-2" x1="112.82" y1="376.46" x2="112.82" y2="362.52"/>
    <line class="cls-2" x1="113.59" y1="353.19" x2="127.9" y2="368.04"/>
    <line class="cls-2" x1="128.68" y1="368.84" x2="132.54" y2="372.85"/>
    <line class="cls-2" x1="99.23" y1="348.43" x2="99.23" y2="378.94"/>
    <line class="cls-2" x1="98.89" y1="379.01" x2="98.89" y2="348.08"/>
    <line class="cls-2" x1="98.12" y1="379.15" x2="98.12" y2="346.38"/>
    <line class="cls-2" x1="406.87" y1="345.66" x2="406.87" y2="475.53"/>
    <line class="cls-2" x1="406.19" y1="475.63" x2="406.87" y2="475.53"/>
    <line class="cls-2" x1="406.19" y1="475.63" x2="346.69" y2="484.67"/>
    <line class="cls-2" x1="346.69" y1="541.39" x2="346.69" y2="454.28"/>
    <line class="cls-2" x1="238.79" y1="470.66" x2="238.79" y2="557.78"/>
    <line class="cls-2" x1="251.44" y1="555.56" x2="251.44" y2="485.6"/>
    <line class="cls-2" x1="252.28" y1="555.43" x2="252.28" y2="485.47"/>
    <line class="cls-2" x1="252.57" y1="549.05" x2="252.57" y2="485.42"/>
    <line class="cls-2" x1="278.19" y1="545.15" x2="278.19" y2="481.54"/>
    <line class="cls-2" x1="276.51" y1="481.79" x2="276.51" y2="545.41"/>
    <line class="cls-2" x1="278.19" y1="546.64" x2="278.19" y2="545.15"/>
    <line class="cls-2" x1="276.51" y1="545.41" x2="252.57" y2="549.05"/>
    <line class="cls-2" x1="252.28" y1="550.58" x2="278.19" y2="546.64"/>
    <line class="cls-2" x1="303.38" y1="540.81" x2="303.38" y2="477.71"/>
    <line class="cls-2" x1="301.7" y1="477.96" x2="301.7" y2="541.07"/>
    <line class="cls-2" x1="303.38" y1="542.31" x2="303.38" y2="540.81"/>
    <line class="cls-2" x1="301.7" y1="541.07" x2="278.19" y2="544.64"/>
    <line class="cls-2" x1="278.19" y1="546.13" x2="303.38" y2="542.31"/>
    <line class="cls-2" x1="328.58" y1="536.48" x2="328.58" y2="473.88"/>
    <line class="cls-2" x1="326.89" y1="474.14" x2="326.89" y2="536.73"/>
    <line class="cls-2" x1="328.58" y1="537.97" x2="328.58" y2="536.48"/>
    <line class="cls-2" x1="326.89" y1="536.73" x2="303.38" y2="540.3"/>
    <line class="cls-2" x1="303.38" y1="541.79" x2="328.58" y2="537.97"/>
    <line class="cls-2" x1="329.44" y1="538.86" x2="278.19" y2="546.64"/>
    <line class="cls-2" x1="329.44" y1="473.75" x2="329.44" y2="538.86"/>
    <line class="cls-2" x1="329.44" y1="538.86" x2="328.58" y2="537.97"/>
    <line class="cls-2" x1="330.62" y1="540.17" x2="330.62" y2="540.47"/>
    <line class="cls-2" x1="330.62" y1="473.57" x2="330.62" y2="540.17"/>
    <line class="cls-2" x1="333.2" y1="473.18" x2="333.2" y2="543.14"/>
    <line class="cls-2" x1="334.04" y1="543.01" x2="334.04" y2="473.05"/>
    <line class="cls-2" x1="334.04" y1="543.01" x2="251.44" y2="555.56"/>
    <line class="cls-2" x1="360.96" y1="475.86" x2="360.96" y2="411.83"/>
    <line class="cls-2" x1="359.28" y1="412.09" x2="359.28" y2="476.12"/>
    <line class="cls-2" x1="360.96" y1="477.35" x2="360.96" y2="475.86"/>
    <line class="cls-2" x1="359.28" y1="476.12" x2="346.69" y2="478.03"/>
    <line class="cls-2" x1="346.69" y1="479.52" x2="360.96" y2="477.35"/>
    <line class="cls-2" x1="346.69" y1="414" x2="359.28" y2="412.09"/>
    <line class="cls-2" x1="360.96" y1="411.83" x2="360.96" y2="411.63"/>
    <line class="cls-2" x1="388.98" y1="470.84" x2="388.98" y2="407.38"/>
    <line class="cls-2" x1="387.29" y1="407.63" x2="387.29" y2="471.1"/>
    <line class="cls-2" x1="388.98" y1="472.33" x2="388.98" y2="470.84"/>
    <line class="cls-2" x1="387.29" y1="471.1" x2="360.96" y2="475.1"/>
    <line class="cls-2" x1="360.96" y1="476.59" x2="388.98" y2="472.33"/>
    <line class="cls-2" x1="389.62" y1="407.28" x2="389.62" y2="473"/>
    <line class="cls-2" x1="389.62" y1="473" x2="388.98" y2="472.33"/>
    <line class="cls-2" x1="389.62" y1="473" x2="360.96" y2="477.35"/>
    <line class="cls-2" x1="390.8" y1="474.31" x2="390.8" y2="474.61"/>
    <line class="cls-2" x1="390.8" y1="407.1" x2="390.8" y2="474.31"/>
    <line class="cls-2" x1="393.38" y1="400.45" x2="393.38" y2="477.28"/>
    <line class="cls-2" x1="394.23" y1="477.15" x2="394.23" y2="400.32"/>
    <line class="cls-2" x1="394.23" y1="477.15" x2="346.69" y2="484.38"/>
    <line class="cls-2" x1="392.94" y1="406.77" x2="392.94" y2="387.93"/>
    <line class="cls-2" x1="346.69" y1="389.69" x2="388.93" y2="383.28"/>
    <line class="cls-2" x1="388.93" y1="383.28" x2="388.93" y2="360.71"/>
    <line class="cls-2" x1="389.96" y1="384.35" x2="346.69" y2="390.92"/>
    <line class="cls-2" x1="389.96" y1="384.35" x2="388.93" y2="383.28"/>
    <line class="cls-2" x1="389.96" y1="361.02" x2="389.96" y2="384.35"/>
    <line class="cls-2" x1="390.8" y1="361.26" x2="390.8" y2="385.71"/>
    <line class="cls-2" x1="390.8" y1="385.71" x2="392.94" y2="387.93"/>
    <line class="cls-2" x1="252.28" y1="461.97" x2="302.19" y2="454.39"/>
    <line class="cls-2" x1="303.87" y1="454.14" x2="329.78" y2="450.2"/>
    <line class="cls-2" x1="328.75" y1="449.14" x2="303.87" y2="452.91"/>
    <line class="cls-2" x1="301.15" y1="453.33" x2="252.28" y2="460.75"/>
    <line class="cls-2" x1="328.75" y1="394.15" x2="328.75" y2="449.14"/>
    <line class="cls-2" x1="329.78" y1="450.2" x2="328.75" y2="449.14"/>
    <line class="cls-2" x1="329.78" y1="450.2" x2="329.78" y2="393.53"/>
    <line class="cls-2" x1="330.62" y1="451.57" x2="330.62" y2="393.02"/>
    <line class="cls-2" x1="332.69" y1="453.72" x2="332.62" y2="453.64"/>
    <line class="cls-2" x1="332.76" y1="453.78" x2="330.62" y2="451.57"/>
    <line class="cls-2" x1="238.79" y1="437.6" x2="238.79" y2="470.66"/>
    <line class="cls-2" x1="346.69" y1="454.28" x2="346.69" y2="372.65"/>
    <line class="cls-2" x1="95.67" y1="332.82" x2="95.67" y2="289.18"/>
    <line class="cls-2" x1="134.01" y1="372.58" x2="98.12" y2="335.36"/>
    <line class="cls-2" x1="143.38" y1="370.87" x2="215.58" y2="445.74"/>
    <line class="cls-2" x1="215.58" y1="445.74" x2="215.58" y2="454.39"/>
    <line class="cls-2" x1="113.59" y1="361.53" x2="113.93" y2="361.48"/>
    <line class="cls-2" x1="113.93" y1="361.48" x2="126.04" y2="374.04"/>
    <line class="cls-2" x1="125.71" y1="374.1" x2="113.59" y2="361.53"/>
    <line class="cls-2" x1="124.24" y1="374.37" x2="113.59" y2="363.32"/>
    <line class="cls-2" x1="129.01" y1="369.19" x2="129.01" y2="373.5"/>
    <line class="cls-2" x1="128.68" y1="373.56" x2="128.68" y2="368.84"/>
    <line class="cls-2" x1="127.9" y1="373.7" x2="127.9" y2="368.04"/>
    <line class="cls-2" x1="95.67" y1="379.6" x2="95.67" y2="332.82"/>
    <line class="cls-2" x1="215.58" y1="543.66" x2="238.79" y2="567.72"/>
    <line class="cls-2" x1="454.58" y1="528.04" x2="454.58" y2="525.6"/>
    <line class="cls-2" x1="454.58" y1="534.21" x2="454.58" y2="533.85"/>
    <line class="cls-2" x1="238.79" y1="567.72" x2="454.58" y2="534.95"/>
    <line class="cls-2" x1="454.58" y1="534.95" x2="454.58" y2="534.21"/>
    <line class="cls-2" x1="238.79" y1="557.78" x2="454.58" y2="525"/>
    <line class="cls-2" x1="454.58" y1="525" x2="406.87" y2="475.53"/>
    <line class="cls-2" x1="454.58" y1="525.6" x2="454.58" y2="525"/>
    <line class="cls-2" x1="454.58" y1="534.95" x2="454.58" y2="525"/>
    <line class="cls-2" x1="79.31" y1="471.6" x2="79.31" y2="469.16"/>
    <line class="cls-2" x1="79.31" y1="477.77" x2="79.31" y2="477.41"/>
    <line class="cls-2" x1="79.31" y1="478.51" x2="151.52" y2="553.39"/>
    <line class="cls-2" x1="79.31" y1="478.51" x2="79.31" y2="477.77"/>
    <line class="cls-2" x1="110.26" y1="499.12" x2="108.97" y2="499.31"/>
    <line class="cls-2" x1="84.47" y1="472.38" x2="83.18" y2="472.58"/>
    <line class="cls-2" x1="87.05" y1="475.05" x2="85.76" y2="475.25"/>
    <line class="cls-2" x1="89.63" y1="477.73" x2="88.34" y2="477.92"/>
    <line class="cls-2" x1="92.21" y1="480.4" x2="90.92" y2="480.6"/>
    <line class="cls-2" x1="94.79" y1="483.08" x2="93.5" y2="483.27"/>
    <line class="cls-2" x1="97.37" y1="485.75" x2="96.08" y2="485.94"/>
    <line class="cls-2" x1="99.94" y1="488.42" x2="98.66" y2="488.62"/>
    <line class="cls-2" x1="102.52" y1="491.1" x2="101.23" y2="491.29"/>
    <line class="cls-2" x1="105.1" y1="493.77" x2="103.81" y2="493.97"/>
    <line class="cls-2" x1="107.68" y1="496.45" x2="106.39" y2="496.64"/>
    <line class="cls-2" x1="79.31" y1="477.41" x2="79.31" y2="471.6"/>
    <line class="cls-2" x1="151.52" y1="553.39" x2="215.58" y2="543.66"/>
    <line class="cls-2" x1="110.26" y1="424.65" x2="110.26" y2="500.65"/>
    <line class="cls-2" x1="151.52" y1="543.44" x2="79.31" y2="468.56"/>
    <line class="cls-2" x1="151.52" y1="545.82" x2="151.52" y2="466.11"/>
    <line class="cls-2" x1="215.58" y1="456.8" x2="215.58" y2="454.39"/>
    <line class="cls-2" x1="215.58" y1="456.8" x2="215.58" y2="457.17"/>
    <line class="cls-2" x1="151.52" y1="543.44" x2="215.58" y2="533.71"/>
    <line class="cls-2" x1="151.52" y1="466.11" x2="151.52" y2="465.27"/>
    <line class="cls-2" x1="79.31" y1="391.23" x2="79.31" y2="390.4"/>
    <line class="cls-2" x1="151.52" y1="465.27" x2="151.52" y2="459.46"/>
    <line class="cls-2" x1="79.31" y1="390.4" x2="79.31" y2="384.59"/>
    <line class="cls-2" x1="151.52" y1="459.46" x2="151.52" y2="459.1"/>
    <line class="cls-2" x1="79.31" y1="384.59" x2="79.31" y2="384.23"/>
    <line class="cls-2" x1="79.31" y1="384.23" x2="79.31" y2="383.48"/>
    <line class="cls-2" x1="151.52" y1="459.1" x2="151.52" y2="458.36"/>
    <line class="cls-2" x1="143.38" y1="370.87" x2="79.31" y2="382.59"/>
    <line class="cls-2" x1="79.31" y1="382.59" x2="151.52" y2="457.46"/>
    <line class="cls-2" x1="151.52" y1="457.46" x2="215.58" y2="445.74"/>
    <line class="cls-2" x1="79.31" y1="383.48" x2="79.31" y2="382.59"/>
    <line class="cls-2" x1="151.52" y1="458.36" x2="151.52" y2="457.46"/>
    <line class="cls-2" x1="238.79" y1="557.78" x2="215.58" y2="533.71"/>
    <line class="cls-2" x1="215.58" y1="457.17" x2="215.58" y2="536.09"/>
    <line class="cls-2" x1="113.93" y1="353.54" x2="113.93" y2="361.48"/>
    <line class="cls-2" x1="113.59" y1="361.53" x2="113.59" y2="353.19"/>
    <line class="cls-2" x1="112.82" y1="360.73" x2="112.82" y2="352.39"/>
    <line class="cls-2" x1="98.89" y1="346.29" x2="99.23" y2="346.24"/>
    <line class="cls-2" x1="99.23" y1="346.24" x2="112.82" y2="360.33"/>
    <line class="cls-2" x1="112.82" y1="360.73" x2="98.89" y2="346.29"/>
    <line class="cls-2" x1="112.82" y1="362.52" x2="98.89" y2="348.08"/>
    <line class="cls-2" x1="98.89" y1="337.95" x2="112.82" y2="352.39"/>
    <line class="cls-2" x1="99.23" y1="338.3" x2="99.23" y2="346.24"/>
    <line class="cls-2" x1="98.89" y1="346.29" x2="98.89" y2="337.95"/>
    <line class="cls-2" x1="98.12" y1="346.38" x2="98.12" y2="335.36"/>
    <line class="cls-2" x1="191.08" y1="378.43" x2="238.79" y2="427.9"/>
    <line class="cls-2" x1="238.79" y1="427.9" x2="346.69" y2="362.96"/>
    <line class="cls-2" x1="346.69" y1="362.96" x2="298.98" y2="313.49"/>
    <line class="cls-2" x1="346.69" y1="363.96" x2="346.69" y2="362.96"/>
    <line class="cls-2" x1="238.79" y1="428.9" x2="238.79" y2="427.9"/>
    <line class="cls-2" x1="346.69" y1="364.8" x2="346.69" y2="363.96"/>
    <line class="cls-2" x1="238.79" y1="429.74" x2="238.79" y2="428.9"/>
    <line class="cls-2" x1="346.69" y1="365.2" x2="346.69" y2="364.8"/>
    <line class="cls-2" x1="238.79" y1="430.14" x2="238.79" y2="429.74"/>
    <line class="cls-2" x1="346.69" y1="371.72" x2="346.69" y2="365.2"/>
    <line class="cls-2" x1="238.79" y1="436.66" x2="238.79" y2="430.14"/>
    <line class="cls-2" x1="346.69" y1="372.65" x2="346.69" y2="371.72"/>
    <line class="cls-2" x1="238.79" y1="437.6" x2="238.79" y2="436.66"/>
    <line class="cls-2" x1="203.56" y1="214.54" x2="95.67" y2="279.49"/>
    <line class="cls-2" x1="95.67" y1="279.49" x2="191.08" y2="378.43"/>
    <line class="cls-2" x1="298.98" y1="313.49" x2="203.56" y2="214.54"/>
    <line class="cls-2" x1="95.67" y1="280.49" x2="95.67" y2="279.49"/>
    <line class="cls-2" x1="95.67" y1="281.33" x2="95.67" y2="280.49"/>
    <line class="cls-2" x1="95.67" y1="281.73" x2="95.67" y2="281.33"/>
    <line class="cls-2" x1="95.67" y1="288.25" x2="95.67" y2="281.73"/>
    <line class="cls-2" x1="95.67" y1="289.18" x2="95.67" y2="288.25"/>
    <line class="cls-2" x1="298.98" y1="313.49" x2="406.87" y2="345.66"/>
    <line class="cls-2" x1="406.87" y1="345.66" x2="311.45" y2="246.72"/>
    <line class="cls-2" x1="311.45" y1="246.72" x2="203.56" y2="214.54"/>
    <line class="cls-2" x1="392.94" y1="387.93" x2="346.69" y2="394.95"/>
    <line class="cls-2" x1="392.94" y1="406.77" x2="346.69" y2="413.8"/>
    <line class="cls-2" x1="332.76" y1="473.25" x2="252.28" y2="485.47"/>
    <line class="cls-2" x1="303.87" y1="454.14" x2="303.87" y2="409.13"/>
    <line class="cls-2" x1="302.19" y1="454.39" x2="302.19" y2="410.14"/>
    <line class="cls-2" x1="301.15" y1="453.33" x2="302.19" y2="454.39"/>
    <line class="cls-2" x1="339.55" y1="355.56" x2="339.55" y2="345.98"/>
    <line class="cls-2" x1="337.87" y1="353.82" x2="337.87" y2="345.48"/>
    <line class="cls-2" x1="108.97" y1="499.31" x2="108.97" y2="423.32"/>
    <line class="cls-2" x1="107.68" y1="497.98" x2="107.68" y2="421.98"/>
    <line class="cls-2" x1="106.39" y1="496.64" x2="106.39" y2="420.64"/>
    <line class="cls-2" x1="105.1" y1="495.3" x2="105.1" y2="419.31"/>
    <line class="cls-2" x1="103.81" y1="493.97" x2="103.81" y2="417.97"/>
    <line class="cls-2" x1="102.52" y1="492.63" x2="102.52" y2="416.63"/>
    <line class="cls-2" x1="90.92" y1="480.6" x2="90.92" y2="404.6"/>
    <line class="cls-2" x1="89.63" y1="479.26" x2="89.63" y2="403.26"/>
    <line class="cls-2" x1="96.08" y1="485.94" x2="96.08" y2="409.95"/>
    <line class="cls-2" x1="94.79" y1="484.61" x2="94.79" y2="408.61"/>
    <line class="cls-2" x1="93.5" y1="483.27" x2="93.5" y2="407.27"/>
    <line class="cls-2" x1="92.21" y1="481.93" x2="92.21" y2="405.94"/>
    <line class="cls-2" x1="98.66" y1="488.62" x2="98.66" y2="412.62"/>
    <line class="cls-2" x1="97.37" y1="487.28" x2="97.37" y2="411.28"/>
    <line class="cls-2" x1="101.23" y1="491.29" x2="101.23" y2="415.3"/>
    <line class="cls-2" x1="99.94" y1="489.96" x2="99.94" y2="413.96"/>
    <line class="cls-2" x1="83.18" y1="472.58" x2="83.18" y2="396.58"/>
    <line class="cls-2" x1="85.76" y1="475.25" x2="85.76" y2="399.25"/>
    <line class="cls-2" x1="84.47" y1="473.91" x2="84.47" y2="397.91"/>
    <line class="cls-2" x1="88.34" y1="477.92" x2="88.34" y2="401.92"/>
    <line class="cls-2" x1="87.05" y1="476.59" x2="87.05" y2="400.59"/>
    <line class="cls-2" x1="79.31" y1="469.16" x2="79.31" y2="391.23"/>
    <line class="cls-2" x1="110.26" y1="424.65" x2="108.97" y2="423.32"/>
    <line class="cls-2" x1="107.68" y1="421.98" x2="106.39" y2="420.64"/>
    <line class="cls-2" x1="105.1" y1="419.31" x2="103.81" y2="417.97"/>
    <line class="cls-2" x1="102.52" y1="416.63" x2="101.23" y2="415.3"/>
    <line class="cls-2" x1="99.95" y1="413.96" x2="98.66" y2="412.62"/>
    <line class="cls-2" x1="97.37" y1="411.28" x2="96.08" y2="409.95"/>
    <line class="cls-2" x1="94.79" y1="408.61" x2="93.5" y2="407.27"/>
    <line class="cls-2" x1="92.21" y1="405.94" x2="90.92" y2="404.6"/>
    <line class="cls-2" x1="89.63" y1="403.26" x2="88.34" y2="401.92"/>
    <line class="cls-2" x1="87.05" y1="400.59" x2="85.76" y2="399.25"/>
    <line class="cls-2" x1="84.47" y1="397.91" x2="83.18" y2="396.58"/>
    <line class="cls-2" x1="215.58" y1="543.66" x2="215.58" y2="533.71"/>
    <line class="cls-2" x1="151.52" y1="553.39" x2="151.52" y2="543.44"/>
    <line class="cls-2" x1="238.79" y1="567.72" x2="238.79" y2="557.78"/>
    <line class="cls-2" x1="390.8" y1="474.61" x2="346.69" y2="481.31"/>
    <line class="cls-2" x1="252.28" y1="463.46" x2="330.62" y2="451.57"/>
    <line class="cls-2" x1="301.15" y1="453.33" x2="301.15" y2="410.76"/>
    <line class="cls-2" x1="332.76" y1="473.25" x2="332.76" y2="453.78"/>
    <line class="cls-2" x1="332.76" y1="453.78" x2="252.28" y2="465.93"/>
    <line class="cls-2" x1="325.45" y1="340.94" x2="394.23" y2="361.45"/>
    <line class="cls-2" x1="394.23" y1="361.45" x2="394.23" y2="400.32"/>
    <line class="cls-2" x1="326.59" y1="342.12" x2="393.38" y2="362.04"/>
    <line class="cls-2" x1="393.38" y1="362.04" x2="393.38" y2="400.42"/>
    <line class="cls-2" x1="390.8" y1="385.71" x2="346.69" y2="392.41"/>
    <line class="cls-2" x1="251.44" y1="485.6" x2="251.44" y2="439.86"/>
    <line class="cls-2" x1="251.44" y1="439.86" x2="334.04" y2="390.13"/>
    <line class="cls-2" x1="334.04" y1="390.13" x2="334.04" y2="473.05"/>
    <line class="cls-2" x1="333.2" y1="473.18" x2="333.2" y2="391.47"/>
    <line class="cls-2" x1="333.2" y1="391.47" x2="252.28" y2="440.18"/>
    <line class="cls-2" x1="252.28" y1="440.18" x2="252.28" y2="485.47"/>
    <line class="cls-2" x1="330.62" y1="540.47" x2="333.2" y2="543.14"/>
    <line class="cls-2" x1="330.62" y1="540.47" x2="252.28" y2="552.2"/>
    <line class="cls-2" x1="390.8" y1="474.61" x2="393.38" y2="477.28"/>
  </g>
  <line class="cls-1" x1="203.75" y1="214.43" x2="95.4" y2="279.65"/>
  <line class="cls-1" x1="311.68" y1="246.85" x2="203.35" y2="214.48"/>
  <line class="cls-1" x1="406.87" y1="475.53" x2="406.87" y2="345.44"/>
  <line class="cls-1" x1="406.99" y1="345.79" x2="311.45" y2="246.72"/>
  <line class="cls-1" x1="454.74" y1="525.17" x2="406.68" y2="475.34"/>
  <line class="cls-1" x1="454.95" y1="534.89" x2="238.53" y2="567.76"/>
  <line class="cls-1" x1="215.25" y1="543.43" x2="238.97" y2="567.91"/>
  <line class="cls-1" x1="151.22" y1="553.4" x2="215.58" y2="543.66"/>
  <line class="cls-1" x1="79.17" y1="478.36" x2="151.65" y2="553.52"/>
  <line class="cls-1" x1="79.31" y1="382.15" x2="79.31" y2="478.71"/>
  <line class="cls-1" x1="96.02" y1="379.53" x2="79.01" y2="382.64"/>
  <line class="cls-1" x1="95.67" y1="279.29" x2="95.67" y2="380.01"/>
  <line class="cls-1" x1="454.58" y1="535.38" x2="454.58" y2="524.82"/>
</svg>