<?xml version="1.0" encoding="UTF-8"?>
<svg id="Warstwa_1" xmlns="http://www.w3.org/2000/svg" xmlns:xlink="http://www.w3.org/1999/xlink" viewBox="0 0 541 788">
  <defs>
    <style>
      .cls-1 {
        stroke-linecap: round;
        stroke-linejoin: round;
        stroke-width: .14px;
      }

      .cls-1, .cls-2, .cls-3 {
        fill: none;
      }

      .cls-1, .cls-3 {
        stroke: #000;
      }

      .cls-2 {
        clip-rule: evenodd;
      }

      .cls-3 {
        stroke-miterlimit: 10;
        stroke-width: 3.5px;
      }

      .cls-4 {
        clip-path: url(#clippath);
      }
    </style>
    <clipPath id="clippath">
      <polyline class="cls-2" points="0 0 541 0 541 788 0 788 0 0"/>
    </clipPath>
  </defs>
  <g class="cls-4">
    <line class="cls-1" x1="239.43" y1="514.51" x2="303.09" y2="504.84"/>
    <line class="cls-1" x1="303.09" y1="504.84" x2="300.52" y2="502.17"/>
    <line class="cls-1" x1="300.52" y1="502.17" x2="239.43" y2="511.44"/>
    <line class="cls-1" x1="239.43" y1="511.44" x2="239.43" y2="514.51"/>
    <line class="cls-1" x1="406.55" y1="486.06" x2="340.58" y2="496.08"/>
    <line class="cls-1" x1="340.58" y1="496.08" x2="340.58" y2="499.15"/>
    <line class="cls-1" x1="340.58" y1="499.15" x2="409.13" y2="488.74"/>
    <line class="cls-1" x1="409.13" y1="488.74" x2="406.55" y2="486.06"/>
    <line class="cls-1" x1="111.67" y1="421.08" x2="111.42" y2="420.82"/>
    <line class="cls-1" x1="111.42" y1="430.76" x2="111.42" y2="333.7"/>
    <line class="cls-1" x1="206.83" y1="439.94" x2="206.83" y2="519.76"/>
    <line class="cls-1" x1="314.73" y1="503.37" x2="307.98" y2="504.4"/>
    <line class="cls-1" x1="213.58" y1="518.74" x2="206.83" y2="519.76"/>
    <line class="cls-1" x1="206.83" y1="519.76" x2="206.57" y2="519.49"/>
    <line class="cls-1" x1="206.57" y1="519.49" x2="111.67" y2="421.08"/>
    <line class="cls-1" x1="219.48" y1="517.54" x2="219.48" y2="453.05"/>
    <line class="cls-1" x1="220.32" y1="517.41" x2="220.32" y2="453.93"/>
    <line class="cls-1" x1="220.61" y1="510.93" x2="230.11" y2="509.48"/>
    <line class="cls-1" x1="239.43" y1="508.07" x2="245.08" y2="507.21"/>
    <line class="cls-1" x1="245.08" y1="507.21" x2="245.08" y2="464.87"/>
    <line class="cls-1" x1="220.61" y1="511.03" x2="220.61" y2="454.23"/>
    <line class="cls-1" x1="246.85" y1="507.04" x2="246.85" y2="464.6"/>
    <line class="cls-1" x1="245.16" y1="464.86" x2="245.16" y2="507.3"/>
    <line class="cls-1" x1="246.85" y1="508.53" x2="246.85" y2="507.04"/>
    <line class="cls-1" x1="245.16" y1="507.3" x2="239.43" y2="508.17"/>
    <line class="cls-1" x1="230.11" y1="509.59" x2="220.61" y2="511.03"/>
    <line class="cls-1" x1="220.32" y1="512.56" x2="230.11" y2="511.07"/>
    <line class="cls-1" x1="239.43" y1="509.66" x2="246.85" y2="508.53"/>
    <line class="cls-1" x1="245.16" y1="507.3" x2="245.08" y2="507.21"/>
    <line class="cls-1" x1="246.85" y1="506.43" x2="270.89" y2="502.78"/>
    <line class="cls-1" x1="270.89" y1="502.78" x2="270.89" y2="460.95"/>
    <line class="cls-1" x1="272.66" y1="502.61" x2="272.66" y2="460.68"/>
    <line class="cls-1" x1="270.98" y1="460.94" x2="270.98" y2="502.87"/>
    <line class="cls-1" x1="272.66" y1="504.1" x2="272.66" y2="502.61"/>
    <line class="cls-1" x1="270.98" y1="502.87" x2="246.85" y2="506.53"/>
    <line class="cls-1" x1="246.85" y1="508.02" x2="272.66" y2="504.1"/>
    <line class="cls-1" x1="270.98" y1="502.87" x2="270.89" y2="502.78"/>
    <line class="cls-1" x1="272.66" y1="502" x2="296.7" y2="498.35"/>
    <line class="cls-1" x1="296.7" y1="498.35" x2="296.7" y2="457.03"/>
    <line class="cls-1" x1="298.47" y1="498.18" x2="298.47" y2="456.76"/>
    <line class="cls-1" x1="296.79" y1="457.02" x2="296.79" y2="498.44"/>
    <line class="cls-1" x1="298.47" y1="499.67" x2="298.47" y2="498.18"/>
    <line class="cls-1" x1="296.79" y1="498.44" x2="272.66" y2="502.1"/>
    <line class="cls-1" x1="272.66" y1="503.59" x2="298.47" y2="499.67"/>
    <line class="cls-1" x1="296.79" y1="498.44" x2="296.7" y2="498.35"/>
    <line class="cls-1" x1="299.33" y1="456.63" x2="299.33" y2="500.56"/>
    <line class="cls-1" x1="299.33" y1="500.56" x2="298.47" y2="499.67"/>
    <line class="cls-1" x1="299.33" y1="500.56" x2="246.85" y2="508.53"/>
    <line class="cls-1" x1="300.52" y1="501.87" x2="300.52" y2="502.17"/>
    <line class="cls-1" x1="300.52" y1="456.45" x2="300.52" y2="501.87"/>
    <line class="cls-1" x1="303.09" y1="456.06" x2="303.09" y2="504.84"/>
    <line class="cls-1" x1="303.94" y1="504.72" x2="303.94" y2="455.93"/>
    <line class="cls-1" x1="303.94" y1="504.72" x2="239.43" y2="514.51"/>
    <line class="cls-1" x1="230.11" y1="515.93" x2="219.48" y2="517.54"/>
    <line class="cls-1" x1="422.62" y1="486.99" x2="421.94" y2="487.09"/>
    <line class="cls-1" x1="422.62" y1="399.87" x2="422.62" y2="495.63"/>
    <line class="cls-1" x1="422.62" y1="399.87" x2="422.62" y2="398.53"/>
    <line class="cls-1" x1="314.73" y1="503.37" x2="331.26" y2="500.86"/>
    <line class="cls-1" x1="340.58" y1="499.45" x2="421.94" y2="487.09"/>
    <line class="cls-1" x1="325.51" y1="501.44" x2="325.51" y2="452.65"/>
    <line class="cls-1" x1="326.36" y1="501.31" x2="326.36" y2="452.52"/>
    <line class="cls-1" x1="326.65" y1="494.82" x2="331.26" y2="494.12"/>
    <line class="cls-1" x1="340.58" y1="492.7" x2="351.12" y2="491.11"/>
    <line class="cls-1" x1="351.12" y1="491.11" x2="351.12" y2="427.18"/>
    <line class="cls-1" x1="326.65" y1="494.92" x2="326.65" y2="452.48"/>
    <line class="cls-1" x1="352.89" y1="490.94" x2="352.89" y2="426.91"/>
    <line class="cls-1" x1="351.2" y1="427.16" x2="351.2" y2="491.19"/>
    <line class="cls-1" x1="352.89" y1="492.43" x2="352.89" y2="490.94"/>
    <line class="cls-1" x1="351.2" y1="491.19" x2="340.58" y2="492.81"/>
    <line class="cls-1" x1="331.26" y1="494.22" x2="326.65" y2="494.92"/>
    <line class="cls-1" x1="326.36" y1="496.45" x2="331.26" y2="495.71"/>
    <line class="cls-1" x1="340.58" y1="494.29" x2="352.89" y2="492.43"/>
    <line class="cls-1" x1="351.2" y1="491.19" x2="351.12" y2="491.11"/>
    <line class="cls-1" x1="340.58" y1="428.77" x2="351.2" y2="427.16"/>
    <line class="cls-1" x1="352.89" y1="426.91" x2="352.89" y2="426.54"/>
    <line class="cls-1" x1="352.89" y1="490.32" x2="376.93" y2="486.67"/>
    <line class="cls-1" x1="376.93" y1="486.67" x2="376.93" y2="422.89"/>
    <line class="cls-1" x1="378.7" y1="486.51" x2="378.7" y2="422.62"/>
    <line class="cls-1" x1="377.01" y1="422.87" x2="377.01" y2="486.76"/>
    <line class="cls-1" x1="378.7" y1="488" x2="378.7" y2="486.51"/>
    <line class="cls-1" x1="377.01" y1="486.76" x2="352.89" y2="490.43"/>
    <line class="cls-1" x1="352.89" y1="491.92" x2="378.7" y2="488"/>
    <line class="cls-1" x1="377.01" y1="486.76" x2="376.93" y2="486.67"/>
    <line class="cls-1" x1="378.7" y1="485.89" x2="402.74" y2="482.24"/>
    <line class="cls-1" x1="402.74" y1="482.24" x2="402.74" y2="418.97"/>
    <line class="cls-1" x1="404.51" y1="482.07" x2="404.51" y2="418.7"/>
    <line class="cls-1" x1="402.83" y1="418.95" x2="402.83" y2="482.33"/>
    <line class="cls-1" x1="404.51" y1="483.56" x2="404.51" y2="482.07"/>
    <line class="cls-1" x1="402.83" y1="482.33" x2="378.7" y2="486"/>
    <line class="cls-1" x1="378.7" y1="487.48" x2="404.51" y2="483.56"/>
    <line class="cls-1" x1="402.83" y1="482.33" x2="402.74" y2="482.24"/>
    <line class="cls-1" x1="405.37" y1="418.57" x2="405.37" y2="484.46"/>
    <line class="cls-1" x1="405.37" y1="484.46" x2="404.51" y2="483.56"/>
    <line class="cls-1" x1="405.37" y1="484.46" x2="352.89" y2="492.43"/>
    <line class="cls-1" x1="406.55" y1="485.77" x2="406.55" y2="486.06"/>
    <line class="cls-1" x1="406.55" y1="418.39" x2="406.55" y2="485.77"/>
    <line class="cls-1" x1="409.13" y1="418.15" x2="409.13" y2="488.74"/>
    <line class="cls-1" x1="409.98" y1="488.61" x2="409.98" y2="400.45"/>
    <line class="cls-1" x1="409.98" y1="488.61" x2="340.58" y2="499.15"/>
    <line class="cls-1" x1="331.26" y1="500.57" x2="325.51" y2="501.44"/>
    <line class="cls-1" x1="219.31" y1="238.09" x2="219.31" y2="256.9"/>
    <line class="cls-1" x1="409.98" y1="400.45" x2="409.98" y2="400.45"/>
    <line class="cls-1" x1="422.62" y1="398.53" x2="422.62" y2="328.15"/>
    <line class="cls-1" x1="340.58" y1="368.02" x2="340.58" y2="443.07"/>
    <line class="cls-1" x1="137.27" y1="288.79" x2="137.27" y2="358.43"/>
    <line class="cls-1" x1="232.69" y1="459.45" x2="232.69" y2="387.73"/>
    <line class="cls-1" x1="246.46" y1="425.69" x2="246.46" y2="387.52"/>
    <line class="cls-1" x1="283.02" y1="420.13" x2="283.02" y2="381.97"/>
    <line class="cls-1" x1="284.9" y1="419.85" x2="284.9" y2="381.69"/>
    <line class="cls-1" x1="283.21" y1="381.94" x2="283.21" y2="420.11"/>
    <line class="cls-1" x1="322.69" y1="414.11" x2="322.69" y2="375.95"/>
    <line class="cls-1" x1="321" y1="376.2" x2="321" y2="414.37"/>
    <line class="cls-1" x1="323.33" y1="375.85" x2="323.33" y2="414.01"/>
    <line class="cls-1" x1="324.51" y1="375.67" x2="324.51" y2="413.83"/>
    <line class="cls-1" x1="246.17" y1="425.73" x2="246.17" y2="387.57"/>
    <line class="cls-1" x1="246.17" y1="387.57" x2="327.09" y2="375.28"/>
    <line class="cls-1" x1="327.09" y1="375.28" x2="327.09" y2="413.44"/>
    <line class="cls-1" x1="327.93" y1="374.4" x2="327.93" y2="413.2"/>
    <line class="cls-1" x1="245.33" y1="386.95" x2="327.93" y2="374.4"/>
    <line class="cls-1" x1="245.33" y1="425.75" x2="245.33" y2="386.95"/>
    <line class="cls-1" x1="363.57" y1="339" x2="363.57" y2="377.17"/>
    <line class="cls-1" x1="366.09" y1="338.62" x2="366.09" y2="376.78"/>
    <line class="cls-1" x1="364.41" y1="377.04" x2="364.41" y2="338.87"/>
    <line class="cls-1" x1="363.76" y1="377.14" x2="363.76" y2="338.97"/>
    <line class="cls-1" x1="403.66" y1="332.91" x2="403.66" y2="371.08"/>
    <line class="cls-1" x1="403.86" y1="371.05" x2="403.86" y2="332.88"/>
    <line class="cls-1" x1="405.54" y1="332.63" x2="405.54" y2="370.79"/>
    <line class="cls-1" x1="406.72" y1="370.61" x2="406.72" y2="332.45"/>
    <line class="cls-1" x1="409.3" y1="370.22" x2="409.3" y2="332.06"/>
    <line class="cls-1" x1="409.3" y1="332.06" x2="333.28" y2="343.6"/>
    <line class="cls-1" x1="410.14" y1="331.18" x2="332.65" y2="342.95"/>
    <line class="cls-1" x1="410.14" y1="369.98" x2="410.14" y2="331.18"/>
    <line class="cls-1" x1="137.27" y1="281.79" x2="137.27" y2="281.29"/>
    <line class="cls-1" x1="137.27" y1="282.14" x2="137.27" y2="281.79"/>
    <line class="cls-1" x1="232.69" y1="381.08" x2="232.69" y2="380.73"/>
    <line class="cls-1" x1="340.58" y1="367.18" x2="340.58" y2="363.84"/>
    <line class="cls-1" x1="137.27" y1="287.96" x2="137.27" y2="282.14"/>
    <line class="cls-1" x1="232.69" y1="386.9" x2="232.69" y2="381.08"/>
    <line class="cls-1" x1="340.58" y1="368.02" x2="340.58" y2="367.18"/>
    <line class="cls-1" x1="137.27" y1="288.79" x2="137.27" y2="287.96"/>
    <line class="cls-1" x1="232.69" y1="387.73" x2="232.69" y2="386.9"/>
    <line class="cls-1" x1="322" y1="510.91" x2="331.26" y2="509.51"/>
    <line class="cls-1" x1="340.58" y1="508.09" x2="422.62" y2="495.63"/>
    <line class="cls-1" x1="111.42" y1="430.76" x2="232.69" y2="556.52"/>
    <line class="cls-1" x1="232.69" y1="556.52" x2="340.58" y2="540.13"/>
    <line class="cls-1" x1="307.98" y1="504.4" x2="239.43" y2="514.81"/>
    <line class="cls-1" x1="230.11" y1="516.22" x2="213.58" y2="518.74"/>
    <line class="cls-1" x1="331.26" y1="520.52" x2="314.73" y2="503.37"/>
    <line class="cls-1" x1="206.57" y1="519.49" x2="232.69" y2="546.57"/>
    <line class="cls-1" x1="232.69" y1="546.57" x2="340.58" y2="530.18"/>
    <line class="cls-1" x1="111.42" y1="333.56" x2="111.42" y2="333.29"/>
    <line class="cls-1" x1="111.42" y1="333.7" x2="111.42" y2="333.56"/>
    <line class="cls-1" x1="136.93" y1="358.08" x2="137.27" y2="358.43"/>
    <line class="cls-1" x1="340.58" y1="540.13" x2="340.58" y2="450.36"/>
    <line class="cls-1" x1="333.83" y1="531.2" x2="333.83" y2="451.39"/>
    <line class="cls-1" x1="331.26" y1="528.53" x2="333.83" y2="531.2"/>
    <line class="cls-1" x1="331.26" y1="528.53" x2="331.26" y2="451.78"/>
    <line class="cls-1" x1="239.43" y1="545.54" x2="239.43" y2="465.73"/>
    <line class="cls-1" x1="232.69" y1="556.52" x2="232.69" y2="466.75"/>
    <line class="cls-1" x1="230.11" y1="543.89" x2="230.11" y2="464.08"/>
    <line class="cls-1" x1="328.42" y1="414.37" x2="328.42" y2="413.58"/>
    <line class="cls-1" x1="327.7" y1="413.35" x2="245.71" y2="425.8"/>
    <line class="cls-1" x1="328.42" y1="414.37" x2="245.44" y2="426.97"/>
    <line class="cls-1" x1="410.63" y1="370.4" x2="410.63" y2="371.15"/>
    <line class="cls-1" x1="340.58" y1="381.04" x2="410.63" y2="370.4"/>
    <line class="cls-1" x1="340.58" y1="381.78" x2="410.63" y2="371.15"/>
    <line class="cls-1" x1="340.58" y1="380.66" x2="409.9" y2="370.13"/>
    <line class="cls-1" x1="245.44" y1="455.97" x2="245.44" y2="455.76"/>
    <line class="cls-1" x1="328.42" y1="443.51" x2="328.82" y2="443.46"/>
    <line class="cls-1" x1="327.7" y1="413.24" x2="327.95" y2="413.51"/>
    <line class="cls-1" x1="327.95" y1="413.51" x2="328.82" y2="413.37"/>
    <line class="cls-1" x1="328.82" y1="413.37" x2="328.56" y2="413.11"/>
    <line class="cls-1" x1="328.56" y1="413.11" x2="327.7" y2="413.24"/>
    <line class="cls-1" x1="327.7" y1="413.35" x2="327.7" y2="413.24"/>
    <line class="cls-1" x1="327.95" y1="442.86" x2="327.95" y2="414.44"/>
    <line class="cls-1" x1="327.95" y1="413.65" x2="327.95" y2="413.51"/>
    <line class="cls-1" x1="328.82" y1="443.46" x2="328.82" y2="413.37"/>
    <line class="cls-1" x1="244.75" y1="455.92" x2="245.01" y2="456.18"/>
    <line class="cls-1" x1="245.01" y1="456.18" x2="245.44" y2="456.12"/>
    <line class="cls-1" x1="244.75" y1="425.84" x2="245.01" y2="426.1"/>
    <line class="cls-1" x1="245.01" y1="426.1" x2="245.88" y2="425.97"/>
    <line class="cls-1" x1="245.88" y1="425.97" x2="245.62" y2="425.7"/>
    <line class="cls-1" x1="245.62" y1="425.7" x2="244.75" y2="425.84"/>
    <line class="cls-1" x1="244.75" y1="455.92" x2="244.75" y2="425.84"/>
    <line class="cls-1" x1="245.01" y1="456.18" x2="245.01" y2="426.1"/>
    <line class="cls-1" x1="245.88" y1="426.12" x2="245.88" y2="425.97"/>
    <line class="cls-1" x1="245.88" y1="455.32" x2="245.88" y2="426.9"/>
    <line class="cls-1" x1="411.03" y1="400.24" x2="410.63" y2="400.3"/>
    <line class="cls-1" x1="410.77" y1="369.89" x2="411.03" y2="370.15"/>
    <line class="cls-1" x1="411.03" y1="370.15" x2="410.16" y2="370.28"/>
    <line class="cls-1" x1="410.16" y1="370.28" x2="409.9" y2="370.02"/>
    <line class="cls-1" x1="409.9" y1="370.02" x2="410.77" y2="369.89"/>
    <line class="cls-1" x1="411.03" y1="400.24" x2="411.03" y2="370.15"/>
    <line class="cls-1" x1="410.16" y1="399.64" x2="410.16" y2="371.22"/>
    <line class="cls-1" x1="410.16" y1="370.47" x2="410.16" y2="370.28"/>
    <line class="cls-1" x1="409.9" y1="370.13" x2="409.9" y2="370.02"/>
    <line class="cls-1" x1="422.62" y1="321.15" x2="422.62" y2="320.65"/>
    <line class="cls-1" x1="422.62" y1="321.51" x2="422.62" y2="321.15"/>
    <line class="cls-1" x1="422.62" y1="327.32" x2="422.62" y2="321.51"/>
    <line class="cls-1" x1="422.62" y1="328.15" x2="422.62" y2="327.32"/>
    <line class="cls-1" x1="219.31" y1="238.09" x2="219.31" y2="231.1"/>
    <line class="cls-1" x1="319.29" y1="223.37" x2="241.65" y2="235.16"/>
    <line class="cls-1" x1="319.29" y1="217.86" x2="237.02" y2="230.36"/>
    <line class="cls-1" x1="329.89" y1="211.82" x2="327.82" y2="209.68"/>
    <line class="cls-1" x1="217.91" y1="226.38" x2="219.97" y2="228.52"/>
    <line class="cls-1" x1="217.91" y1="229.65" x2="217.91" y2="226.38"/>
    <line class="cls-1" x1="327.82" y1="209.68" x2="217.91" y2="226.38"/>
    <line class="cls-1" x1="422.62" y1="312.92" x2="422.62" y2="320.65"/>
    <line class="cls-1" x1="319.29" y1="223.37" x2="319.29" y2="217.86"/>
    <line class="cls-1" x1="404.91" y1="306.64" x2="319.29" y2="217.86"/>
    <line class="cls-1" x1="400.27" y1="307.35" x2="319.29" y2="223.37"/>
    <line class="cls-1" x1="418.62" y1="310.25" x2="424.02" y2="309.43"/>
    <line class="cls-1" x1="424.02" y1="309.43" x2="329.89" y2="211.82"/>
    <line class="cls-1" x1="424.02" y1="309.43" x2="424.02" y2="312.7"/>
    <line class="cls-1" x1="316.12" y1="325.81" x2="418.62" y2="310.25"/>
    <line class="cls-1" x1="297.01" y1="328.54" x2="297.01" y2="323.03"/>
    <line class="cls-1" x1="297.01" y1="323.03" x2="404.91" y2="306.64"/>
    <line class="cls-1" x1="297.08" y1="328.6" x2="297.01" y2="328.54"/>
    <line class="cls-1" x1="297.01" y1="323.03" x2="297.82" y2="323.87"/>
    <line class="cls-1" x1="318.88" y1="328.67" x2="424.02" y2="312.7"/>
    <line class="cls-1" x1="340.58" y1="356.11" x2="340.58" y2="363.84"/>
    <line class="cls-1" x1="318.23" y1="350.54" x2="297.08" y2="328.6"/>
    <line class="cls-1" x1="322.87" y1="349.84" x2="297.82" y2="323.87"/>
    <line class="cls-1" x1="297.08" y1="323.23" x2="297.08" y2="323.24"/>
    <line class="cls-1" x1="341.98" y1="352.62" x2="341.98" y2="355.9"/>
    <line class="cls-1" x1="336.58" y1="353.44" x2="341.98" y2="352.62"/>
    <line class="cls-1" x1="341.98" y1="352.62" x2="316.12" y2="325.81"/>
    <line class="cls-1" x1="232.69" y1="372.5" x2="232.69" y2="380.73"/>
    <line class="cls-1" x1="240.6" y1="362.33" x2="322.87" y2="349.84"/>
    <line class="cls-1" x1="230" y1="367.18" x2="232.06" y2="369.32"/>
    <line class="cls-1" x1="232.06" y1="369.32" x2="336.58" y2="353.44"/>
    <line class="cls-1" x1="232.06" y1="369.32" x2="232.06" y2="372.59"/>
    <line class="cls-1" x1="232.06" y1="372.59" x2="341.98" y2="355.9"/>
    <line class="cls-1" x1="137.27" y1="274.3" x2="137.27" y2="281.29"/>
    <line class="cls-1" x1="135.87" y1="269.57" x2="135.87" y2="272.85"/>
    <line class="cls-1" x1="141.26" y1="268.75" x2="135.87" y2="269.57"/>
    <line class="cls-1" x1="135.87" y1="272.85" x2="232.06" y2="372.59"/>
    <line class="cls-1" x1="135.87" y1="269.57" x2="230" y2="367.18"/>
    <line class="cls-1" x1="154.98" y1="273.55" x2="240.6" y2="362.33"/>
    <line class="cls-1" x1="243.76" y1="253.19" x2="141.26" y2="268.75"/>
    <line class="cls-1" x1="262.87" y1="257.17" x2="262.06" y2="256.33"/>
    <line class="cls-1" x1="262.87" y1="257.17" x2="154.98" y2="273.55"/>
    <line class="cls-1" x1="262.87" y1="262.67" x2="262.87" y2="257.17"/>
    <line class="cls-1" x1="262.88" y1="262.66" x2="262.87" y2="262.65"/>
    <line class="cls-1" x1="262.87" y1="262.67" x2="159.61" y2="278.36"/>
    <line class="cls-1" x1="219.97" y1="228.52" x2="243.76" y2="253.19"/>
    <line class="cls-1" x1="217.91" y1="229.65" x2="241.01" y2="253.6"/>
    <line class="cls-1" x1="237.02" y1="230.36" x2="262.06" y2="256.33"/>
    <line class="cls-1" x1="239.43" y1="465.73" x2="333.83" y2="451.39"/>
    <line class="cls-1" x1="340.58" y1="450.36" x2="340.58" y2="450.01"/>
    <line class="cls-1" x1="232.69" y1="466.75" x2="232.69" y2="466.39"/>
    <line class="cls-1" x1="206.83" y1="439.94" x2="230.11" y2="464.08"/>
    <line class="cls-1" x1="340.58" y1="450.01" x2="340.58" y2="444.2"/>
    <line class="cls-1" x1="232.69" y1="466.39" x2="232.69" y2="460.59"/>
    <line class="cls-1" x1="232.69" y1="460.59" x2="232.69" y2="459.45"/>
    <line class="cls-1" x1="340.58" y1="444.2" x2="340.58" y2="443.07"/>
    <line class="cls-1" x1="328.42" y1="443.57" x2="328.42" y2="442.82"/>
    <line class="cls-1" x1="328.42" y1="442.82" x2="328.39" y2="442.79"/>
    <line class="cls-1" x1="245.43" y1="456.12" x2="245.48" y2="456.17"/>
    <line class="cls-1" x1="245.48" y1="456.17" x2="245.48" y2="455.42"/>
    <line class="cls-1" x1="245.48" y1="455.42" x2="245.44" y2="455.39"/>
    <line class="cls-1" x1="328.42" y1="443.57" x2="245.48" y2="456.17"/>
    <line class="cls-1" x1="328.42" y1="442.82" x2="245.48" y2="455.42"/>
    <line class="cls-1" x1="410.63" y1="399.6" x2="410.63" y2="400.35"/>
    <line class="cls-1" x1="410.59" y1="399.57" x2="410.63" y2="399.6"/>
    <line class="cls-1" x1="340.58" y1="410.24" x2="410.63" y2="399.6"/>
    <line class="cls-1" x1="340.58" y1="410.99" x2="410.63" y2="400.35"/>
    <line class="cls-1" x1="328.39" y1="414.37" x2="328.39" y2="442.79"/>
    <line class="cls-1" x1="245.44" y1="426.19" x2="328.42" y2="413.58"/>
    <line class="cls-1" x1="245.44" y1="455.76" x2="245.44" y2="426.19"/>
    <line class="cls-1" x1="410.59" y1="399.57" x2="410.59" y2="371.15"/>
    <line class="cls-1" x1="110.04" y1="302.66" x2="110.47" y2="303.11"/>
    <line class="cls-1" x1="111" y1="301.91" x2="111.32" y2="302.24"/>
    <line class="cls-1" x1="110.97" y1="301.86" x2="111" y2="301.91"/>
    <line class="cls-1" x1="110.97" y1="301.81" x2="110.97" y2="301.86"/>
    <line class="cls-1" x1="111.01" y1="301.77" x2="110.97" y2="301.81"/>
    <line class="cls-1" x1="111.07" y1="301.73" x2="111.01" y2="301.77"/>
    <line class="cls-1" x1="111.15" y1="301.69" x2="111.07" y2="301.73"/>
    <line class="cls-1" x1="111.28" y1="301.67" x2="111.15" y2="301.69"/>
    <line class="cls-1" x1="110.04" y1="301.82" x2="110.04" y2="302.66"/>
    <line class="cls-1" x1="137.27" y1="298.46" x2="111.46" y2="302.38"/>
    <line class="cls-1" x1="137.27" y1="297.72" x2="111.28" y2="301.67"/>
    <line class="cls-1" x1="111.32" y1="302.24" x2="136.93" y2="328.79"/>
    <line class="cls-1" x1="110.47" y1="303.11" x2="135.92" y2="329.5"/>
    <line class="cls-1" x1="110.47" y1="331.57" x2="135.92" y2="357.95"/>
    <line class="cls-1" x1="110.47" y1="332.31" x2="136.25" y2="359.04"/>
    <line class="cls-1" x1="137.27" y1="297.37" x2="110.68" y2="301.41"/>
    <line class="cls-1" x1="110.04" y1="301.82" x2="136.25" y2="329"/>
    <line class="cls-1" x1="109.69" y1="301.41" x2="109.95" y2="301.68"/>
    <line class="cls-1" x1="109.95" y1="301.68" x2="110.81" y2="301.55"/>
    <line class="cls-1" x1="110.81" y1="301.55" x2="110.55" y2="301.28"/>
    <line class="cls-1" x1="110.55" y1="301.28" x2="109.69" y2="301.41"/>
    <line class="cls-1" x1="109.69" y1="331.5" x2="109.69" y2="301.41"/>
    <line class="cls-1" x1="109.95" y1="331.02" x2="109.95" y2="301.68"/>
    <line class="cls-1" x1="110.81" y1="301.7" x2="110.81" y2="301.55"/>
    <line class="cls-1" x1="136.25" y1="359.04" x2="136.93" y2="358.94"/>
    <line class="cls-1" x1="136.25" y1="359.04" x2="136.25" y2="329"/>
    <line class="cls-1" x1="136.93" y1="358.94" x2="136.93" y2="328.79"/>
    <line class="cls-1" x1="135.92" y1="357.95" x2="135.92" y2="329.5"/>
    <line class="cls-1" x1="109.95" y1="331.02" x2="110.47" y2="331.57"/>
    <line class="cls-1" x1="109.69" y1="331.5" x2="110.47" y2="332.31"/>
    <line class="cls-1" x1="409.13" y1="418.15" x2="409.13" y2="400.58"/>
    <line class="cls-1" x1="408.55" y1="411.3" x2="408.55" y2="400.66"/>
    <line class="cls-1" x1="408.55" y1="411.3" x2="408.55" y2="418.09"/>
    <line class="cls-1" x1="408.55" y1="418.09" x2="340.58" y2="428.41"/>
    <line class="cls-1" x1="410.16" y1="370.4" x2="409.9" y2="370.13"/>
    <line class="cls-1" x1="110.04" y1="301.82" x2="110.81" y2="301.7"/>
    <line class="cls-1" x1="136.25" y1="329" x2="136.93" y2="328.79"/>
  </g>
  <line class="cls-3" x1="327.31" y1="209.15" x2="423.47" y2="308.86"/>
  <line class="cls-3" x1="422.62" y1="497.26" x2="422.62" y2="307.96"/>
  <line class="cls-3" x1="342.06" y1="540.13" x2="342.06" y2="506.37"/>
  <line class="cls-3" x1="423.65" y1="495.47" x2="340.58" y2="508.09"/>
  <line class="cls-3" x1="232.21" y1="556.59" x2="343.62" y2="539.67"/>
  <line class="cls-3" x1="110.92" y1="430.25" x2="233.47" y2="557.33"/>
  <line class="cls-3" x1="217.91" y1="224.65" x2="217.91" y2="257.11"/>
  <line class="cls-3" x1="135.66" y1="268.16" x2="218.92" y2="255.59"/>
  <line class="cls-3" x1="217.91" y1="226.38" x2="328.8" y2="209.54"/>
  <line class="cls-3" x1="137.27" y1="299.09" x2="137.27" y2="266.71"/>
  <line class="cls-3" x1="110.04" y1="301.82" x2="137.27" y2="297.37"/>
  <line class="cls-3" x1="111.42" y1="431.46" x2="111.42" y2="300.15"/>
</svg>