<?xml version="1.0" encoding="UTF-8"?>
<svg id="Warstwa_1" xmlns="http://www.w3.org/2000/svg" xmlns:xlink="http://www.w3.org/1999/xlink" viewBox="0 0 541 788">
  <defs>
    <style>
      .cls-1 {
        stroke-linecap: round;
        stroke-linejoin: round;
        stroke-width: .4px;
      }

      .cls-1, .cls-2, .cls-3 {
        fill: none;
      }

      .cls-1, .cls-3 {
        stroke: #000;
      }

      .cls-2 {
        clip-rule: evenodd;
      }

      .cls-3 {
        stroke-miterlimit: 10;
        stroke-width: 3.5px;
      }

      .cls-4 {
        clip-path: url(#clippath);
      }
    </style>
    <clipPath id="clippath">
      <polyline class="cls-2" points="0 0 541 0 541 788 0 788 0 0"/>
    </clipPath>
  </defs>
  <g class="cls-4">
    <line class="cls-1" x1="240.71" y1="516.36" x2="240.71" y2="519.43"/>
    <line class="cls-1" x1="240.71" y1="519.43" x2="321.63" y2="507.14"/>
    <line class="cls-1" x1="321.63" y1="507.14" x2="319.05" y2="504.46"/>
    <line class="cls-1" x1="319.05" y1="504.46" x2="240.71" y2="516.36"/>
    <line class="cls-1" x1="131.8" y1="346.53" x2="131.8" y2="422.83"/>
    <line class="cls-1" x1="227.22" y1="524.16" x2="227.22" y2="445.47"/>
    <line class="cls-1" x1="335.11" y1="505.38" x2="335.11" y2="425.76"/>
    <line class="cls-1" x1="239.86" y1="519.55" x2="239.86" y2="445.1"/>
    <line class="cls-1" x1="240.71" y1="445.71" x2="240.71" y2="519.43"/>
    <line class="cls-1" x1="276.91" y1="506.59" x2="240.71" y2="512.09"/>
    <line class="cls-1" x1="276.91" y1="440.22" x2="276.91" y2="506.59"/>
    <line class="cls-1" x1="240.71" y1="512.32" x2="277.1" y2="506.79"/>
    <line class="cls-1" x1="277.1" y1="508.28" x2="240.71" y2="513.81"/>
    <line class="cls-1" x1="277.1" y1="506.79" x2="276.91" y2="506.59"/>
    <line class="cls-1" x1="315.99" y1="501.42" x2="279.43" y2="506.97"/>
    <line class="cls-1" x1="315.99" y1="434.28" x2="315.99" y2="501.42"/>
    <line class="cls-1" x1="317.87" y1="434" x2="317.87" y2="501.36"/>
    <line class="cls-1" x1="316.18" y1="501.62" x2="316.18" y2="434.25"/>
    <line class="cls-1" x1="277.74" y1="507.46" x2="277.74" y2="440.09"/>
    <line class="cls-1" x1="279.43" y1="439.83" x2="279.43" y2="507.2"/>
    <line class="cls-1" x1="277.1" y1="506.79" x2="277.1" y2="440.19"/>
    <line class="cls-1" x1="277.74" y1="508.95" x2="277.74" y2="507.46"/>
    <line class="cls-1" x1="279.43" y1="507.2" x2="316.18" y2="501.62"/>
    <line class="cls-1" x1="277.1" y1="508.28" x2="277.1" y2="506.79"/>
    <line class="cls-1" x1="277.74" y1="508.95" x2="277.1" y2="508.28"/>
    <line class="cls-1" x1="316.18" y1="501.62" x2="315.99" y2="501.42"/>
    <line class="cls-1" x1="317.87" y1="502.85" x2="317.87" y2="501.36"/>
    <line class="cls-1" x1="240.71" y1="514.57" x2="317.87" y2="502.85"/>
    <line class="cls-1" x1="319.05" y1="504.46" x2="319.05" y2="504.17"/>
    <line class="cls-1" x1="319.05" y1="504.17" x2="319.05" y2="433.82"/>
    <line class="cls-1" x1="321.63" y1="507.14" x2="321.63" y2="433.42"/>
    <line class="cls-1" x1="322.47" y1="507.01" x2="322.47" y2="432.55"/>
    <line class="cls-1" x1="321.63" y1="433.42" x2="240.71" y2="445.71"/>
    <line class="cls-1" x1="239.86" y1="445.1" x2="322.47" y2="432.55"/>
    <line class="cls-1" x1="322.47" y1="507.01" x2="321.63" y2="507.14"/>
    <line class="cls-1" x1="84.09" y1="373.36" x2="227.22" y2="521.77"/>
    <line class="cls-1" x1="131.8" y1="366.11" x2="92.95" y2="372.01"/>
    <line class="cls-1" x1="84.09" y1="373.95" x2="84.09" y2="373.36"/>
    <line class="cls-1" x1="84.09" y1="376.4" x2="84.09" y2="373.95"/>
    <line class="cls-1" x1="227.22" y1="524.81" x2="227.22" y2="524.16"/>
    <line class="cls-1" x1="227.22" y1="530.98" x2="227.22" y2="530.62"/>
    <line class="cls-1" x1="84.09" y1="382.56" x2="84.09" y2="382.2"/>
    <line class="cls-1" x1="227.22" y1="531.72" x2="335.11" y2="515.33"/>
    <line class="cls-1" x1="84.09" y1="383.31" x2="227.22" y2="531.72"/>
    <line class="cls-1" x1="227.22" y1="531.72" x2="227.22" y2="530.98"/>
    <line class="cls-1" x1="84.09" y1="383.31" x2="84.09" y2="382.56"/>
    <line class="cls-1" x1="227.22" y1="530.62" x2="227.22" y2="524.81"/>
    <line class="cls-1" x1="84.09" y1="382.2" x2="84.09" y2="376.4"/>
    <line class="cls-1" x1="86.54" y1="375.9" x2="92.95" y2="374.92"/>
    <line class="cls-1" x1="86.54" y1="375.9" x2="86.54" y2="299.6"/>
    <line class="cls-1" x1="92.95" y1="374.92" x2="92.95" y2="306.24"/>
    <line class="cls-1" x1="84.09" y1="373.36" x2="84.09" y2="297.06"/>
    <line class="cls-1" x1="419.8" y1="381.48" x2="419.8" y2="380.88"/>
    <line class="cls-1" x1="311.91" y1="393.05" x2="419.8" y2="379.99"/>
    <line class="cls-1" x1="419.8" y1="379.99" x2="299.88" y2="255.64"/>
    <line class="cls-1" x1="299.88" y1="255.64" x2="191.99" y2="268.7"/>
    <line class="cls-1" x1="419.8" y1="380.88" x2="419.8" y2="379.99"/>
    <line class="cls-1" x1="421.58" y1="470.79" x2="421.58" y2="409.63"/>
    <line class="cls-1" x1="421.58" y1="470.79" x2="422.87" y2="470.6"/>
    <line class="cls-1" x1="424.95" y1="386.83" x2="424.95" y2="385.34"/>
    <line class="cls-1" x1="424.95" y1="385.34" x2="423.66" y2="384"/>
    <line class="cls-1" x1="420.29" y1="469.45" x2="420.29" y2="409.78"/>
    <line class="cls-1" x1="420.29" y1="469.45" x2="421.58" y2="470.79"/>
    <line class="cls-1" x1="424.16" y1="473.47" x2="424.16" y2="409.31"/>
    <line class="cls-1" x1="424.16" y1="473.47" x2="425.45" y2="473.27"/>
    <line class="cls-1" x1="427.53" y1="389.5" x2="427.53" y2="388.01"/>
    <line class="cls-1" x1="427.53" y1="388.01" x2="426.24" y2="386.67"/>
    <line class="cls-1" x1="422.87" y1="472.13" x2="422.87" y2="409.47"/>
    <line class="cls-1" x1="422.87" y1="472.13" x2="424.16" y2="473.47"/>
    <line class="cls-1" x1="426.74" y1="476.14" x2="426.74" y2="409"/>
    <line class="cls-1" x1="426.74" y1="476.14" x2="428.03" y2="475.94"/>
    <line class="cls-1" x1="430.11" y1="392.18" x2="430.11" y2="390.68"/>
    <line class="cls-1" x1="430.11" y1="390.68" x2="428.82" y2="389.35"/>
    <line class="cls-1" x1="425.45" y1="474.8" x2="425.45" y2="409.16"/>
    <line class="cls-1" x1="425.45" y1="474.8" x2="426.74" y2="476.14"/>
    <line class="cls-1" x1="429.32" y1="478.81" x2="429.32" y2="408.69"/>
    <line class="cls-1" x1="429.32" y1="478.81" x2="430.61" y2="478.62"/>
    <line class="cls-1" x1="432.69" y1="394.85" x2="432.69" y2="393.36"/>
    <line class="cls-1" x1="432.69" y1="393.36" x2="431.4" y2="392.02"/>
    <line class="cls-1" x1="428.03" y1="477.48" x2="428.03" y2="408.85"/>
    <line class="cls-1" x1="428.03" y1="477.48" x2="429.32" y2="478.81"/>
    <line class="cls-1" x1="431.9" y1="481.49" x2="431.9" y2="408.38"/>
    <line class="cls-1" x1="431.9" y1="481.49" x2="433.19" y2="481.29"/>
    <line class="cls-1" x1="435.27" y1="397.53" x2="435.27" y2="396.03"/>
    <line class="cls-1" x1="435.27" y1="396.03" x2="433.98" y2="394.7"/>
    <line class="cls-1" x1="430.61" y1="480.15" x2="430.61" y2="408.54"/>
    <line class="cls-1" x1="430.61" y1="480.15" x2="431.9" y2="481.49"/>
    <line class="cls-1" x1="434.48" y1="484.16" x2="434.48" y2="408.06"/>
    <line class="cls-1" x1="434.48" y1="484.16" x2="435.77" y2="483.97"/>
    <line class="cls-1" x1="437.85" y1="400.2" x2="437.85" y2="398.71"/>
    <line class="cls-1" x1="437.85" y1="398.71" x2="436.56" y2="397.37"/>
    <line class="cls-1" x1="433.19" y1="482.83" x2="433.19" y2="408.22"/>
    <line class="cls-1" x1="433.19" y1="482.83" x2="434.48" y2="484.16"/>
    <line class="cls-1" x1="437.05" y1="486.84" x2="437.05" y2="407.75"/>
    <line class="cls-1" x1="437.05" y1="486.84" x2="438.34" y2="486.64"/>
    <line class="cls-1" x1="440.43" y1="402.87" x2="440.43" y2="401.38"/>
    <line class="cls-1" x1="440.43" y1="401.38" x2="439.14" y2="400.04"/>
    <line class="cls-1" x1="435.77" y1="485.5" x2="435.77" y2="407.91"/>
    <line class="cls-1" x1="435.77" y1="485.5" x2="437.05" y2="486.84"/>
    <line class="cls-1" x1="332.54" y1="414.44" x2="440.43" y2="401.38"/>
    <line class="cls-1" x1="331.25" y1="413.1" x2="439.14" y2="400.04"/>
    <line class="cls-1" x1="331.25" y1="413.1" x2="332.54" y2="414.44"/>
    <line class="cls-1" x1="329.96" y1="411.76" x2="437.85" y2="398.7"/>
    <line class="cls-1" x1="328.67" y1="410.43" x2="436.56" y2="397.37"/>
    <line class="cls-1" x1="328.67" y1="410.43" x2="329.96" y2="411.76"/>
    <line class="cls-1" x1="327.38" y1="409.09" x2="435.27" y2="396.03"/>
    <line class="cls-1" x1="326.09" y1="407.75" x2="433.98" y2="394.69"/>
    <line class="cls-1" x1="326.09" y1="407.75" x2="327.38" y2="409.09"/>
    <line class="cls-1" x1="324.8" y1="406.42" x2="432.69" y2="393.36"/>
    <line class="cls-1" x1="323.51" y1="405.08" x2="431.4" y2="392.02"/>
    <line class="cls-1" x1="323.51" y1="405.08" x2="324.8" y2="406.42"/>
    <line class="cls-1" x1="322.22" y1="403.74" x2="430.11" y2="390.68"/>
    <line class="cls-1" x1="320.93" y1="402.4" x2="428.82" y2="389.34"/>
    <line class="cls-1" x1="320.93" y1="402.4" x2="322.22" y2="403.74"/>
    <line class="cls-1" x1="319.64" y1="401.07" x2="427.53" y2="388.01"/>
    <line class="cls-1" x1="318.35" y1="399.73" x2="426.24" y2="386.67"/>
    <line class="cls-1" x1="318.35" y1="399.73" x2="319.64" y2="401.07"/>
    <line class="cls-1" x1="317.06" y1="398.39" x2="424.95" y2="385.33"/>
    <line class="cls-1" x1="315.77" y1="397.06" x2="423.66" y2="384"/>
    <line class="cls-1" x1="315.77" y1="397.06" x2="317.06" y2="398.39"/>
    <line class="cls-1" x1="441.72" y1="402.72" x2="443" y2="404.05"/>
    <line class="cls-1" x1="335.11" y1="417.11" x2="443" y2="404.05"/>
    <line class="cls-1" x1="335.11" y1="420.09" x2="439.63" y2="407.44"/>
    <line class="cls-1" x1="333.82" y1="415.78" x2="441.72" y2="402.72"/>
    <line class="cls-1" x1="333.82" y1="415.78" x2="335.11" y2="417.11"/>
    <line class="cls-1" x1="439.63" y1="489.51" x2="439.63" y2="407.44"/>
    <line class="cls-1" x1="443" y1="489" x2="443" y2="404.05"/>
    <line class="cls-1" x1="438.34" y1="488.17" x2="438.34" y2="407.6"/>
    <line class="cls-1" x1="438.34" y1="488.17" x2="439.63" y2="489.51"/>
    <line class="cls-1" x1="421.08" y1="381.32" x2="422.37" y2="382.66"/>
    <line class="cls-1" x1="314.48" y1="395.72" x2="422.37" y2="382.66"/>
    <line class="cls-1" x1="313.19" y1="394.38" x2="421.08" y2="381.32"/>
    <line class="cls-1" x1="313.19" y1="394.38" x2="314.48" y2="395.72"/>
    <line class="cls-1" x1="419" y1="468.12" x2="419" y2="409.94"/>
    <line class="cls-1" x1="419" y1="468.12" x2="420.29" y2="467.92"/>
    <line class="cls-1" x1="422.37" y1="384.15" x2="422.37" y2="382.66"/>
    <line class="cls-1" x1="417.71" y1="466.78" x2="417.71" y2="410.09"/>
    <line class="cls-1" x1="417.71" y1="466.78" x2="419" y2="468.12"/>
    <line class="cls-1" x1="227.22" y1="521.77" x2="439.63" y2="489.51"/>
    <line class="cls-1" x1="443" y1="492.04" x2="443" y2="489.6"/>
    <line class="cls-1" x1="443" y1="498.2" x2="443" y2="497.84"/>
    <line class="cls-1" x1="335.11" y1="515.33" x2="443" y2="498.95"/>
    <line class="cls-1" x1="443" y1="498.95" x2="443" y2="498.2"/>
    <line class="cls-1" x1="443" y1="489.6" x2="443" y2="489"/>
    <line class="cls-1" x1="417.71" y1="465.25" x2="366.02" y2="473.1"/>
    <line class="cls-1" x1="443" y1="497.84" x2="443" y2="492.04"/>
    <line class="cls-1" x1="131.8" y1="337.88" x2="227.22" y2="436.83"/>
    <line class="cls-1" x1="227.22" y1="436.83" x2="335.11" y2="417.11"/>
    <line class="cls-1" x1="333.82" y1="415.78" x2="332.54" y2="414.44"/>
    <line class="cls-1" x1="331.25" y1="413.1" x2="329.96" y2="411.76"/>
    <line class="cls-1" x1="328.67" y1="410.43" x2="327.38" y2="409.09"/>
    <line class="cls-1" x1="326.09" y1="407.75" x2="324.8" y2="406.42"/>
    <line class="cls-1" x1="323.51" y1="405.08" x2="322.22" y2="403.74"/>
    <line class="cls-1" x1="320.93" y1="402.41" x2="319.64" y2="401.07"/>
    <line class="cls-1" x1="318.35" y1="399.73" x2="317.06" y2="398.39"/>
    <line class="cls-1" x1="315.77" y1="397.06" x2="314.48" y2="395.72"/>
    <line class="cls-1" x1="313.19" y1="394.38" x2="191.99" y2="268.7"/>
    <line class="cls-1" x1="227.22" y1="437.72" x2="227.22" y2="436.83"/>
    <line class="cls-1" x1="227.22" y1="438.47" x2="227.22" y2="437.72"/>
    <line class="cls-1" x1="227.22" y1="438.82" x2="227.22" y2="438.47"/>
    <line class="cls-1" x1="227.22" y1="444.63" x2="227.22" y2="438.82"/>
    <line class="cls-1" x1="335.11" y1="424.92" x2="335.11" y2="420.09"/>
    <line class="cls-1" x1="335.11" y1="425.76" x2="335.11" y2="424.92"/>
    <line class="cls-1" x1="227.22" y1="445.47" x2="227.22" y2="444.63"/>
    <line class="cls-1" x1="335.67" y1="477.71" x2="335.11" y2="477.79"/>
    <line class="cls-1" x1="335.67" y1="477.71" x2="336.35" y2="477.6"/>
    <line class="cls-1" x1="336.35" y1="477.6" x2="336.35" y2="419.94"/>
    <line class="cls-1" x1="360.81" y1="469.7" x2="336.35" y2="473.42"/>
    <line class="cls-1" x1="360.81" y1="416.98" x2="360.81" y2="469.7"/>
    <line class="cls-1" x1="360.81" y1="469.7" x2="361.78" y2="470.71"/>
    <line class="cls-1" x1="361.78" y1="416.86" x2="361.78" y2="470.71"/>
    <line class="cls-1" x1="361.78" y1="470.71" x2="362.79" y2="470.55"/>
    <line class="cls-1" x1="362.79" y1="416.74" x2="362.79" y2="470.55"/>
    <line class="cls-1" x1="365.34" y1="416.43" x2="365.34" y2="473.2"/>
    <line class="cls-1" x1="365.34" y1="473.2" x2="366.02" y2="473.1"/>
    <line class="cls-1" x1="363.41" y1="471.2" x2="365.34" y2="473.2"/>
    <line class="cls-1" x1="362.79" y1="470.55" x2="363.41" y2="471.2"/>
    <line class="cls-1" x1="191.99" y1="268.7" x2="84.09" y2="288.41"/>
    <line class="cls-1" x1="84.09" y1="288.41" x2="131.8" y2="337.88"/>
    <line class="cls-1" x1="84.09" y1="289.31" x2="84.09" y2="288.41"/>
    <line class="cls-1" x1="84.09" y1="290.05" x2="84.09" y2="289.31"/>
    <line class="cls-1" x1="84.09" y1="290.41" x2="84.09" y2="290.05"/>
    <line class="cls-1" x1="84.09" y1="296.22" x2="84.09" y2="290.41"/>
    <line class="cls-1" x1="84.09" y1="297.06" x2="84.09" y2="296.22"/>
    <line class="cls-1" x1="131.8" y1="346.53" x2="86.54" y2="299.6"/>
    <line class="cls-1" x1="240.71" y1="519.43" x2="239.86" y2="519.55"/>
  </g>
  <line class="cls-3" x1="84.23" y1="287.49" x2="84.09" y2="384.13"/>
  <line class="cls-3" x1="191.99" y1="268.7" x2="82.73" y2="288.66"/>
  <line class="cls-3" x1="300.52" y1="255.56" x2="191.99" y2="268.7"/>
  <line class="cls-3" x1="443.56" y1="404.63" x2="299.19" y2="254.93"/>
  <line class="cls-3" x1="443" y1="500.63" x2="443" y2="403.36"/>
  <line class="cls-3" x1="226.69" y1="531.8" x2="443" y2="498.95"/>
  <line class="cls-3" x1="227.93" y1="532.45" x2="83.7" y2="382.89"/>
</svg>