<svg width="197" height="224" viewBox="0 0 197 224" fill="none" xmlns="http://www.w3.org/2000/svg">
<path d="M86.8711 0.240265C86.5703 0.376724 77.4262 10.815 66.5074 23.4365C51.2571 41.0724 46.6249 46.6327 46.4745 47.4514C46.3843 48.0313 46.294 56.6957 46.294 66.6906C46.294 81.0518 46.2038 84.9064 45.9331 84.9064C44.1885 84.9064 1.7164 90.3985 1.23513 90.6714C0.904252 90.876 0.483141 91.5242 0.302665 92.1041C-0.0582874 93.298 -0.118446 173.768 0.242506 175.303C0.513221 176.429 -1.17122 175.201 34.8338 200.99L42.4739 206.482L65.5147 204.913C81.8177 203.821 88.736 203.48 89.1571 203.719C89.488 203.923 95.7746 208.392 103.144 213.679C110.513 218.967 116.77 223.401 117.041 223.504C117.853 223.845 194.706 216.715 195.458 216.238C195.819 216.033 196.24 215.487 196.39 215.01C196.721 214.055 196.811 90.7396 196.48 89.3751C196.36 88.8975 189.081 81.427 177.049 69.4537L157.768 50.3168L126.185 27.4958C88.4954 0.240265 88.1043 -0.0326233 87.6832 0.0014801C87.5027 0.0014801 87.1418 0.103821 86.8711 0.240265ZM120.891 28.8944C138.668 41.7547 153.617 52.5682 154.098 52.9434L154.941 53.6257L136.352 74.7069C126.095 86.3391 117.642 95.8223 117.522 95.8223C117.311 95.8223 51.7384 48.2018 51.3474 47.7925C51.0165 47.4173 87.8035 5.05006 88.1946 5.32297C88.4051 5.45941 103.114 16.0683 120.891 28.8944ZM84.194 72.4555C101.971 85.3499 116.71 96.0952 116.92 96.2999C117.191 96.6069 117.281 108.171 117.221 152.721L117.131 208.767L115.176 207.335C114.093 206.55 111.717 204.776 109.852 203.378C108.017 202.013 106.423 200.887 106.332 200.887C106.272 200.887 103.445 198.875 100.076 196.419C96.707 193.963 92.9772 191.234 91.8041 190.347L89.6083 188.778V152.448V116.119L69.9063 101.792L50.2043 87.4989V68.328C50.2043 57.7873 50.2946 48.8841 50.3848 48.5771C50.5653 48.0995 50.6555 48.0995 51.227 48.5089C51.5579 48.7817 66.4171 59.5271 84.194 72.4555ZM174.883 73.1378L192.75 90.876L192.781 147.229V203.616H191.457C190.735 203.616 189.712 203.719 189.201 203.821L188.269 204.026L188.239 148.15V92.2405L173.53 77.7429C165.438 69.7607 158.249 62.6995 157.558 62.0513L156.324 60.8915L140.563 78.9368L124.831 97.0162L124.801 152.858V208.733H123.658C122.996 208.733 121.462 208.836 120.199 208.938L117.883 209.177V152.755V96.334L136.592 75.1163L155.302 53.8986L156.144 54.649C156.595 55.0584 165.017 63.3817 174.883 73.1378ZM172.778 77.8793C179.967 84.9747 185.14 90.3302 185.201 90.7396C185.291 91.3195 185.08 91.2513 183.456 90.1256C182.463 89.4092 180.448 87.6695 179.004 86.2709C177.56 84.8382 175.966 83.4055 175.455 83.0303C174.943 82.655 170.191 78.0499 164.867 72.7966L155.211 63.2453L155.843 62.4948L156.475 61.7443L158.46 63.7228C159.543 64.8144 166.01 71.1934 172.778 77.8793ZM164.777 73.4789L174.432 83.0303V101.178C174.432 112.196 174.312 119.36 174.161 119.36C174.011 119.36 170.853 119.598 167.153 119.871C154.911 120.826 133.434 122.396 130.065 122.6C128.26 122.703 126.456 122.873 126.095 122.975C125.704 123.044 125.403 122.975 125.403 122.805C125.403 122.361 126.666 122.225 135.118 121.611C139.029 121.338 142.337 121.031 142.488 120.963C142.608 120.861 142.668 113.015 142.608 103.498L142.548 86.1686L138.547 86.4415L134.577 86.6803L135.419 85.6569C136.231 84.7018 136.412 84.6335 139.63 84.4289C143.962 84.1218 150.94 83.6102 155.933 83.2008C158.099 83.0303 162.581 82.6891 165.95 82.4845C169.289 82.2457 172.026 81.9387 172.026 81.8363C172.026 81.6658 169.258 78.8686 158.009 67.8163C155.963 65.8037 154.399 64.0639 154.489 63.9616C154.61 63.8252 154.79 63.7911 154.911 63.8252C155.001 63.8934 159.453 68.2256 164.777 73.4789ZM162.521 73.1378L170.823 81.3247L165.95 81.734C163.243 81.9387 158.671 82.2798 155.783 82.5186C146.067 83.2349 141.826 83.5419 139.39 83.7466L136.983 83.9172L145.406 74.3658C150.038 69.0784 153.918 64.8144 154.008 64.8485C154.129 64.9167 157.949 68.635 162.521 73.1378ZM175.726 84.0195C176.207 84.4289 176.237 85.7251 176.237 102.474V120.451L175.635 120.008C175.034 119.53 175.004 119.189 174.943 101.519C174.913 91.6265 174.943 83.5419 175.034 83.5419C175.124 83.5419 175.425 83.7807 175.726 84.0195ZM181.05 142.112V195.088H180.388C179.997 195.088 179.034 195.191 178.192 195.293L176.688 195.498L176.778 140.202L176.838 84.8723L178.944 86.9873L181.05 89.1363V142.112ZM141.946 103.634V120.281L139.931 120.519C138.788 120.622 135.449 120.861 132.471 121.065C129.494 121.27 126.696 121.475 126.245 121.577L125.403 121.713V109.365V97.0162L129.704 92.1723L133.975 87.3284L136.231 87.1919C137.465 87.1237 139.269 87.0555 140.232 87.0214L141.946 86.9532V103.634ZM74.8694 106.158C82.0584 111.377 88.0442 115.778 88.1645 115.914C88.2848 116.051 86.6004 116.324 84.4046 116.562C79.5618 117.074 68.643 118.302 54.4154 119.905C48.55 120.554 43.4966 121.031 43.2259 120.929C42.3235 120.69 6.19822 94.2872 6.61933 94.219C6.85997 94.1508 16.4553 92.9569 27.9456 91.5583C40.9399 89.955 49.0613 88.7952 49.4223 88.5223C49.9637 88.1471 50.6555 88.5223 55.8893 92.3429C59.1379 94.6966 67.6805 100.905 74.8694 106.158ZM184.96 144.875V197.886L184.027 196.999C183.516 196.487 182.704 195.873 182.223 195.566L181.35 195.054V142.215V89.3751L183.155 90.6373L184.93 91.8994L184.96 144.875ZM187.667 148.116V203.651L186.765 203.037L185.862 202.457V146.888V91.3536L186.765 91.9676L187.667 92.5475V148.116ZM24.1857 108.069L42.8349 121.611L42.9251 156.644C42.9552 175.917 42.8951 191.677 42.8048 191.677C42.6243 191.677 23.3735 177.691 17.7788 173.53C16.8463 172.813 15.8537 172.131 15.6131 171.995C15.3724 171.858 15.0115 171.585 14.8009 171.381C14.5302 171.039 7.1006 165.718 4.93489 164.285C4.60401 164.046 4.24306 163.705 4.12274 163.535C3.82195 163.125 3.82195 95.0036 4.09267 94.6966C4.1829 94.5601 4.57394 94.4578 4.90481 94.4578C5.26576 94.4919 13.9286 100.598 24.1857 108.069ZM89.0067 152.585V188.539L87.593 188.744C86.7808 188.846 84.8558 189.016 83.2916 189.119C79.0805 189.392 48.9711 191.609 45.903 191.882L43.256 192.087L43.2861 156.951L43.3462 121.816L44.8803 121.611C45.7526 121.509 54.1447 120.554 63.5897 119.53C73.0346 118.473 82.4193 117.415 84.4948 117.176C86.5703 116.904 88.4352 116.699 88.6458 116.665C88.9165 116.631 89.0067 124.033 89.0067 152.585ZM174.282 120.349C173.951 120.519 172.116 120.724 170.221 120.861C168.326 120.997 157.648 121.782 146.488 122.6C123.688 124.306 125.192 124.238 125.553 123.862C125.734 123.692 128.501 123.385 131.719 123.146C139.179 122.634 153.617 121.577 163.904 120.758C173.018 120.042 175.184 119.94 174.282 120.349ZM175.936 127.547C175.936 131.094 175.846 134.028 175.756 134.028C175.665 134.028 171.544 134.335 166.642 134.71C161.739 135.085 155.633 135.529 153.076 135.733C150.519 135.938 143.33 136.484 137.134 136.927C130.937 137.405 125.764 137.78 125.643 137.78C125.523 137.78 125.403 134.846 125.403 131.299C125.403 125.295 125.433 124.818 125.944 124.818C126.245 124.818 128.23 124.681 130.396 124.476C132.532 124.306 138.668 123.828 144.052 123.453C149.436 123.044 158.37 122.361 163.904 121.918C169.439 121.509 174.432 121.133 174.974 121.099L175.936 121.065V127.547ZM174.432 164.558V194.406H173.62C173.139 194.406 169.86 194.645 166.311 194.918C152.685 195.975 127.599 197.817 126.546 197.817C125.523 197.817 125.403 197.715 125.403 196.999C125.403 196.009 125.553 195.975 133.524 195.43C136.261 195.225 139.48 194.986 140.683 194.884L142.849 194.679V166.059V137.473L141.886 137.337C141.345 137.268 141.706 137.2 142.698 137.2C143.691 137.2 144.263 137.234 143.992 137.337C143.48 137.473 143.45 139.145 143.45 165.923C143.45 181.58 143.541 194.44 143.691 194.509C143.811 194.611 146.609 194.474 149.917 194.236C153.226 193.963 158.31 193.587 161.197 193.383C164.085 193.144 167.815 192.871 169.469 192.769L172.477 192.53L172.567 163.91C172.627 133.891 172.597 134.744 173.921 134.71C174.402 134.71 174.432 136.347 174.432 164.558ZM176.237 164.899C176.237 181.512 176.117 195.088 175.996 195.088C175.064 195.088 175.034 194.27 175.034 164.49C175.034 134.949 175.034 134.71 175.635 134.71C176.237 134.71 176.237 134.949 176.237 164.899ZM171.364 135.29C170.913 135.358 170.101 135.358 169.559 135.29C169.018 135.222 169.379 135.154 170.371 135.154C171.364 135.154 171.815 135.222 171.364 135.29ZM166.401 135.631C165.859 135.699 164.957 135.699 164.446 135.631C163.904 135.563 164.325 135.495 165.408 135.495C166.491 135.495 166.912 135.563 166.401 135.631ZM162.039 135.972C161.588 136.04 160.776 136.04 160.235 135.972C159.693 135.904 160.054 135.836 161.047 135.836C162.039 135.836 162.491 135.904 162.039 135.972ZM171.725 163.671V191.609L169.86 191.814C168.807 191.916 165.799 192.189 163.152 192.359C155.362 192.939 149.496 193.349 146.699 193.587L144.052 193.826V165.854V137.917L157.227 136.961C169.018 136.143 171.394 135.938 171.665 135.768C171.695 135.768 171.725 148.287 171.725 163.671ZM157.377 136.313C156.836 136.382 155.933 136.382 155.422 136.313C154.881 136.245 155.302 136.177 156.384 136.177C157.467 136.177 157.888 136.245 157.377 136.313ZM153.016 136.654C152.564 136.723 151.752 136.723 151.211 136.654C150.669 136.586 151.03 136.518 152.023 136.518C153.016 136.518 153.467 136.586 153.016 136.654ZM148.203 136.996C147.752 137.064 146.94 137.064 146.398 136.996C145.857 136.927 146.218 136.859 147.21 136.859C148.203 136.859 148.654 136.927 148.203 136.996ZM139.029 137.678C138.487 137.746 137.585 137.746 137.074 137.678C136.532 137.61 136.953 137.541 138.036 137.541C139.119 137.541 139.54 137.61 139.029 137.678ZM134.366 138.019C133.885 138.087 133.163 138.087 132.712 138.019C132.231 137.951 132.622 137.882 133.524 137.882C134.427 137.882 134.818 137.951 134.366 138.019ZM130.005 138.36C129.463 138.428 128.561 138.428 128.05 138.36C127.508 138.292 127.929 138.224 129.012 138.224C130.095 138.224 130.516 138.292 130.005 138.36ZM141.946 166.059V193.997L138.126 194.202C135.991 194.338 132.802 194.577 130.967 194.781C129.163 194.952 127.147 195.088 126.546 195.088H125.403V167.185V139.281L132.411 138.735C136.231 138.462 139.961 138.189 140.683 138.155L141.946 138.121V166.059ZM8.90536 167.833C11.5223 169.743 14.7408 172.097 16.0643 173.086C17.3877 174.075 23.8247 178.749 30.352 183.49C36.8792 188.198 42.4138 192.291 42.6243 192.496C42.8951 192.803 42.9853 194.065 42.9251 197.237L42.8349 201.536L23.5841 187.686C12.9962 180.079 4.24306 173.7 4.12274 173.461C3.88211 173.052 3.79187 164.388 4.00243 164.388C4.09267 164.388 6.28846 165.957 8.90536 167.833ZM89.2474 193.86C89.3075 196.862 89.2173 198.534 89.0067 198.67C88.736 198.841 46.655 201.877 43.9779 201.911C43.2861 201.911 43.2861 201.843 43.2861 197.306C43.2861 194.543 43.4064 192.701 43.5869 192.701C43.7373 192.701 46.8354 192.462 50.4149 192.189C59.1379 191.541 74.3881 190.415 80.7349 189.937C83.5624 189.767 86.2695 189.562 86.7508 189.494C87.2621 189.426 87.984 189.358 88.4051 189.358L89.1571 189.289L89.2474 193.86ZM100.738 197.579C106.453 201.706 112.499 206.107 114.183 207.335L117.251 209.586L117.281 214.123V218.626L116.168 217.841C115.537 217.364 109.431 212.997 102.603 208.085C95.8047 203.207 90.0595 199.182 89.9091 199.182C89.7286 199.182 89.6083 197.34 89.6083 194.372C89.6083 190.654 89.6985 189.63 89.9993 189.835C90.1798 189.972 95.0226 193.451 100.738 197.579ZM175.756 195.6C176.297 196.009 177.109 196.112 178.974 196.044C181.802 195.941 182.223 196.009 182.794 196.862C183.005 197.203 183.366 197.476 183.546 197.476C183.757 197.51 184.208 197.783 184.599 198.124C185.14 198.67 185.261 199.114 185.261 200.785C185.261 202.593 185.351 202.866 186.013 203.275C187.096 203.923 186.434 204.299 184.208 204.299C183.245 204.299 180.598 204.469 178.342 204.64C174.342 204.981 160.746 206.038 151.572 206.721C149.015 206.891 144.954 207.198 142.548 207.369C140.142 207.539 135.961 207.846 133.223 208.051C130.486 208.222 127.629 208.494 126.847 208.597L125.403 208.801V203.685V198.602L128.651 198.363C133.464 198.056 149.496 196.828 160.896 195.975C173.59 194.986 174.853 194.952 175.756 195.6ZM192.781 208.392V212.486L191.668 212.52C191.036 212.52 174.282 214.021 154.429 215.863C134.577 217.705 118.244 219.137 118.124 219.069C117.973 219.001 117.883 216.886 117.883 214.396V209.825L120.53 209.62C121.974 209.484 124.831 209.245 126.907 209.074C128.982 208.904 132.893 208.597 135.63 208.392C138.367 208.187 142.548 207.88 144.954 207.71C147.361 207.539 151.451 207.232 154.068 207.028C165.348 206.209 168.506 205.97 172.627 205.663C175.034 205.493 179.215 205.186 181.952 204.981C184.689 204.776 187.517 204.572 188.269 204.503C189.021 204.469 190.344 204.401 191.216 204.367L192.781 204.299V208.392Z" fill="#485145"/>
</svg>
