<svg width="277" height="192" viewBox="0 0 277 192" fill="none" xmlns="http://www.w3.org/2000/svg">
<path fill-rule="evenodd" clip-rule="evenodd" d="M118.3 5.08101C113.869 7.4438 109.647 9.69133 108.918 10.0755C108.188 10.4597 100.615 14.4772 92.0892 19.0034C83.5631 23.5289 70.0912 30.6802 62.1524 34.8951C53.3071 39.5902 47.6217 42.7201 47.4714 42.9771C47.2948 43.2785 47.1293 47.6338 46.88 58.4852C46.6903 66.7838 46.488 73.6185 46.4313 73.6728C46.3059 73.7927 45.6875 73.8735 21.2076 76.9656C1.26017 79.4854 0.972088 79.5337 0.625837 80.4293C0.37169 81.0877 -0.183695 150.812 0.0607574 151.342C0.17779 151.595 1.52955 152.543 3.23933 153.572C4.8764 154.556 7.40818 156.082 8.86728 156.963C19.9881 163.679 26.3231 167.496 32.2225 171.032C35.9807 173.285 39.8816 175.643 40.8913 176.272C43.3074 177.777 41.4501 177.783 67.306 176.194L89.234 174.846L90.3558 175.477C90.9729 175.823 92.4874 176.704 93.7214 177.433C94.9554 178.162 98.3971 180.183 101.37 181.923C104.343 183.664 107.785 185.684 109.019 186.412C110.253 187.14 112.841 188.657 114.771 189.782L118.277 191.828L156.28 189.361C177.181 188.004 212.497 185.71 234.76 184.264C277.863 181.464 275.843 181.624 276.264 180.984C276.676 180.357 276.878 75.8475 276.469 75.0804C276.28 74.7267 267.255 69.0367 246.918 56.4477C230.814 46.4792 215.182 36.7988 212.181 34.9355C206.229 31.24 206.397 31.3247 200.197 28.909C197.841 27.9909 192.333 25.8454 187.958 24.1403C183.583 22.436 179.131 20.6978 178.065 20.2772C176.999 19.8572 174.797 18.9954 173.17 18.3615C166.196 15.6443 154.334 11.0175 143.797 6.90394C137.571 4.47359 131.479 2.09755 130.26 1.62459C126.889 0.317011 127.645 0.0984187 118.3 5.08101ZM130.131 5.44732C131.474 5.98387 132.631 6.42304 132.703 6.42304C132.922 6.42304 195.608 44.8947 195.605 45.0285C195.604 45.1577 118.734 85.6411 118.438 85.6683C118.21 85.6895 51.5987 44.8497 51.6042 44.692C51.6091 44.5562 52.5585 44.0449 66.6945 36.5584C71.9111 33.7955 78.1526 30.4822 80.5646 29.1958C82.9766 27.9087 85.822 26.3991 86.8878 25.84C89.5352 24.451 104.956 16.2723 108.101 14.5885C122.025 7.13512 127.024 4.51002 127.33 4.4928C127.528 4.48154 128.788 4.91077 130.131 5.44732ZM146.143 11.6898C153.602 14.6031 174.994 22.9526 179.47 24.6981C204.707 34.5387 202.795 33.6518 215.098 41.2164C217.572 42.7373 222.024 45.4684 224.991 47.2847C227.958 49.101 231.12 51.0412 232.017 51.5962C232.915 52.1513 236.77 54.5194 240.584 56.8584C244.398 59.1973 250.87 63.1744 254.964 65.6962C267.085 73.1601 266.785 72.9687 265.775 72.5984C264.607 72.1705 196.988 45.0451 196.572 44.8378C195.991 44.5476 136.618 8.18636 136.372 7.96909C136.271 7.88033 136.868 8.0711 137.698 8.39435C138.528 8.71694 142.329 10.2001 146.143 11.6898ZM84.6309 65.6392L118.081 86.126L118.088 132.926L118.096 179.727L117.638 179.441C117.385 179.284 116.972 179.034 116.719 178.884L116.261 178.613V134.571C116.261 86.2631 116.348 90.1256 115.254 90.1256C115.101 90.1256 115.037 103.055 115.037 133.928C115.037 163 114.968 177.731 114.833 177.731C114.697 177.731 114.629 162.904 114.629 133.642C114.629 85.2841 114.716 89.1505 113.622 89.1505C113.47 89.1505 113.39 102.181 113.354 133.002L113.302 176.853L113.251 132.817L113.201 88.7822L112.748 88.4782C112.499 88.3113 112.223 88.1748 112.136 88.1748C112.048 88.1748 111.977 107.935 111.977 132.086C111.977 161.311 111.909 175.958 111.773 175.877C111.638 175.797 111.569 160.875 111.569 131.743C111.569 83.9321 111.641 87.2309 110.6 87.205C110.397 87.2004 110.346 96.0865 110.346 131.002C110.346 160.073 110.276 174.804 110.141 174.804C110.006 174.804 109.937 159.999 109.937 130.779C109.937 82.9577 110.009 86.2551 108.969 86.23C108.767 86.2247 108.704 95.1877 108.662 130.075L108.611 173.926L108.56 129.891L108.51 85.8557L108.056 85.5517C107.807 85.3848 107.532 85.2483 107.445 85.2483C107.357 85.2483 107.263 104.996 107.235 129.132L107.184 173.016L98.8203 167.886L90.4576 162.756L90.3558 131.959L90.2533 101.162L70.2636 88.9101L50.2739 76.6576L50.2095 75.8481C50.1742 75.403 50.2892 68.9287 50.4658 61.4614C50.6417 53.9941 50.785 47.2403 50.785 46.4534C50.7843 45.6114 50.866 45.0491 50.9824 45.0875C51.0918 45.1233 66.2333 54.3717 84.6309 65.6392ZM234.089 60.4373C264.227 72.5136 269.483 74.6783 271.162 75.7057L273.118 76.9033V98.0015C273.118 109.606 273.057 130.616 272.983 144.692L272.847 170.284L271.504 170.391C270.765 170.451 269.45 170.553 268.58 170.619L266.999 170.74V124.99C266.999 88.5729 266.947 79.2218 266.744 79.1442C266.604 79.0906 250.793 72.7541 231.609 65.0629C212.425 57.3724 196.588 51.0677 196.416 51.0531C196.243 51.0385 180.251 59.3629 160.877 69.552L125.65 88.0768L125.647 133.759L125.644 179.442L124.572 179.555C123.984 179.617 122.423 179.725 121.105 179.796L118.708 179.924L118.715 133.025L118.722 86.126L157.521 65.724L196.322 45.3226L197.647 45.8439C198.376 46.1314 214.775 52.6978 234.089 60.4373ZM227.89 64.1017C245.193 71.0364 259.465 76.7523 259.605 76.8046C259.808 76.8808 259.86 85.7199 259.86 120.096V163.293H259.279C258.96 163.293 257.996 163.35 257.137 163.418L255.577 163.545V122.079V80.6135L254.608 80.2173C247.934 77.4876 192.114 55.201 191.952 55.201C191.795 55.201 191.732 71.3027 191.732 111.365V167.529L189.743 167.657C188.649 167.728 186.102 167.87 184.083 167.973C182.064 168.076 179.792 168.216 179.035 168.283L177.657 168.405V114.85V61.2958L186.888 56.4132C191.964 53.7272 196.188 51.5221 196.274 51.5121C196.36 51.5022 210.587 57.1671 227.89 64.1017ZM222.568 67.9059C239.208 74.5723 252.938 80.069 253.077 80.1213C253.277 80.1962 253.333 82.2827 253.333 89.6433V99.07L252.058 99.1886C251.357 99.2541 238.116 100.092 222.634 101.051C207.152 102.01 193.958 102.846 193.313 102.909L192.139 103.023V79.4046C192.139 66.4142 192.179 55.7859 192.226 55.7859C192.274 55.7859 205.927 61.2402 222.568 67.9059ZM192.344 79.4172V101.292L193.619 101.175C194.32 101.11 202.833 100.572 212.537 99.9788C222.242 99.386 230.571 98.8521 231.048 98.7938L231.915 98.6865V85.9504V73.2144L212.352 65.3782C201.591 61.0686 192.688 57.542 192.566 57.542C192.407 57.542 192.344 63.7739 192.344 79.4172ZM214.373 66.7156L231.201 73.4582L231.254 85.8895C231.303 97.6591 231.287 98.3202 230.946 98.3202C230.748 98.3202 222.211 98.8474 211.976 99.4913C201.741 100.135 193.275 100.662 193.161 100.662C193.025 100.662 192.956 93.5515 192.956 79.4039V58.1461L195.25 59.0595C196.513 59.5616 205.118 63.0068 214.373 66.7156ZM177.249 83.2187V104.797L176.587 104.396L175.924 103.994L175.872 83.116L175.82 62.2384L176.382 61.947C176.691 61.786 177.013 61.6515 177.096 61.6476C177.181 61.6429 177.249 71.3498 177.249 83.2187ZM175.414 83.2829V103.951L174.343 104.064C173.513 104.152 126.747 107.1 126.184 107.1C126.111 107.1 126.051 106.717 126.051 106.249V105.398L128.244 105.269C129.45 105.198 131.056 105.087 131.814 105.022L133.19 104.904V94.7902C133.19 84.876 133.199 84.672 133.598 84.4673C134.004 84.26 134.006 84.319 134.006 94.5922V104.926L135.077 104.834C135.666 104.784 143.905 104.265 153.384 103.682C162.864 103.098 171.239 102.566 171.996 102.499L173.372 102.378L173.424 82.9418L173.476 63.5056L174.292 63.0638C174.74 62.8207 175.177 62.62 175.26 62.618C175.345 62.6166 175.414 71.9155 175.414 83.2829ZM172.966 82.863V101.941L154.761 103.072C144.748 103.694 136.073 104.252 135.483 104.313L134.411 104.423L134.464 94.2086L134.517 83.9944L153.691 73.8974C164.236 68.3438 172.887 63.797 172.915 63.7931C172.943 63.7891 172.966 72.3705 172.966 82.863ZM232.731 86.2399V98.7441L234.21 98.6235C235.631 98.5083 250.904 97.5398 251.303 97.5398C251.422 97.5398 251.497 94.3875 251.497 89.2962V81.0533L242.359 77.3948C237.333 75.3825 233.111 73.7364 232.976 73.7364C232.788 73.7364 232.731 76.639 232.731 86.2399ZM242.318 77.9069L250.783 81.301L250.837 89.1803L250.89 97.0596L243.493 97.5147C239.425 97.7651 235.431 98.0174 234.618 98.0757L233.139 98.1817V86.2386C233.139 74.9526 233.158 74.3014 233.496 74.4041C233.692 74.4644 237.662 76.0402 242.318 77.9069ZM69.5518 89.0618C83.0153 97.3113 89.1426 101.168 88.849 101.21C88.6114 101.243 78.3735 102.216 66.0976 103.373L43.7769 105.476L25.1999 94.0901C14.9827 87.8277 6.59865 82.6358 6.56887 82.5523C6.53909 82.4695 8.46702 82.1569 10.8527 81.8581C13.2383 81.5594 21.7069 80.4869 29.6728 79.4748C37.6379 78.4626 45.2914 77.5068 46.6812 77.3505C48.0704 77.1935 49.258 77.0173 49.3204 76.9577C49.5087 76.7775 49.2276 76.6099 69.5518 89.0618ZM260.625 141.894C260.596 153.717 260.572 143.986 260.572 120.27C260.572 96.5549 260.596 86.8818 260.625 98.7752C260.654 110.669 260.654 130.072 260.625 141.894ZM261.492 120.563C261.492 149.179 261.423 163.683 261.288 163.683C261.153 163.683 261.084 149.179 261.084 120.563C261.084 91.9465 261.153 77.4432 261.288 77.4432C261.423 77.4432 261.492 91.9465 261.492 120.563ZM262.308 121.051C262.308 149.733 262.239 164.268 262.103 164.268C261.968 164.268 261.9 149.733 261.9 121.051C261.9 92.3698 261.968 77.834 262.103 77.834C262.239 77.834 262.308 92.3698 262.308 121.051ZM262.869 143.05C262.84 154.988 262.816 145.22 262.816 121.343C262.816 97.467 262.84 87.6992 262.869 99.6377C262.898 111.576 262.898 131.111 262.869 143.05ZM263.684 143.65C263.655 155.58 263.632 145.761 263.632 121.831C263.632 97.9009 263.655 88.1404 263.684 100.141C263.714 112.141 263.714 131.721 263.684 143.65ZM265.853 79.2999L266.591 79.5947V124.956C266.591 149.904 266.543 170.317 266.485 170.317C266.426 170.317 266.013 170.086 265.567 169.803L264.756 169.289V124.147C264.756 98.3685 264.832 79.0045 264.934 79.0045C265.033 79.0045 265.446 79.137 265.853 79.2999ZM255.12 90.3965L255.172 99.8702L254.456 99.4661L253.741 99.062V89.7255V80.3889L254.404 80.6559L255.066 80.9221L255.12 90.3965ZM24.3917 94.1742L43.43 105.832L43.4355 135.557L43.441 165.282L42.8462 164.921C42.5193 164.723 37.2923 161.532 31.2302 157.829L20.2084 151.098L20.198 123.896C20.1883 98.8653 20.1606 96.6642 19.8503 96.3356C18.9307 95.3639 18.9639 94.3596 18.9639 123.111C18.9639 141.149 18.8954 150.203 18.7596 150.123C18.6253 150.043 18.556 140.692 18.556 122.705C18.556 92.8467 18.6343 95.0035 17.5492 95.0035C17.3968 95.0035 17.3317 103.062 17.3317 122.136C17.3317 140.174 17.2638 149.227 17.1281 149.147C16.9938 149.067 16.9238 139.717 16.9238 121.729C16.9238 91.873 17.0021 94.0278 15.9183 94.0278C15.7667 94.0278 15.6856 102.185 15.6489 121.197L15.597 148.367L15.5464 121.013L15.4959 93.6602L15.043 93.3561C14.7937 93.1892 14.5181 93.0527 14.4308 93.0527C14.3436 93.0527 14.2722 105.257 14.2722 120.173C14.2722 138.123 14.2037 147.294 14.0686 147.294C13.9336 147.294 13.8644 138.049 13.8644 119.95C13.8644 94.1384 13.8443 92.593 13.5077 92.3486C12.6068 91.6948 12.6407 90.6515 12.6407 119.197C12.6407 137.148 12.5715 146.318 12.4364 146.318C12.3014 146.318 12.2328 137.073 12.2328 118.975C12.2328 93.1627 12.2127 91.6173 11.8755 91.3729C10.978 90.7211 11.0126 89.6917 10.9579 118.27L10.9053 145.439L10.8548 118.086L10.8049 90.733L10.3513 90.4296C10.102 90.2627 9.82639 90.1256 9.73914 90.1256C9.65188 90.1256 9.58055 102.379 9.58055 117.355C9.58055 135.458 9.51269 144.545 9.37696 144.464C9.24262 144.385 9.17267 135.036 9.17267 117.051V89.7579L8.71978 89.4539C8.47048 89.287 8.19486 89.1505 8.10761 89.1505C8.02035 89.1505 7.94903 101.404 7.94903 116.38C7.94903 134.483 7.88047 143.569 7.74474 143.489C7.61039 143.409 7.54114 134.034 7.54114 115.998V88.6272L7.02454 88.402C6.27318 88.0748 6.32027 86.3969 6.26487 115.685L6.21362 142.708L6.16376 115.253C6.10836 85.2317 6.19077 87.3945 5.10701 87.3945C4.95396 87.3945 4.88956 95.4493 4.88956 114.515C4.88956 132.465 4.82031 141.635 4.68527 141.635C4.55024 141.635 4.48168 132.371 4.48168 114.234C4.48168 96.176 4.41174 86.791 4.27739 86.7115C4.16382 86.644 4.0738 85.7385 4.0738 84.6647C4.0738 82.594 4.01216 82.7133 5.17279 82.543C5.27251 82.5285 13.9211 87.7628 24.3917 94.1742ZM132.579 94.7836V104.514L129.672 104.649C128.074 104.722 126.605 104.828 126.408 104.882C126.072 104.975 126.051 104.494 126.051 96.7112V88.4411L129.264 86.7506C131.031 85.8206 132.499 85.0582 132.528 85.0562C132.555 85.0542 132.579 89.4314 132.579 94.7836ZM108.101 129.636C108.101 158.578 108.033 173.243 107.898 173.243C107.762 173.243 107.693 158.578 107.693 129.636C107.693 100.694 107.762 86.0286 107.898 86.0286C108.033 86.0286 108.101 100.694 108.101 129.636ZM109.479 152.399C109.449 164.454 109.425 154.649 109.425 130.612C109.425 106.574 109.449 96.7112 109.479 108.695C109.508 120.678 109.508 140.345 109.479 152.399ZM111.161 131.599C111.161 160.532 111.093 175.194 110.957 175.194C110.822 175.194 110.753 160.492 110.753 131.478C110.753 102.383 110.821 87.8019 110.957 87.882C111.092 87.9615 111.161 102.745 111.161 131.599ZM5.70533 115.014C5.70533 132.761 5.63608 141.83 5.50104 141.83C5.366 141.83 5.29744 132.721 5.29744 114.893C5.29744 96.9854 5.366 87.9966 5.50104 88.0768C5.63538 88.1562 5.70533 97.3471 5.70533 115.014ZM7.08202 129.392C7.05224 136.823 7.028 130.743 7.028 115.88C7.028 101.018 7.05224 94.9379 7.08202 102.369C7.11179 109.8 7.11179 121.961 7.08202 129.392ZM112.538 154.351C112.509 166.405 112.485 156.6 112.485 132.562C112.485 108.524 112.509 98.662 112.538 110.645C112.567 122.629 112.567 142.296 112.538 154.351ZM114.221 133.441C114.221 162.221 114.152 176.968 114.016 177.048C113.881 177.128 113.813 162.543 113.813 133.441C113.813 104.338 113.881 89.7526 114.016 89.8328C114.152 89.9129 114.221 104.66 114.221 133.441ZM8.76479 116.856C8.76479 134.676 8.69623 143.782 8.5612 143.782C8.42616 143.782 8.35691 134.676 8.35691 116.856C8.35691 99.0355 8.42616 89.9308 8.5612 89.9308C8.69623 89.9308 8.76479 99.0355 8.76479 116.856ZM115.852 134.428C115.852 163.297 115.784 177.926 115.649 177.926C115.513 177.926 115.444 163.256 115.444 134.307C115.444 105.277 115.513 90.7284 115.649 90.8085C115.784 90.8887 115.852 105.639 115.852 134.428ZM10.397 117.941C10.397 135.688 10.3278 144.757 10.1927 144.757C10.0577 144.757 9.98913 135.648 9.98913 117.82C9.98913 99.9119 10.057 90.9238 10.1927 91.0039C10.3271 91.0834 10.397 100.274 10.397 117.941ZM11.7737 132.319C11.7439 139.75 11.7197 133.67 11.7197 118.807C11.7197 103.945 11.7439 97.8644 11.7737 105.296C11.8035 112.727 11.8035 124.887 11.7737 132.319ZM13.4565 119.697C13.4565 137.444 13.3872 146.513 13.2522 146.513C13.1172 146.513 13.0486 137.404 13.0486 119.576C13.0486 101.668 13.1172 92.6798 13.2522 92.7599C13.3865 92.8394 13.4565 102.03 13.4565 119.697ZM14.8332 134.187C14.8034 141.557 14.7792 135.47 14.7792 120.66C14.7792 105.852 14.8034 99.8225 14.8332 107.262C14.8629 114.701 14.8629 126.818 14.8332 134.187ZM16.5159 121.648C16.5159 139.395 16.4474 148.464 16.3123 148.464C16.1773 148.464 16.1081 139.355 16.1081 121.527C16.1081 103.619 16.1766 94.6306 16.3123 94.7107C16.4467 94.7902 16.5159 103.98 16.5159 121.648ZM18.1482 122.623C18.1482 140.371 18.0789 149.44 17.9439 149.44C17.8088 149.44 17.7396 140.33 17.7396 122.502C17.7396 104.594 17.8081 95.6063 17.9439 95.6864C18.0782 95.7659 18.1482 104.956 18.1482 122.623ZM19.5249 137.001C19.4951 144.433 19.4708 138.352 19.4708 123.489C19.4708 108.627 19.4951 102.547 19.5249 109.978C19.5539 117.41 19.5539 129.57 19.5249 137.001ZM3.97269 140.821C3.76633 141.019 3.76356 140.426 3.86674 119.978L3.97131 99.1985L4.02324 119.961C4.05233 131.38 4.02878 140.767 3.97269 140.821ZM253.834 99.6734C254.026 99.9695 192.483 103.982 192.181 103.693C191.913 103.437 193.892 103.291 222.65 101.467C239.358 100.406 253.182 99.5277 253.372 99.5145C253.561 99.5019 253.77 99.5734 253.834 99.6734ZM254.76 105.588V110.905L223.909 112.818C206.941 113.87 192.851 114.772 192.599 114.822L192.139 114.912V109.543V104.174L193.007 104.164C193.637 104.157 232.128 101.731 254.404 100.295C254.735 100.273 254.761 100.646 254.76 105.588ZM89.7437 132.172V162.707H89.0332C88.6419 162.707 78.5439 163.322 66.592 164.073C54.6408 164.824 44.6342 165.439 44.3558 165.439H43.8489V135.684C43.8489 119.319 43.9175 105.925 44.002 105.918C44.0858 105.911 54.1139 104.956 66.2866 103.794C78.4587 102.632 88.716 101.672 89.0809 101.66L89.7437 101.637V132.172ZM175.917 104.554C176.125 104.876 126.445 108.128 126.117 107.813C125.854 107.562 126.457 107.517 150.733 105.977C164.251 105.119 175.421 104.406 175.555 104.393C175.688 104.38 175.851 104.452 175.917 104.554ZM176.841 110.471V115.794L152.416 117.312C138.981 118.147 127.553 118.88 127.02 118.941L126.051 119.053V113.759C126.051 110.848 126.074 108.457 126.103 108.446C126.13 108.434 137.444 107.698 151.243 106.81C165.041 105.923 176.446 105.186 176.587 105.173C176.785 105.155 176.841 106.331 176.841 110.471ZM253.537 136.936V162.479L252.058 162.6C251.244 162.666 237.912 163.505 222.43 164.463C206.949 165.422 193.799 166.254 193.211 166.312L192.139 166.418V140.856C192.139 126.798 192.209 115.29 192.293 115.283C192.869 115.237 252.531 111.436 252.976 111.417L253.537 111.393V136.936ZM255.169 137.334V163.274L254.558 162.942L253.947 162.61L253.946 137.001L253.944 111.393H254.557H255.169V137.334ZM241.4 112.963C236.912 113.264 233.034 113.516 232.782 113.524L232.323 113.539V137.842V162.145L233.7 162.029C235.514 161.876 250.352 160.951 250.996 160.951H251.497V136.66V112.368L250.528 112.393C249.995 112.406 245.888 112.663 241.4 112.963ZM250.681 136.562V160.366L250.018 160.368C249.654 160.369 246.005 160.587 241.91 160.852C237.815 161.118 234.075 161.337 233.598 161.338L232.731 161.341V137.635V113.929L233.292 113.916C233.864 113.903 250.249 112.825 250.528 112.782C250.612 112.769 250.681 123.47 250.681 136.562ZM222.634 114.136C218.147 114.436 214.039 114.688 213.507 114.696L212.537 114.71V139.001V163.293L212.996 163.293C213.739 163.295 229.265 162.325 230.436 162.204L231.507 162.094V137.817C231.507 114.815 231.489 113.54 231.15 113.565C230.954 113.579 227.122 113.836 222.634 114.136ZM230.895 137.811V161.497L229.519 161.615C228.761 161.681 225.204 161.909 221.614 162.123C218.024 162.336 214.606 162.561 214.016 162.623L212.946 162.736V138.955V115.174L220.747 114.676C225.039 114.402 229.077 114.165 229.722 114.151L230.895 114.124V137.811ZM200.911 115.502C196.367 115.806 192.627 116.059 192.599 116.065C192.571 116.071 192.548 126.995 192.548 140.341V164.606L193.925 164.514C194.682 164.463 198.973 164.189 203.46 163.906L211.62 163.39L211.671 139.147L211.723 114.905L210.447 114.927C209.746 114.94 205.454 115.198 200.911 115.502ZM210.856 139.05L210.804 162.804L202.645 163.328C198.157 163.615 194.142 163.856 193.72 163.864L192.956 163.877V140.172C192.956 121.343 193.008 116.463 193.211 116.453C193.351 116.447 197.137 116.195 201.625 115.894C206.112 115.592 210.036 115.335 210.345 115.321L210.907 115.295L210.856 139.05ZM175.618 141.81V167.35L174.241 167.472C173.484 167.539 162.996 168.205 150.936 168.953C138.877 169.701 128.344 170.368 127.53 170.435L126.051 170.557V169.675V168.792L127.939 168.665C128.976 168.594 130.697 168.477 131.762 168.402L133.701 168.268L133.752 143.999L133.804 119.729L131.611 119.859C130.404 119.93 128.66 120.042 127.734 120.107C126.112 120.223 126.051 120.211 126.051 119.81C126.051 119.488 126.18 119.39 126.612 119.38C126.921 119.373 137.867 118.682 150.936 117.843C164.006 117.005 174.907 116.308 175.159 116.294L175.618 116.271V141.81ZM177.249 142.231V168.192L176.638 167.847L176.026 167.501V141.886V116.271H176.638H177.249V142.231ZM163.583 117.842C159.039 118.144 155.116 118.397 154.863 118.404L154.404 118.417V142.725V167.033L155.883 166.911C157.667 166.765 172.624 165.829 173.183 165.829C173.571 165.829 173.578 165.427 173.578 141.537V117.246L172.711 117.27C172.234 117.283 168.126 117.54 163.583 117.842ZM172.712 165.155C172.636 165.219 156.477 166.224 155.577 166.222L154.812 166.219V142.513V118.807L155.475 118.794C155.839 118.787 159.855 118.545 164.399 118.256L172.66 117.731L172.712 141.421C172.74 154.451 172.74 165.131 172.712 165.155ZM143.797 119.077L134.517 119.685L134.465 143.928L134.413 168.171L134.974 168.173C135.842 168.176 151.742 167.197 152.721 167.08L153.588 166.976V142.697C153.588 123.389 153.536 118.422 153.333 118.443C153.193 118.457 148.902 118.743 143.797 119.077ZM152.977 142.693V166.383L151.702 166.499C151 166.562 147.536 166.787 144.001 166.998C140.467 167.209 137.002 167.435 136.3 167.499L135.025 167.616L135.077 143.846L135.128 120.075L142.982 119.565C147.301 119.284 151.317 119.042 151.905 119.028L152.977 119.002V142.693ZM132.987 143.95V167.727L130.182 167.861C128.639 167.934 127.079 168.043 126.714 168.104L126.051 168.214V144.413V120.612L129.06 120.424C130.715 120.321 132.275 120.222 132.528 120.205L132.987 120.173V143.95ZM7.28977 143.683C7.47051 143.791 8.26619 144.281 9.05841 144.773C9.85063 145.265 11.0493 146.003 11.7225 146.413C12.3956 146.824 13.5887 147.555 14.374 148.039C15.1593 148.522 16.1233 149.114 16.5159 149.354C16.9086 149.593 18.5609 150.614 20.1876 151.622C21.8143 152.63 27.7116 156.251 33.2931 159.669L43.441 165.884V169.677C43.441 171.965 43.3649 173.445 43.2492 173.405C43.0816 173.349 39.2743 171.07 26.6555 163.473C19.3635 159.084 9.85756 153.349 6.87842 151.541L3.66522 149.591V145.52V141.449L5.31337 142.469C6.22055 143.03 7.10972 143.576 7.28977 143.683ZM254.358 163.393C255.156 163.875 255.217 163.881 257.566 163.72C259.444 163.591 260.049 163.612 260.365 163.815C260.586 163.956 260.93 164.073 261.129 164.073C261.329 164.073 261.492 164.194 261.492 164.342C261.492 164.49 261.78 164.725 262.133 164.865C262.486 165.005 263.004 165.323 263.285 165.571C263.565 165.82 263.874 166.024 263.969 166.024C264.065 166.024 264.144 166.804 264.144 167.757V169.49L265.094 170.082L266.045 170.673L265.146 170.786C264.312 170.89 127.202 179.49 126.408 179.488C126.079 179.487 126.051 179.152 126.051 175.194V170.902L126.714 170.894C127.079 170.89 138.253 170.201 151.546 169.362L175.714 167.836L176.491 168.328L177.268 168.82L180.778 168.59C182.708 168.463 185.388 168.278 186.735 168.176C188.081 168.076 189.847 167.972 190.661 167.945C192.133 167.897 192.139 167.894 192.139 167.35C192.139 166.964 192.245 166.801 192.497 166.794C192.754 166.786 250.355 163.116 253.184 162.926C253.382 162.913 253.911 163.123 254.358 163.393ZM89.9473 167.178V171.259L88.4688 171.379C84.1635 171.728 44.3558 174.027 44.119 173.94C43.8939 173.857 43.851 173.083 43.8953 169.882L43.9507 165.926L65.7762 164.537C77.7807 163.773 88.1294 163.136 88.7749 163.122L89.9473 163.097V167.178ZM98.8722 168.492C103.556 171.353 107.984 174.063 108.713 174.514C110.181 175.422 113.25 177.308 114.549 178.099C115.01 178.379 116.037 179.004 116.831 179.487L118.276 180.365L118.289 184.022L118.3 187.679L115.597 186.092C114.111 185.219 111.243 183.536 109.224 182.353C107.204 181.171 104.722 179.712 103.708 179.113C102.693 178.514 99.2316 176.487 96.0149 174.609L90.1661 171.194L90.1592 167.243C90.155 165.07 90.1979 163.293 90.254 163.293C90.3108 163.293 94.1888 165.633 98.8722 168.492ZM272.915 174.511V178.316H272.409C271.967 178.316 232.866 180.847 144.433 186.601C124.802 187.878 119.183 188.188 118.885 188.01C118.234 187.621 118.307 180.508 118.963 180.38C119.216 180.33 120.982 180.195 122.889 180.079C124.797 179.962 158.805 177.816 198.463 175.309C238.122 172.801 271.096 170.741 271.742 170.729L272.915 170.707V174.511Z" fill="#485145"/>
</svg>
