<svg width="154" height="226" viewBox="0 0 154 226" fill="none" xmlns="http://www.w3.org/2000/svg">
<path d="M154 78.5061L146.992 85.6322L90.9984 28.5497L83.9901 21.4237L90.9984 14.2791L154 78.5061Z" fill="#31403A"/>
<path d="M140.002 92.7767L132.993 99.9027L77 42.8203L69.9918 35.6943L63.0017 28.5497L55.9934 21.4237L63.0017 14.2791L69.9918 21.4237L77 28.5497L140.002 92.7767Z" fill="#31403A"/>
<path d="M126.003 107.047L118.995 114.173L112.005 121.318L104.997 128.462L98.0066 121.318L90.9984 114.192L84.0082 107.047L77 99.9212L84.0082 92.7767L90.9984 85.6321L98.0066 78.5061L104.997 85.6321L98.0066 92.7767L90.9984 99.9212L98.0066 107.047L104.997 114.192L112.005 107.047L118.995 99.9027L126.003 107.047Z" fill="#31403A"/>
<path d="M98.0066 135.589L90.9984 142.733L55.9934 107.047L49.0033 99.9028L41.9951 92.7767L35.0049 85.6322L27.9967 78.5061L55.9934 49.9649L49.0033 42.8203L21.0066 71.3615L13.9984 64.2355L49.0033 28.5497L55.9934 35.6943L63.0016 42.8203L70.0099 49.9649L63.0016 57.091L41.9951 78.5061L49.0033 85.6322L55.9934 92.7767L63.0016 99.9212L70.0099 107.047L77 114.192L84.0082 121.318L90.9984 128.462L98.0066 135.589Z" fill="#31403A"/>
<path d="M83.9992 78.3938L84.0082 78.5061L70.0099 92.6553L63.0017 85.6322L55.8908 78.5061L70.0099 64.2355L69.8983 64.2262H83.9992V78.3938Z" fill="#31403A"/>
<path d="M77.0113 0L70.0069 7.1406L77.0113 14.2812L84.0157 7.14061L77.0113 0Z" fill="#31403A"/>
<path d="M77.0048 142.718L70.0004 149.859L77.0048 156.999L84.0092 149.859L77.0048 142.718Z" fill="#31403A"/>
<path d="M69.9918 135.589L63.0017 142.733L0 78.5061L7.00823 71.3615L13.9984 78.5061L21.0066 85.6322L27.9967 92.7767L69.9918 135.589Z" fill="#31403A"/>
<path d="M32.7888 203.463H29.0899L26.9257 195.801H16.8916L14.7667 203.463H11.0679L18.9378 175.383H24.9189L32.7888 203.463ZM17.7966 192.673H26.06L21.9283 177.91L17.7966 192.673Z" fill="#31403A"/>
<path d="M57.8556 180.197L50.9301 199.452H48.0182L41.0927 180.197V203.463H37.3152V175.383H42.6667L49.4741 194.357L56.2816 175.383H61.6331V203.463H57.8556V180.197Z" fill="#31403A"/>
<path d="M90.0575 180.197L83.132 199.452H80.2202L73.2947 180.197V203.463H69.5171V175.383H74.8686L81.6761 194.357L88.4835 175.383H93.8351V203.463H90.0575V180.197Z" fill="#31403A"/>
<path d="M117.065 178.512H105.497V187.859H115.885V190.988H105.497V200.334H117.065V203.463H101.719V175.383H117.065V178.512Z" fill="#31403A"/>
<path d="M133.973 193.756C133.658 193.06 133.304 192.592 132.911 192.352C132.517 192.111 132.058 191.991 131.534 191.991H127.323V203.463H123.546V175.383H131.494C133.068 175.383 134.445 175.61 135.626 176.065C136.806 176.493 137.777 177.095 138.538 177.87C139.325 178.619 139.915 179.502 140.309 180.518C140.702 181.534 140.899 182.63 140.899 183.807C140.899 185.545 140.492 187.056 139.679 188.34C138.892 189.624 137.698 190.587 136.098 191.228C136.465 191.496 136.754 191.803 136.964 192.151C137.2 192.472 137.397 192.793 137.554 193.114L142.473 203.463H138.341L133.973 193.756ZM127.323 178.512V188.862H131.494C132.622 188.862 133.554 188.715 134.288 188.42C135.023 188.099 135.6 187.698 136.019 187.217C136.465 186.736 136.78 186.187 136.964 185.572C137.147 184.957 137.239 184.329 137.239 183.687C137.239 183.072 137.147 182.457 136.964 181.842C136.78 181.226 136.465 180.678 136.019 180.197C135.6 179.689 135.023 179.288 134.288 178.993C133.554 178.672 132.622 178.512 131.494 178.512H127.323Z" fill="#31403A"/>
<path d="M44.1706 220.133H49.286V221.303H44.1706V220.133Z" fill="#31403A"/>
<path d="M59.7935 225.749H58.2195V220.551H53.3992V225.749H51.8253V214.049H53.3992V219.247H58.2195V214.049H59.7935V225.749Z" fill="#31403A"/>
<path d="M62.5733 219.883C62.5733 218.88 62.6936 217.999 62.934 217.242C63.1745 216.484 63.5079 215.849 63.9342 215.336C64.3605 214.824 64.8633 214.439 65.4426 214.183C66.0328 213.927 66.6668 213.798 67.3445 213.798C68.0221 213.798 68.6506 213.927 69.2299 214.183C69.8202 214.439 70.3285 214.824 70.7547 215.336C71.192 215.849 71.5308 216.484 71.7713 217.242C72.0227 217.999 72.1484 218.88 72.1484 219.883C72.1484 220.897 72.0227 221.788 71.7713 222.557C71.5308 223.315 71.192 223.95 70.7547 224.462C70.3285 224.975 69.8202 225.359 69.2299 225.616C68.6506 225.872 68.0221 226 67.3445 226C66.6668 226 66.0328 225.872 65.4426 225.616C64.8633 225.359 64.3605 224.975 63.9342 224.462C63.5079 223.95 63.1745 223.315 62.934 222.557C62.6936 221.788 62.5733 220.897 62.5733 219.883ZM64.2129 219.883C64.2129 220.707 64.2894 221.42 64.4424 222.022C64.5955 222.624 64.8086 223.125 65.0819 223.526C65.3661 223.916 65.6994 224.212 66.082 224.412C66.4646 224.602 66.8854 224.696 67.3445 224.696C67.8145 224.696 68.2407 224.602 68.6233 224.412C69.0168 224.212 69.3502 223.916 69.6234 223.526C69.9076 223.125 70.1262 222.624 70.2793 222.022C70.4323 221.42 70.5088 220.707 70.5088 219.883C70.5088 219.069 70.4323 218.367 70.2793 217.776C70.1262 217.175 69.9076 216.679 69.6234 216.289C69.3502 215.888 69.0168 215.592 68.6233 215.403C68.2407 215.202 67.8145 215.102 67.3445 215.102C66.8854 215.102 66.4646 215.202 66.082 215.403C65.6994 215.592 65.3661 215.888 65.0819 216.289C64.8086 216.679 64.5955 217.175 64.4424 217.776C64.2894 218.367 64.2129 219.069 64.2129 219.883Z" fill="#31403A"/>
<path d="M82.8159 221.805C82.8159 222.529 82.712 223.153 82.5043 223.677C82.2967 224.2 82.0125 224.635 81.6518 224.98C81.2911 225.326 80.8648 225.582 80.3729 225.749C79.8811 225.916 79.3509 226 78.7826 226C78.2032 226 77.6677 225.916 77.1758 225.749C76.6948 225.582 76.274 225.326 75.9133 224.98C75.5526 224.635 75.2684 224.2 75.0608 223.677C74.864 223.153 74.7656 222.529 74.7656 221.805V214.049H76.3396V221.805C76.3396 222.34 76.3997 222.796 76.52 223.175C76.6402 223.543 76.8042 223.844 77.0118 224.078C77.2304 224.312 77.4873 224.485 77.7824 224.596C78.0885 224.696 78.4219 224.746 78.7826 224.746C79.1542 224.746 79.4876 224.696 79.7827 224.596C80.0887 224.485 80.3456 224.312 80.5533 224.078C80.7719 223.844 80.9413 223.543 81.0615 223.175C81.1818 222.796 81.2419 222.34 81.2419 221.805V214.049H82.8159V221.805Z" fill="#31403A"/>
<path d="M91.1432 223.025C91.1432 222.579 91.0011 222.211 90.7169 221.922C90.4327 221.632 90.0774 221.376 89.6512 221.153C89.2358 220.93 88.7767 220.713 88.2739 220.501C87.7821 220.289 87.323 220.033 86.8967 219.732C86.4814 219.431 86.1316 219.064 85.8474 218.629C85.5632 218.183 85.4211 217.62 85.4211 216.941C85.4211 216.606 85.4812 216.255 85.6014 215.888C85.7326 215.52 85.9403 215.18 86.2245 214.868C86.5087 214.556 86.8803 214.3 87.3394 214.099C87.8094 213.899 88.3887 213.798 89.0773 213.798C89.9845 213.798 90.7387 213.999 91.3399 214.4C91.952 214.79 92.3892 215.436 92.6516 216.339L91.2251 216.857C91.0393 216.311 90.7497 215.882 90.3562 215.57C89.9627 215.258 89.4653 215.102 88.8642 215.102C88.3067 215.102 87.8531 215.253 87.5033 215.553C87.1645 215.854 86.9951 216.272 86.9951 216.807C86.9951 217.264 87.1372 217.643 87.4214 217.944C87.7056 218.233 88.0553 218.495 88.4707 218.729C88.897 218.952 89.356 219.169 89.8479 219.381C90.3507 219.593 90.8098 219.844 91.2251 220.133C91.6514 220.412 92.0067 220.757 92.2908 221.17C92.575 221.571 92.7171 222.083 92.7171 222.707C92.7171 223.053 92.6516 223.42 92.5204 223.81C92.3892 224.189 92.1761 224.546 91.881 224.88C91.5858 225.203 91.1923 225.471 90.7005 225.682C90.2195 225.894 89.6184 226 88.897 226C87.9242 226 87.1098 225.76 86.454 225.281C85.8091 224.791 85.3501 223.994 85.0768 222.891L86.4868 222.373C86.8694 223.922 87.7219 224.696 89.0445 224.696C89.6566 224.696 90.1594 224.54 90.5529 224.228C90.9464 223.905 91.1432 223.504 91.1432 223.025Z" fill="#31403A"/>
<path d="M101.61 215.353H96.7899V219.247H101.118V220.551H96.7899V224.446H101.61V225.749H95.2159V214.049H101.61V215.353Z" fill="#31403A"/>
<path d="M103.573 220.133H108.688V221.303H103.573V220.133Z" fill="#31403A"/>
</svg>
